SplineFontDB: 3.2
FontName: sportIcons
FullName: sportIcons
FamilyName: .
Weight: Book
Copyright: Typeface (c) (your company). 2021. All Rights Reserved
Version: 1.000;November 8, 2023;FontCreator 14.0.0.2901 32-bit
ItalicAngle: 0
UnderlinePosition: -5392
UnderlineWidth: 150
Ascent: 1638
Descent: 410
InvalidEm: 0
sfntRevision: 0x00010000
LayerCount: 2
Layer: 0 1 "Back" 1
Layer: 1 1 "Fore" 0
XUID: [1021 973 298964828 26756]
StyleMap: 0x0040
FSType: 0
OS2Version: 4
OS2_WeightWidthSlopeOnly: 1
OS2_UseTypoMetrics: 0
CreationTime: 1632751415
ModificationTime: 1707779813
PfmFamily: 17
TTFWeight: 400
TTFWidth: 5
LineGap: 0
VLineGap: 0
Panose: 2 0 5 0 0 0 0 0 0 0
OS2TypoAscent: 1638
OS2TypoAOffset: 0
OS2TypoDescent: -410
OS2TypoDOffset: 0
OS2TypoLinegap: 0
OS2WinAscent: 1024
OS2WinAOffset: 0
OS2WinDescent: 40
OS2WinDOffset: 0
HheadAscent: 1024
HheadAOffset: 0
HheadDescent: -40
HheadDOffset: 0
OS2SubXSize: 1434
OS2SubYSize: 1331
OS2SubXOff: 0
OS2SubYOff: 283
OS2SupXSize: 1434
OS2SupYSize: 1331
OS2SupXOff: 0
OS2SupYOff: 977
OS2StrikeYSize: 102
OS2StrikeYPos: 530
OS2CapHeight: 1434
OS2XHeight: 1024
OS2Vendor: 'HL  '
OS2CodePages: 00000001.00000000
OS2UnicodeRanges: 00000000.10000000.00000000.00000000
MarkAttachClasses: 1
DEI: 91125
TtTable: prep
PUSHW_1
 511
SCANCTRL
PUSHB_1
 1
SCANTYPE
SVTCA[y-axis]
MPPEM
PUSHB_1
 8
LT
IF
PUSHB_2
 1
 1
INSTCTRL
EIF
PUSHB_2
 70
 6
CALL
IF
POP
PUSHB_1
 16
EIF
MPPEM
PUSHB_1
 20
GT
IF
POP
PUSHB_1
 128
EIF
SCVTCI
PUSHB_1
 6
CALL
NOT
IF
EIF
PUSHB_1
 20
CALL
EndTTInstrs
TtTable: fpgm
PUSHB_1
 0
FDEF
PUSHB_1
 0
SZP0
MPPEM
PUSHB_1
 76
LT
IF
PUSHB_1
 74
SROUND
EIF
PUSHB_1
 0
SWAP
MIAP[rnd]
RTG
PUSHB_1
 6
CALL
IF
RTDG
EIF
MPPEM
PUSHB_1
 76
LT
IF
RDTG
EIF
DUP
MDRP[rp0,rnd,grey]
PUSHB_1
 1
SZP0
MDAP[no-rnd]
RTG
ENDF
PUSHB_1
 1
FDEF
DUP
MDRP[rp0,min,white]
PUSHB_1
 12
CALL
ENDF
PUSHB_1
 2
FDEF
MPPEM
GT
IF
RCVT
SWAP
EIF
POP
ENDF
PUSHB_1
 3
FDEF
ROUND[Black]
RTG
DUP
PUSHB_1
 64
LT
IF
POP
PUSHB_1
 64
EIF
ENDF
PUSHB_1
 4
FDEF
PUSHB_1
 6
CALL
IF
POP
SWAP
POP

StartChar: .notdef
Encoding: 65536 -1 0
Width: 1435
GlyphClass: 1
Flags: W
LayerCount: 2
Fore
SplineSet
180 0 m 1,0,-1
 180 1434 l 1,1,-1
 1255 1434 l 1,2,-1
 1255 0 l 1,3,-1
 180 0 l 1,0,-1
360 180 m 1,4,-1
 1075 180 l 1,5,-1
 1075 1254 l 1,6,-1
 360 1254 l 1,7,-1
 360 180 l 1,4,-1
EndSplineSet
EndChar

StartChar: uniE001
Encoding: 57345 57345 3
Width: 1024
GlyphClass: 2
Flags: W
LayerCount: 2
Fore
SplineSet
5 114 m 1,0,-1
 5 173 l 1,1,2
 64 173 64 173 109 193 c 0,3,4
 155 212 155 212 169 241 c 0,5,6
 175 252 175 252 175 265 c 1,7,8
 175 252 175 252 181 241 c 0,9,10
 195 212 195 212 241 193 c 0,11,12
 287 173 287 173 345 173 c 256,13,14
 403 173 403 173 449 193 c 0,15,16
 494 212 494 212 509 241 c 0,17,18
 514 252 514 252 514 265 c 1,19,20
 514 252 514 252 520 241 c 0,21,22
 535 212 535 212 580 193 c 0,23,24
 626 173 626 173 685 173 c 0,25,26
 743 173 743 173 789 193 c 0,27,28
 834 212 834 212 849 241 c 0,29,30
 855 252 855 252 855 265 c 1,31,32
 855 252 855 252 860 241 c 0,33,34
 875 212 875 212 920 193 c 0,35,36
 966 173 966 173 1024 173 c 1,37,-1
 1024 114 l 1,38,39
 964 114 964 114 917 133 c 256,40,41
 870 152 870 152 855 181 c 1,42,43
 839 152 839 152 792 133 c 0,44,45
 744 114 744 114 685 114 c 0,46,47
 624 114 624 114 576 133 c 0,48,49
 529 152 529 152 514 181 c 1,50,51
 498 152 498 152 452 133 c 0,52,53
 404 114 404 114 344 114 c 256,54,55
 284 114 284 114 237 133 c 256,56,57
 190 152 190 152 174 181 c 1,58,59
 159 152 159 152 112 133 c 256,60,61
 65 114 65 114 5 114 c 1,0,-1
5 0 m 1,62,-1
 5 59 l 1,63,64
 64 59 64 59 109 79 c 0,65,66
 155 98 155 98 169 128 c 0,67,68
 175 138 175 138 175 152 c 1,69,70
 175 138 175 138 181 128 c 0,71,72
 195 98 195 98 241 79 c 0,73,74
 287 59 287 59 345 59 c 256,75,76
 403 59 403 59 449 79 c 0,77,78
 494 98 494 98 509 128 c 0,79,80
 514 138 514 138 514 152 c 1,81,82
 514 138 514 138 520 128 c 0,83,84
 535 98 535 98 580 79 c 0,85,86
 626 59 626 59 685 59 c 0,87,88
 743 59 743 59 789 79 c 0,89,90
 834 98 834 98 849 128 c 0,91,92
 855 138 855 138 855 152 c 1,93,94
 855 138 855 138 860 128 c 0,95,96
 875 98 875 98 920 79 c 0,97,98
 966 59 966 59 1024 59 c 1,99,-1
 1024 0 l 1,100,-1
 5 0 l 1,62,-1
481 943 m 1,101,-1
 70 704 l 2,102,103
 66 701 66 701 62 701 c 0,104,105
 56 701 56 701 50 706 c 0,106,107
 44 712 44 712 44 719 c 0,108,109
 44 723 44 723 46 727 c 0,110,111
 100 846 100 846 204 925 c 0,112,113
 311 1006 311 1006 442 1024 c 1,114,-1
 454 1024 l 2,115,116
 461 1023 461 1023 467 1021 c 0,117,118
 481 1014 481 1014 481 997 c 2,119,-1
 481 943 l 1,101,-1
481 735 m 1,120,-1
 43 479 l 2,121,122
 33 474 33 474 24 474 c 0,123,124
 18 474 18 474 12 477 c 0,125,126
 1 483 1 483 0 495 c 2,127,-1
 0 514 l 2,128,129
 0 544 0 544 4 574 c 0,130,131
 7 602 7 602 32 616 c 2,132,-1
 481 877 l 1,133,-1
 481 735 l 1,120,-1
481 525 m 1,134,-1
 84 294 l 2,135,136
 77 290 77 290 70 290 c 0,137,138
 66 290 66 290 61 291 c 0,139,140
 49 295 49 295 44 306 c 0,141,142
 30 339 30 339 23 362 c 0,143,144
 21 369 21 369 21 375 c 0,145,146
 21 383 21 383 25 392 c 0,147,148
 31 406 31 406 44 414 c 2,149,-1
 481 668 l 1,150,-1
 481 525 l 1,134,-1
661 454 m 1,151,-1
 538 525 l 1,152,-1
 538 995 l 2,153,154
 538 1008 538 1008 548 1017 c 0,155,156
 556 1024 556 1024 566 1024 c 2,157,-1
 570 1024 l 1,158,159
 599 1020 599 1020 628 1013 c 0,160,161
 642 1010 642 1010 652 997 c 0,162,163
 661 985 661 985 661 969 c 2,164,-1
 661 454 l 1,151,-1
491 278 m 1,165,166
 442 232 442 232 345 232 c 2,167,-1
 324 232 l 1,168,-1
 208 301 l 1,169,-1
 331 372 l 1,170,-1
 491 278 l 1,165,166
841 349 m 1,171,-1
 718 421 l 1,172,-1
 718 936 l 2,173,174
 718 953 718 953 732 961 c 0,175,176
 740 965 740 965 747 965 c 256,177,178
 754 965 754 965 761 961 c 0,179,180
 790 944 790 944 820 922 c 0,181,182
 841 905 841 905 841 877 c 2,183,-1
 841 349 l 1,171,-1
838 285 m 1,184,185
 817 261 817 261 776 247 c 0,186,187
 735 232 735 232 685 232 c 2,188,-1
 684 232 l 1,189,-1
 387 405 l 1,190,-1
 510 476 l 1,191,-1
 838 285 l 1,184,185
976 307 m 0,193,194
 971 296 971 296 963 291 c 0,195,196
 957 288 957 288 952 288 c 0,197,198
 946 288 946 288 940 291 c 0,199,200
 929 298 929 298 897 317 c 1,201,-1
 897 797 l 2,202,203
 897 809 897 809 909 813 c 0,204,205
 912 814 912 814 915 814 c 0,206,207
 923 814 923 814 929 806 c 0,208,209
 1020 676 1020 676 1020 514 c 0,210,192
 1020 406 1020 406 976 307 c 0,193,194
EndSplineSet
EndChar

StartChar: uniE002
Encoding: 57346 57346 4
Width: 1024
GlyphClass: 2
Flags: W
LayerCount: 2
Fore
SplineSet
831 204 m 0,1,2
 854 188 854 188 854 160 c 2,3,-1
 854 158 l 2,4,5
 854 131 854 131 834 115 c 0,6,7
 694 0 694 0 512 0 c 256,8,9
 330 0 330 0 190 115 c 0,10,11
 170 131 170 131 170 158 c 2,12,-1
 170 160 l 2,13,14
 171 188 171 188 193 204 c 0,15,16
 336 307 336 307 512 307 c 0,17,0
 689 307 689 307 831 204 c 0,1,2
193 820 m 0,19,20
 171 836 171 836 170 864 c 2,21,-1
 170 867 l 2,22,23
 170 893 170 893 190 910 c 0,24,25
 330 1024 330 1024 512 1024 c 256,26,27
 694 1024 694 1024 834 910 c 0,28,29
 855 893 855 893 855 867 c 2,30,-1
 855 864 l 2,31,32
 854 836 854 836 831 820 c 0,33,34
 689 717 689 717 512 717 c 0,35,18
 336 717 336 717 193 820 c 0,19,20
957 260 m 0,37,38
 944 237 944 237 919 233 c 0,39,40
 913 232 913 232 907 232 c 0,41,42
 889 232 889 232 874 243 c 0,43,44
 714 364 714 364 512 364 c 256,45,46
 310 364 310 364 150 243 c 0,47,48
 135 232 135 232 117 232 c 0,49,50
 111 232 111 232 105 233 c 0,51,52
 80 238 80 238 67 260 c 0,53,54
 0 377 0 377 0 512 c 256,55,56
 0 647 0 647 67 765 c 0,57,58
 80 787 80 787 105 792 c 0,59,60
 111 793 111 793 117 793 c 0,61,62
 135 793 135 793 150 781 c 0,63,64
 310 660 310 660 512 660 c 256,65,66
 714 660 714 660 874 781 c 0,67,68
 889 793 889 793 907 793 c 0,69,70
 913 793 913 793 919 792 c 0,71,72
 944 787 944 787 957 765 c 0,73,74
 1024 647 1024 647 1024 512 c 256,75,36
 1024 377 1024 377 957 260 c 0,37,38
EndSplineSet
EndChar

StartChar: uniE003
Encoding: 57347 57347 5
Width: 1024
GlyphClass: 2
Flags: W
LayerCount: 2
Fore
SplineSet
247 541 m 1,1,-1
 46 541 l 2,2,3
 25 541 25 541 11 558 c 0,4,5
 0 571 0 571 0 587 c 0,6,7
 0 591 0 591 1 595 c 0,8,9
 20 711 20 711 87 808 c 0,10,11
 101 827 101 827 123 827 c 2,12,-1
 126 827 l 2,13,14
 150 826 150 826 164 806 c 0,15,0
 240 684 240 684 247 541 c 1,1,-1
483 541 m 1,16,-1
 305 541 l 1,17,18
 296 720 296 720 193 865 c 0,19,20
 184 877 184 877 184 891 c 2,21,-1
 184 897 l 2,22,23
 186 915 186 915 200 925 c 0,24,25
 303 1003 303 1003 430 1024 c 1,26,-1
 438 1024 l 2,27,28
 454 1024 454 1024 467 1014 c 0,29,30
 483 1000 483 1000 483 979 c 2,31,-1
 483 541 l 1,16,-1
720 541 m 1,33,-1
 541 541 l 1,34,-1
 541 979 l 2,35,36
 541 1000 541 1000 558 1013 c 0,37,38
 570 1024 570 1024 587 1024 c 0,39,40
 591 1024 591 1024 595 1023 c 0,41,42
 722 1003 722 1003 825 925 c 0,43,44
 839 915 839 915 840 897 c 2,45,-1
 840 892 l 2,46,47
 840 877 840 877 831 864 c 0,48,32
 728 718 728 718 720 541 c 1,33,-1
777 541 m 1,49,50
 785 684 785 684 861 806 c 0,51,52
 874 826 874 826 898 827 c 2,53,-1
 901 827 l 2,54,55
 924 827 924 827 937 808 c 0,56,57
 1005 711 1005 711 1023 594 c 0,58,59
 1024 590 1024 590 1024 586 c 0,60,61
 1024 570 1024 570 1013 557 c 0,62,63
 1000 541 1000 541 979 541 c 2,64,-1
 777 541 l 1,49,50
247 483 m 1,65,66
 240 339 240 339 164 218 c 0,67,68
 151 198 151 198 126 197 c 2,69,-1
 125 197 l 2,70,71
 101 197 101 197 87 217 c 0,72,73
 20 314 20 314 2 429 c 0,74,75
 1 434 1 434 1 438 c 0,76,77
 1 454 1 454 12 467 c 0,78,79
 25 483 25 483 46 483 c 2,80,-1
 247 483 l 1,65,66
483 483 m 1,81,-1
 483 46 l 2,82,83
 483 25 483 25 467 11 c 0,84,85
 454 1 454 1 438 1 c 2,86,-1
 429 1 l 1,87,88
 303 21 303 21 199 99 c 0,89,90
 186 109 186 109 184 127 c 0,91,92
 183 130 183 130 183 133 c 0,93,94
 183 147 183 147 192 159 c 0,95,96
 296 305 296 305 304 483 c 1,97,-1
 483 483 l 1,81,-1
595 1 m 0,99,100
 591 0 591 0 587 0 c 0,101,102
 571 0 571 0 557 11 c 0,103,104
 541 24 541 24 541 45 c 2,105,-1
 541 483 l 1,106,-1
 719 483 l 1,107,108
 728 305 728 305 831 159 c 0,109,110
 840 146 840 146 840 131 c 2,111,-1
 840 127 l 2,112,113
 838 109 838 109 825 99 c 0,114,98
 721 21 721 21 595 1 c 0,99,100
938 217 m 0,116,117
 924 198 924 198 900 198 c 2,118,-1
 899 198 l 2,119,120
 874 198 874 198 862 219 c 0,121,122
 786 339 786 339 778 484 c 1,123,-1
 979 484 l 2,124,125
 1000 483 1000 483 1014 467 c 0,126,127
 1024 454 1024 454 1024 438 c 2,128,-1
 1024 430 l 1,129,115
 1005 314 1005 314 938 217 c 0,116,117
EndSplineSet
EndChar

StartChar: uniE004
Encoding: 57348 57348 6
Width: 1024
GlyphClass: 2
Flags: W
LayerCount: 2
Fore
SplineSet
248 263 m 1,0,1
 220 210 220 210 183 166 c 0,2,3
 170 149 170 149 148 148 c 0,4,5
 126 148 126 148 112 165 c 0,6,7
 0 297 0 297 0 512 c 0,8,9
 0 726 0 726 112 860 c 0,10,11
 126 876 126 876 148 876 c 0,12,13
 169 876 169 876 183 859 c 0,14,15
 221 812 221 812 248 761 c 1,16,-1
 199 753 l 2,17,18
 187 751 187 751 181 741 c 0,19,20
 176 734 176 734 176 726 c 2,21,-1
 176 720 l 2,22,23
 178 710 178 710 186 703 c 256,24,25
 194 696 194 696 204 696 c 0,26,27
 207 696 207 696 209 697 c 2,28,-1
 271 708 l 1,29,30
 302 630 302 630 307 541 c 1,31,-1
 251 541 l 2,32,33
 239 541 239 541 230 532 c 0,34,35
 222 524 222 524 222 512 c 256,36,37
 222 500 222 500 230 492 c 0,38,39
 239 484 239 484 251 484 c 2,40,-1
 307 484 l 1,41,42
 302 396 302 396 272 316 c 1,43,-1
 211 327 l 2,44,45
 208 328 208 328 205 328 c 0,46,47
 197 328 197 328 189 323 c 0,48,49
 179 316 179 316 178 305 c 0,50,51
 177 302 177 302 177 299 c 0,52,53
 177 290 177 290 182 283 c 0,54,55
 189 273 189 273 200 272 c 2,56,-1
 248 263 l 1,0,1
719 253 m 1,57,58
 750 187 750 187 797 130 c 0,59,60
 807 117 807 117 807 102 c 0,61,62
 807 98 807 98 806 92 c 0,63,64
 802 71 802 71 783 61 c 0,65,66
 668 0 668 0 512 0 c 256,67,68
 356 0 356 0 241 61 c 0,69,70
 222 71 222 71 218 92 c 0,71,72
 217 97 217 97 217 102 c 0,73,74
 217 117 217 117 228 130 c 0,75,76
 275 187 275 187 306 253 c 1,77,-1
 369 242 l 1,78,-1
 371 242 l 1,79,-1
 373 241 l 1,80,81
 397 241 397 241 402 265 c 1,82,-1
 402 270 l 2,83,84
 402 278 402 278 397 286 c 0,85,86
 390 296 390 296 379 298 c 2,87,-1
 328 307 l 1,88,89
 360 393 360 393 364 484 c 1,90,-1
 421 484 l 2,91,92
 433 484 433 484 441 492 c 0,93,94
 450 500 450 500 450 512 c 256,95,96
 450 524 450 524 441 532 c 0,97,98
 433 541 433 541 421 541 c 2,99,-1
 364 541 l 1,100,101
 360 632 360 632 328 718 c 1,102,-1
 377 727 l 2,103,104
 389 728 389 728 395 738 c 0,105,106
 401 746 401 746 401 755 c 0,107,108
 401 757 401 757 400 760 c 0,109,110
 398 771 398 771 388 778 c 0,111,112
 381 783 381 783 372 783 c 0,113,114
 370 783 370 783 367 782 c 2,115,-1
 306 772 l 1,116,117
 273 839 273 839 227 894 c 0,118,119
 217 907 217 907 217 922 c 0,120,121
 217 927 217 927 218 932 c 0,122,123
 222 953 222 953 241 963 c 0,124,125
 357 1024 357 1024 512 1024 c 0,126,127
 668 1024 668 1024 783 963 c 0,128,129
 802 953 802 953 807 932 c 0,130,131
 808 927 808 927 808 923 c 0,132,133
 808 907 808 907 797 894 c 0,134,135
 751 839 751 839 719 772 c 1,136,-1
 657 782 l 2,137,138
 654 783 654 783 651 783 c 0,139,140
 643 783 643 783 635 778 c 0,141,142
 626 771 626 771 624 760 c 0,143,144
 623 757 623 757 623 754 c 0,145,146
 623 745 623 745 628 738 c 0,147,148
 635 728 635 728 646 727 c 2,149,-1
 696 718 l 1,150,151
 665 632 665 632 661 541 c 1,152,-1
 603 541 l 2,153,154
 591 541 591 541 583 532 c 0,155,156
 575 524 575 524 575 512 c 256,157,158
 575 500 575 500 583 492 c 256,159,160
 591 484 591 484 603 484 c 2,161,-1
 661 484 l 1,162,163
 665 393 665 393 696 307 c 1,164,-1
 646 298 l 2,165,166
 634 296 634 296 628 286 c 0,167,168
 623 278 623 278 623 270 c 2,169,-1
 623 265 l 2,170,171
 625 255 625 255 633 248 c 256,172,173
 641 241 641 241 651 241 c 1,174,-1
 653 242 l 1,175,-1
 656 242 l 1,176,-1
 719 253 l 1,57,58
912 165 m 0,178,179
 898 148 898 148 876 148 c 0,180,181
 854 149 854 149 840 166 c 0,182,183
 803 212 803 212 776 263 c 1,184,-1
 823 272 l 2,185,186
 835 273 835 273 842 283 c 0,187,188
 847 290 847 290 847 299 c 0,189,190
 847 302 847 302 846 305 c 0,191,192
 844 316 844 316 834 323 c 0,193,194
 827 328 827 328 819 328 c 0,195,196
 816 328 816 328 813 327 c 2,197,-1
 752 317 l 1,198,199
 722 396 722 396 717 484 c 1,200,-1
 773 484 l 2,201,202
 785 484 785 484 793 492 c 0,203,204
 802 500 802 500 802 512 c 256,205,206
 802 524 802 524 793 532 c 0,207,208
 785 541 785 541 773 541 c 2,209,-1
 717 541 l 1,210,211
 722 629 722 629 752 708 c 1,212,-1
 814 697 l 1,213,-1
 817 697 l 1,214,-1
 819 696 l 1,215,216
 842 696 842 696 847 720 c 0,217,218
 848 722 848 722 848 725 c 0,219,220
 848 733 848 733 842 741 c 0,221,222
 835 751 835 751 824 753 c 2,223,-1
 776 761 l 1,224,225
 804 814 804 814 840 859 c 0,226,227
 854 876 854 876 876 876 c 256,228,229
 898 876 898 876 912 860 c 0,230,231
 1024 727 1024 727 1024 512 c 256,232,177
 1024 297 1024 297 912 165 c 0,178,179
EndSplineSet
EndChar

StartChar: uniE005
Encoding: 57349 57349 7
Width: 1024
GlyphClass: 2
Flags: W
LayerCount: 2
Fore
SplineSet
179 349 m 2,0,1
 179 333 179 333 165 326 c 0,2,3
 159 323 159 323 153 323 c 0,4,5
 145 323 145 323 138 329 c 0,6,7
 75 378 75 378 37 429 c 0,8,9
 0 478 0 478 0 512 c 256,10,11
 0 546 0 546 37 595 c 0,12,13
 75 647 75 647 137 695 c 0,14,15
 144 701 144 701 153 701 c 0,16,17
 158 701 158 701 165 698 c 0,18,19
 179 691 179 691 179 675 c 2,20,-1
 179 349 l 2,0,1
682 580 m 2,21,22
 682 590 682 590 675 598 c 0,23,24
 667 605 667 605 656 605 c 0,25,26
 646 605 646 605 638 598 c 0,27,28
 631 590 631 590 631 580 c 2,29,-1
 631 537 l 1,30,-1
 538 537 l 1,31,-1
 538 580 l 2,32,33
 538 590 538 590 530 598 c 0,34,35
 523 605 523 605 512 605 c 256,36,37
 501 605 501 605 494 598 c 0,38,39
 487 590 487 590 487 580 c 2,40,-1
 487 537 l 1,41,-1
 393 537 l 1,42,-1
 393 580 l 2,43,44
 393 590 393 590 385 598 c 0,45,46
 378 605 378 605 367 605 c 0,47,48
 357 605 357 605 349 598 c 0,49,50
 342 590 342 590 342 580 c 2,51,-1
 342 445 l 2,52,53
 342 434 342 434 349 427 c 256,54,55
 356 420 356 420 367 420 c 256,56,57
 378 420 378 420 385 427 c 0,58,59
 393 434 393 434 393 445 c 2,60,-1
 393 487 l 1,61,-1
 487 487 l 1,62,-1
 487 445 l 2,63,64
 487 434 487 434 494 427 c 256,65,66
 501 420 501 420 512 420 c 256,67,68
 523 420 523 420 530 427 c 0,69,70
 538 434 538 434 538 445 c 2,71,-1
 538 487 l 1,72,-1
 631 487 l 1,73,-1
 631 445 l 2,74,75
 631 434 631 434 638 427 c 0,76,77
 646 420 646 420 656 420 c 0,78,79
 667 420 667 420 675 427 c 0,80,81
 682 434 682 434 682 445 c 2,82,-1
 682 580 l 2,21,22
512 834 m 256,83,84
 629 834 629 834 749 779 c 0,85,86
 770 769 770 769 781 750 c 0,87,88
 794 731 794 731 794 708 c 2,89,-1
 794 316 l 2,90,91
 794 293 794 293 781 274 c 0,92,93
 770 255 770 255 749 245 c 0,94,95
 629 190 629 190 512 190 c 0,96,97
 394 190 394 190 275 245 c 0,98,99
 255 255 255 255 243 274 c 0,100,101
 230 293 230 293 230 316 c 2,102,-1
 230 708 l 2,103,104
 230 731 230 731 243 750 c 0,105,106
 255 769 255 769 275 779 c 0,107,108
 395 834 395 834 512 834 c 256,83,84
987 429 m 0,110,111
 949 378 949 378 886 329 c 0,112,113
 879 323 879 323 871 323 c 0,114,115
 865 323 865 323 859 326 c 0,116,117
 845 334 845 334 845 349 c 2,118,-1
 845 675 l 2,119,120
 845 691 845 691 860 698 c 0,121,122
 866 701 866 701 871 701 c 0,123,124
 879 701 879 701 887 695 c 0,125,126
 949 646 949 646 987 595 c 0,127,128
 1024 545 1024 545 1024 512 c 0,129,109
 1024 478 1024 478 987 429 c 0,110,111
EndSplineSet
EndChar

StartChar: uniE006
Encoding: 57350 57350 8
Width: 889
GlyphClass: 2
Flags: W
LayerCount: 2
Fore
SplineSet
476 110 m 2,0,1
 487 104 487 104 490 93 c 0,2,3
 491 89 491 89 491 85 c 0,4,5
 491 78 491 78 487 72 c 2,6,-1
 454 14 l 2,7,8
 449 4 449 4 437 1 c 0,9,10
 433 0 433 0 430 0 c 0,11,12
 422 0 422 0 415 4 c 2,13,-1
 196 130 l 2,14,15
 186 136 186 136 183 147 c 0,16,17
 182 151 182 151 182 155 c 0,18,19
 182 163 182 163 186 169 c 2,20,-1
 195 184 l 1,21,-1
 348 184 l 1,22,-1
 476 110 l 2,0,1
769 259 m 0,23,24
 696 215 696 215 631 215 c 0,25,26
 619 215 619 215 607 217 c 2,27,-1
 599 217 l 2,28,29
 571 217 571 217 557 193 c 2,30,-1
 543 169 l 2,31,32
 537 159 537 159 526 156 c 0,33,34
 523 155 523 155 519 155 c 0,35,36
 512 155 512 155 504 159 c 2,37,-1
 424 205 l 1,38,39
 454 230 454 230 454 269 c 2,40,-1
 454 471 l 1,41,42
 489 487 489 487 517 512 c 0,43,44
 521 511 521 511 524 508 c 0,45,46
 645 439 645 439 751 436 c 2,47,-1
 753 436 l 2,48,49
 763 436 763 436 771 444 c 0,50,51
 780 452 780 452 780 463 c 0,52,53
 780 476 780 476 772 484 c 256,54,55
 764 492 764 492 753 492 c 0,56,57
 668 494 668 494 558 555 c 1,58,59
 579 580 579 580 596 612 c 0,60,61
 640 690 640 690 640 769 c 1,62,63
 675 754 675 754 706 739 c 0,64,65
 795 692 795 692 844 630 c 0,66,67
 876 586 876 586 876 553 c 0,68,69
 876 538 876 538 870 525 c 0,70,71
 860 506 860 506 834 495 c 1,72,73
 864 485 864 485 878 462 c 0,74,75
 889 444 889 444 889 422 c 0,76,77
 889 395 889 395 871 362 c 0,78,79
 839 302 839 302 769 259 c 0,23,24
397 267 m 2,80,81
 397 256 397 256 390 249 c 0,82,83
 382 241 382 241 372 240 c 2,84,-1
 114 240 l 2,85,86
 103 240 103 240 95 248 c 0,87,88
 88 256 88 256 88 267 c 2,89,-1
 88 338 l 2,90,91
 88 349 88 349 95 356 c 0,92,93
 103 364 103 364 114 364 c 2,94,-1
 371 364 l 2,95,96
 382 364 382 364 390 356 c 0,97,98
 397 349 397 349 397 338 c 2,99,-1
 397 267 l 2,80,81
429 522 m 0,101,102
 398 509 398 509 398 476 c 2,103,-1
 398 449 l 2,104,105
 398 437 398 437 390 428 c 0,106,107
 381 420 381 420 369 420 c 2,108,-1
 117 420 l 2,109,110
 104 420 104 420 96 428 c 0,111,112
 88 437 88 437 88 449 c 2,113,-1
 88 489 l 1,114,115
 29 539 29 539 8 672 c 0,116,117
 0 725 0 725 0 774 c 0,118,119
 0 840 0 840 15 898 c 0,120,121
 32 964 32 964 93 993 c 0,122,123
 146 1019 146 1019 254 1024 c 1,124,-1
 279 1024 l 2,125,126
 364 1024 364 1024 428 998 c 0,127,128
 500 968 500 968 503 920 c 2,129,-1
 503 918 l 2,130,131
 503 897 503 897 487 877 c 1,132,133
 497 879 497 879 507 879 c 0,134,135
 525 879 525 879 540 871 c 0,136,137
 583 847 583 847 585 779 c 2,138,-1
 585 772 l 2,139,140
 585 708 585 708 548 640 c 0,141,100
 499 552 499 552 429 522 c 0,101,102
EndSplineSet
EndChar

StartChar: uniE007
Encoding: 57351 57351 9
Width: 761
GlyphClass: 2
Flags: W
LayerCount: 2
Fore
SplineSet
381 705 m 0,0,1
 398 705 398 705 410 717 c 0,2,3
 423 730 423 730 423 747 c 0,4,5
 423 765 423 765 410 777 c 0,6,7
 398 789 398 789 381 789 c 0,8,9
 363 789 363 789 351 777 c 0,10,11
 338 765 338 765 338 747 c 0,12,13
 338 730 338 730 351 717 c 0,14,15
 363 705 363 705 381 705 c 0,0,1
278 807 m 0,16,17
 295 807 295 807 307 820 c 256,18,19
 319 833 319 833 319 850 c 256,20,21
 319 867 319 867 307 880 c 0,22,23
 295 892 295 892 278 892 c 0,24,25
 260 892 260 892 248 880 c 0,26,27
 235 867 235 867 235 850 c 256,28,29
 235 833 235 833 248 820 c 0,30,31
 260 807 260 807 278 807 c 0,16,17
278 602 m 0,32,33
 295 602 295 602 307 614 c 0,34,35
 319 627 319 627 319 644 c 256,36,37
 319 661 319 661 307 674 c 0,38,39
 295 686 295 686 278 686 c 0,40,41
 260 686 260 686 248 674 c 0,42,43
 235 661 235 661 235 644 c 256,44,45
 235 627 235 627 248 614 c 0,46,47
 260 602 260 602 278 602 c 0,32,33
174 705 m 0,48,49
 192 705 192 705 204 717 c 0,50,51
 216 730 216 730 216 747 c 0,52,53
 216 765 216 765 204 777 c 256,54,55
 192 789 192 789 174 789 c 0,56,57
 157 789 157 789 144 777 c 0,58,59
 132 765 132 765 132 747 c 0,60,61
 132 730 132 730 144 717 c 0,62,63
 157 705 157 705 174 705 c 0,48,49
381 1024 m 0,64,65
 457 1024 457 1024 528 994 c 0,66,67
 597 965 597 965 649 913 c 0,68,69
 761 801 761 801 761 644 c 0,70,71
 761 566 761 566 731 496 c 0,72,73
 702 428 702 428 649 375 c 0,74,75
 538 263 538 263 381 263 c 0,76,77
 303 263 303 263 232 293 c 0,78,79
 164 323 164 323 111 375 c 0,80,81
 0 486 0 486 0 644 c 0,82,83
 0 721 0 721 30 792 c 0,84,85
 59 860 59 860 111 913 c 0,86,87
 222 1024 222 1024 381 1024 c 0,64,65
418 17 m 0,89,90
 413 0 413 0 397 0 c 2,91,-1
 363 0 l 2,92,93
 348 0 348 0 343 17 c 0,94,95
 317 125 317 125 263 178 c 0,96,97
 246 196 246 196 243 214 c 0,98,99
 242 217 242 217 242 221 c 0,100,101
 242 224 242 224 243 227 c 0,102,103
 243 229 243 229 244 231 c 2,104,-1
 244 235 l 1,105,106
 310 213 310 213 381 213 c 0,107,108
 451 213 451 213 517 235 c 1,109,-1
 517 231 l 2,110,111
 518 229 518 229 518 227 c 0,112,113
 519 224 519 224 519 222 c 0,114,115
 519 218 519 218 518 214 c 0,116,117
 515 196 515 196 498 178 c 0,118,88
 444 125 444 125 418 17 c 0,89,90
EndSplineSet
EndChar

StartChar: uniE008
Encoding: 57352 57352 10
Width: 692
GlyphClass: 2
Flags: W
LayerCount: 2
Fore
SplineSet
91 280 m 2,0,1
 64 280 64 280 52 304 c 0,2,3
 26 358 26 358 25 406 c 0,4,5
 25 424 25 424 28 443 c 0,6,7
 30 457 30 457 35 473 c 0,8,9
 46 506 46 506 46 515 c 2,10,-1
 46 516 l 2,11,12
 45 533 45 533 18 544 c 1,13,14
 25 601 25 601 47 647 c 0,15,16
 56 665 56 665 68 682 c 0,17,18
 75 694 75 694 87 708 c 0,19,20
 108 735 108 735 109 743 c 0,21,22
 110 745 110 745 110 746 c 0,23,24
 110 758 110 758 88 770 c 1,25,26
 179 915 179 915 361 933 c 1,27,28
 372 966 372 966 412 1024 c 1,29,-1
 428 976 l 1,30,-1
 451 1007 l 1,31,-1
 484 911 l 1,32,33
 513 900 513 900 557 840 c 2,34,-1
 575 815 l 1,35,-1
 594 789 l 2,36,37
 616 758 616 758 631 741 c 1,38,39
 660 725 660 725 678 699 c 0,40,41
 692 680 692 680 692 662 c 0,42,43
 692 653 692 653 688 644 c 0,44,45
 667 599 667 599 628 599 c 2,46,-1
 627 599 l 2,47,48
 590 599 590 599 567 639 c 0,49,50
 559 651 559 651 546 654 c 0,51,52
 540 655 540 655 532 655 c 2,53,-1
 524 656 l 1,54,-1
 515 656 l 2,55,56
 492 656 492 656 474 661 c 0,57,58
 448 668 448 668 422 686 c 1,59,60
 393 665 393 665 393 622 c 0,61,62
 393 615 393 615 394 609 c 0,63,64
 397 560 397 560 431 529 c 0,65,66
 441 520 441 520 465 501 c 0,67,68
 477 492 477 492 484 487 c 0,69,70
 495 478 495 478 504 470 c 0,71,72
 545 433 545 433 563 388 c 0,73,74
 577 353 577 353 578 313 c 2,75,-1
 578 312 l 2,76,77
 578 299 578 299 568 289 c 256,78,79
 558 279 558 279 545 279 c 2,80,-1
 91 280 l 2,0,1
38 0 m 2,81,82
 19 0 19 0 8 15 c 0,83,84
 0 25 0 25 0 37 c 0,85,86
 0 43 0 43 1 48 c 2,87,-1
 43 200 l 2,88,89
 46 212 46 212 57 220 c 0,90,91
 67 228 67 228 80 228 c 2,92,-1
 548 228 l 2,93,94
 561 228 561 228 572 220 c 0,95,96
 582 212 582 212 585 200 c 2,97,-1
 627 48 l 2,98,99
 628 43 628 43 628 37 c 0,100,101
 628 25 628 25 620 15 c 0,102,103
 609 0 609 0 590 0 c 2,104,-1
 38 0 l 2,81,82
EndSplineSet
EndChar

StartChar: uniE009
Encoding: 57353 57353 11
Width: 1024
GlyphClass: 2
Flags: W
LayerCount: 2
Fore
SplineSet
855 819 m 0,1,2
 922 787 922 787 959 746 c 0,3,4
 997 703 997 703 997 656 c 0,5,6
 997 608 997 608 959 565 c 0,7,8
 922 524 922 524 855 492 c 0,9,10
 713 425 713 425 512 425 c 256,11,12
 311 425 311 425 169 492 c 0,13,14
 102 524 102 524 66 565 c 0,15,16
 28 608 28 608 28 656 c 0,17,18
 28 703 28 703 66 746 c 0,19,20
 102 787 102 787 169 819 c 0,21,22
 311 887 311 887 512 887 c 256,23,0
 713 887 713 887 855 819 c 0,1,2
1024 380 m 2,24,25
 1024 310 1024 310 968 267 c 0,26,27
 891 207 891 207 772 172 c 0,28,29
 651 137 651 137 512 137 c 0,30,31
 375 137 375 137 253 172 c 0,32,33
 135 206 135 206 57 266 c 0,34,35
 0 308 0 308 0 380 c 2,36,-1
 0 514 l 2,37,38
 0 523 0 523 9 527 c 0,39,40
 12 529 12 529 15 529 c 0,41,42
 20 529 20 529 25 525 c 0,43,44
 99 454 99 454 227 412 c 0,45,46
 359 369 359 369 512 369 c 0,47,48
 666 369 666 369 798 412 c 0,49,50
 925 454 925 454 1000 525 c 0,51,52
 1004 529 1004 529 1009 529 c 0,53,54
 1012 529 1012 529 1015 528 c 0,55,56
 1024 524 1024 524 1024 514 c 2,57,-1
 1024 380 l 2,24,25
EndSplineSet
EndChar

StartChar: uniE00A
Encoding: 57354 57354 12
Width: 1024
GlyphClass: 2
Flags: W
LayerCount: 2
Fore
SplineSet
867 145 m 1,0,-1
 869 146 l 1,1,2
 799 77 799 77 708 39 c 0,3,4
 614 0 614 0 512 0 c 0,5,6
 411 0 411 0 317 39 c 0,7,8
 227 76 227 76 157 144 c 1,9,10
 163 143 163 143 169 143 c 0,11,12
 178 143 178 143 190 145 c 2,13,-1
 206 149 l 1,14,-1
 222 154 l 2,15,16
 256 165 256 165 273 165 c 2,17,-1
 276 165 l 2,18,19
 293 163 293 163 326 145 c 0,20,21
 367 124 367 124 389 123 c 2,22,-1
 393 123 l 2,23,24
 406 123 406 123 423 128 c 2,25,-1
 438 133 l 1,26,-1
 453 139 l 2,27,28
 489 154 489 154 506 154 c 0,29,30
 524 154 524 154 561 139 c 2,31,-1
 576 133 l 1,32,-1
 593 128 l 2,33,34
 608 123 608 123 621 123 c 2,35,-1
 626 123 l 2,36,37
 641 123 641 123 659 131 c 0,38,39
 667 133 667 133 675 138 c 2,40,-1
 691 146 l 2,41,42
 726 164 726 164 743 165 c 2,43,-1
 748 165 l 2,44,45
 757 165 757 165 769 163 c 0,46,47
 775 162 775 162 784 159 c 2,48,-1
 798 155 l 2,49,50
 833 144 833 144 855 144 c 0,51,52
 860 144 860 144 864 145 c 2,53,-1
 867 145 l 1,0,-1
909 189 m 1,55,-1
 909 188 l 1,56,57
 878 169 878 169 861 168 c 0,58,59
 857 167 857 167 853 167 c 0,60,61
 836 167 836 167 805 177 c 2,62,-1
 789 181 l 1,63,-1
 773 185 l 2,64,65
 760 188 760 188 749 188 c 0,66,67
 745 188 745 188 740 187 c 0,68,69
 726 186 726 186 710 180 c 2,70,-1
 695 173 l 1,71,-1
 681 166 l 1,72,-1
 666 159 l 2,73,74
 658 155 658 155 652 152 c 0,75,76
 637 146 637 146 625 146 c 2,77,-1
 623 146 l 2,78,79
 604 146 604 146 569 161 c 2,80,-1
 554 167 l 1,81,-1
 538 172 l 2,82,83
 521 177 521 177 506 177 c 0,84,85
 484 177 484 177 444 160 c 0,86,87
 409 145 409 145 392 145 c 2,88,-1
 390 145 l 2,89,90
 373 146 373 146 336 165 c 0,91,92
 300 185 300 185 278 187 c 2,93,-1
 269 187 l 2,94,95
 259 187 259 187 246 185 c 2,96,-1
 230 181 l 1,97,-1
 215 176 l 2,98,99
 182 165 182 165 166 165 c 0,100,101
 163 165 163 165 161 166 c 0,102,103
 143 169 143 169 121 183 c 1,104,-1
 120 184 l 1,105,106
 61 254 61 254 30 339 c 1,107,-1
 33 338 l 1,108,-1
 35 337 l 1,109,-1
 53 328 l 2,110,111
 63 323 63 323 71 319 c 0,112,113
 92 310 92 310 111 309 c 0,114,115
 115 308 115 308 120 308 c 0,116,117
 132 308 132 308 148 311 c 2,118,-1
 166 315 l 1,119,-1
 185 320 l 2,120,121
 222 332 222 332 242 332 c 2,122,-1
 247 332 l 2,123,124
 265 331 265 331 305 314 c 2,125,-1
 323 306 l 2,126,127
 333 302 333 302 341 299 c 0,128,129
 362 292 362 292 380 292 c 2,130,-1
 383 292 l 2,131,132
 399 292 399 292 418 297 c 2,133,-1
 436 302 l 1,134,-1
 454 309 l 2,135,136
 495 324 495 324 515 324 c 256,137,138
 535 324 535 324 576 309 c 0,139,140
 621 292 621 292 646 292 c 2,141,-1
 649 292 l 2,142,143
 667 292 667 292 687 299 c 0,144,145
 700 303 700 303 723 314 c 2,146,-1
 738 320 l 2,147,148
 747 323 747 323 753 326 c 0,149,150
 768 331 768 331 780 332 c 2,151,-1
 783 332 l 2,152,153
 802 332 802 332 842 320 c 256,154,155
 882 308 882 308 907 308 c 0,156,157
 911 308 911 308 915 309 c 0,158,159
 934 310 934 310 954 319 c 0,160,161
 962 322 962 322 972 327 c 2,162,-1
 990 336 l 1,163,-1
 993 338 l 1,164,54
 965 259 965 259 909 189 c 1,55,-1
1008 383 m 1,166,-1
 1008 382 l 1,167,168
 1000 380 1000 380 991 375 c 2,169,-1
 982 371 l 1,170,-1
 974 367 l 2,171,172
 933 344 933 344 912 342 c 2,173,-1
 908 342 l 2,174,175
 889 342 889 342 852 353 c 0,176,177
 828 360 828 360 815 363 c 0,178,179
 800 366 800 366 786 366 c 2,180,-1
 778 366 l 2,181,182
 762 365 762 365 743 358 c 2,183,-1
 726 352 l 1,184,-1
 710 345 l 2,185,186
 668 326 668 326 648 326 c 2,187,-1
 646 326 l 2,188,189
 627 326 627 326 588 340 c 2,190,-1
 570 347 l 2,191,192
 560 350 560 350 552 352 c 0,193,194
 532 358 532 358 515 358 c 256,195,196
 498 358 498 358 478 352 c 2,197,-1
 460 347 l 1,198,-1
 442 340 l 2,199,200
 402 326 402 326 383 326 c 2,201,-1
 381 326 l 2,202,203
 361 326 361 326 318 345 c 0,204,205
 274 364 274 364 249 366 c 2,206,-1
 241 366 l 2,207,208
 227 366 227 366 211 363 c 0,209,210
 203 361 203 361 193 359 c 2,211,-1
 175 353 l 2,212,213
 136 343 136 343 118 343 c 2,214,-1
 114 343 l 2,215,216
 93 345 93 345 51 367 c 2,217,-1
 34 376 l 2,218,219
 24 381 24 381 16 384 c 1,220,221
 2 442 2 442 0 500 c 1,222,-1
 8 500 l 2,223,224
 12 501 12 501 17 501 c 0,225,226
 41 501 41 501 65 487 c 2,227,-1
 71 484 l 1,228,-1
 78 480 l 2,229,230
 87 476 87 476 95 474 c 0,231,232
 115 467 115 467 141 467 c 0,233,234
 166 467 166 467 186 474 c 0,235,236
 194 476 194 476 202 480 c 2,237,-1
 209 484 l 1,238,-1
 216 487 l 2,239,240
 241 501 241 501 264 501 c 0,241,242
 288 501 288 501 313 487 c 2,243,-1
 319 484 l 1,244,-1
 326 480 l 2,245,246
 334 476 334 476 342 474 c 0,247,248
 363 467 363 467 388 467 c 256,249,250
 413 467 413 467 434 474 c 0,251,252
 442 476 442 476 450 480 c 2,253,-1
 457 484 l 1,254,-1
 463 487 l 2,255,256
 488 501 488 501 512 501 c 0,257,258
 535 501 535 501 559 487 c 2,259,-1
 566 484 l 1,260,-1
 573 480 l 2,261,262
 581 476 581 476 589 474 c 0,263,264
 610 467 610 467 635 467 c 256,265,266
 660 467 660 467 681 474 c 0,267,268
 689 476 689 476 697 480 c 2,269,-1
 704 484 l 1,270,-1
 711 487 l 2,271,272
 735 501 735 501 759 501 c 256,273,274
 783 501 783 501 807 487 c 2,275,-1
 814 484 l 1,276,-1
 821 480 l 2,277,278
 829 476 829 476 837 474 c 0,279,280
 857 467 857 467 883 467 c 0,281,282
 908 467 908 467 929 474 c 0,283,284
 937 476 937 476 945 480 c 2,285,-1
 952 484 l 1,286,-1
 959 487 l 2,287,288
 983 501 983 501 1006 501 c 0,289,290
 1016 501 1016 501 1024 499 c 1,291,165
 1022 440 1022 440 1008 383 c 1,166,-1
154 878 m 1,293,294
 224 947 224 947 316 985 c 0,295,296
 410 1024 410 1024 512 1024 c 256,297,298
 614 1024 614 1024 707 986 c 0,299,300
 797 949 797 949 867 881 c 1,301,-1
 856 881 l 2,302,303
 846 881 846 881 835 879 c 256,304,305
 824 877 824 877 803 870 c 0,306,307
 771 859 771 859 754 859 c 0,308,309
 751 859 751 859 748 860 c 0,310,311
 732 861 732 861 699 879 c 0,312,313
 658 900 658 900 635 901 c 2,314,-1
 630 901 l 2,315,316
 617 901 617 901 602 897 c 0,317,318
 595 895 595 895 587 891 c 2,319,-1
 571 885 l 2,320,321
 535 869 535 869 518 869 c 0,322,323
 500 869 500 869 464 885 c 0,324,325
 443 893 443 893 432 896 c 0,326,327
 415 901 415 901 401 901 c 2,328,-1
 398 901 l 2,329,330
 383 901 383 901 365 893 c 2,331,-1
 349 886 l 1,332,-1
 333 879 l 1,333,-1
 320 872 l 1,334,-1
 307 866 l 2,335,336
 293 860 293 860 282 859 c 2,337,-1
 278 859 l 2,338,339
 261 859 261 859 226 869 c 0,340,341
 205 876 205 876 193 878 c 256,342,343
 181 880 181 880 171 880 c 0,344,345
 166 880 166 880 160 879 c 0,346,292
 158 879 158 879 154 878 c 1,293,294
992 686 m 1,347,-1
 989 687 l 1,348,-1
 972 696 l 2,349,350
 962 701 962 701 953 705 c 0,351,352
 932 713 932 713 914 715 c 0,353,354
 909 716 909 716 905 716 c 0,355,356
 892 716 892 716 877 713 c 2,357,-1
 858 708 l 1,358,-1
 840 703 l 2,359,360
 799 692 799 692 780 692 c 2,361,-1
 777 692 l 2,362,363
 765 693 765 693 749 698 c 2,364,-1
 735 704 l 1,365,-1
 720 710 l 2,366,367
 672 732 672 732 644 732 c 2,368,-1
 643 732 l 2,369,370
 615 732 615 732 570 715 c 0,371,372
 528 700 528 700 509 700 c 0,373,374
 496 700 496 700 480 705 c 2,375,-1
 464 710 l 1,376,-1
 448 715 l 2,377,378
 405 732 405 732 377 732 c 2,379,-1
 376 732 l 2,380,381
 358 732 358 732 337 725 c 0,382,383
 329 722 329 722 319 718 c 2,384,-1
 301 711 l 2,385,386
 261 693 261 693 244 692 c 2,387,-1
 240 692 l 2,388,389
 219 692 219 692 182 704 c 2,390,-1
 164 709 l 1,391,-1
 146 713 l 2,392,393
 131 716 131 716 118 716 c 2,394,-1
 109 716 l 2,395,396
 91 714 91 714 70 705 c 0,397,398
 62 702 62 702 52 697 c 2,399,-1
 34 688 l 1,400,-1
 31 686 l 1,401,402
 59 767 59 767 115 835 c 1,403,404
 147 855 147 855 163 857 c 2,405,-1
 170 857 l 2,406,407
 187 857 187 857 219 847 c 2,408,-1
 235 843 l 1,409,-1
 251 839 l 2,410,411
 265 836 265 836 276 836 c 2,412,-1
 284 836 l 2,413,414
 298 838 298 838 315 844 c 2,415,-1
 329 851 l 1,416,-1
 344 858 l 2,417,418
 380 877 380 877 400 878 c 0,419,420
 418 878 418 878 455 864 c 0,421,422
 474 855 474 855 486 852 c 0,423,424
 504 847 504 847 518 847 c 0,425,426
 533 847 533 847 550 852 c 0,427,428
 561 855 561 855 580 864 c 0,429,430
 615 878 615 878 632 878 c 2,431,-1
 634 878 l 2,432,433
 651 877 651 877 688 859 c 2,434,-1
 702 851 l 1,435,-1
 717 845 l 2,436,437
 733 838 733 838 747 837 c 0,438,439
 751 836 751 836 755 836 c 0,440,441
 766 836 766 836 779 839 c 0,442,443
 789 842 789 842 810 848 c 0,444,445
 841 859 841 859 858 859 c 0,446,447
 861 859 861 859 864 858 c 0,448,449
 879 856 879 856 904 841 c 1,450,451
 964 770 964 770 994 685 c 1,452,-1
 992 686 l 1,347,-1
1006 558 m 0,454,455
 981 558 981 558 961 551 c 0,456,457
 953 548 953 548 944 544 c 2,458,-1
 937 540 l 1,459,-1
 931 537 l 2,460,461
 906 524 906 524 883 524 c 256,462,463
 860 524 860 524 835 537 c 0,464,465
 827 541 827 541 821 544 c 0,466,467
 813 548 813 548 805 551 c 0,468,469
 784 558 784 558 759 558 c 256,470,471
 734 558 734 558 713 551 c 0,472,473
 705 548 705 548 697 544 c 0,474,475
 691 541 691 541 683 537 c 0,476,477
 658 524 658 524 635 524 c 256,478,479
 612 524 612 524 587 537 c 2,480,-1
 581 540 l 1,481,-1
 574 544 l 2,482,483
 565 548 565 548 557 551 c 0,484,485
 537 558 537 558 512 558 c 256,486,487
 487 558 487 558 466 551 c 0,488,489
 458 548 458 548 449 544 c 2,490,-1
 442 540 l 1,491,-1
 436 537 l 2,492,493
 411 524 411 524 388 524 c 256,494,495
 365 524 365 524 340 537 c 2,496,-1
 333 540 l 1,497,-1
 326 544 l 2,498,499
 318 548 318 548 310 551 c 0,500,501
 289 558 289 558 264 558 c 256,502,503
 239 558 239 558 218 551 c 0,504,505
 210 548 210 548 202 544 c 2,506,-1
 195 540 l 1,507,-1
 189 537 l 2,508,509
 163 524 163 524 141 524 c 0,510,511
 118 524 118 524 92 537 c 0,512,513
 85 541 85 541 79 544 c 0,514,515
 71 548 71 548 63 551 c 0,516,517
 42 558 42 558 17 558 c 0,518,519
 7 558 7 558 3 557 c 1,520,521
 6 601 6 601 16 641 c 1,522,523
 24 644 24 644 33 649 c 2,524,-1
 50 658 l 1,525,-1
 66 666 l 1,526,-1
 82 673 l 2,527,528
 99 680 99 680 112 682 c 2,529,-1
 116 682 l 2,530,531
 134 682 134 682 173 671 c 2,532,-1
 191 666 l 1,533,-1
 209 661 l 2,534,535
 226 658 226 658 240 658 c 2,536,-1
 247 658 l 2,537,538
 262 659 262 659 281 666 c 2,539,-1
 298 672 l 1,540,-1
 315 679 l 1,541,-1
 331 686 l 2,542,543
 340 690 340 690 346 692 c 0,544,545
 363 698 363 698 377 698 c 2,546,-1
 381 698 l 2,547,548
 392 698 392 698 406 694 c 0,549,550
 412 693 412 693 421 689 c 2,551,-1
 437 683 l 2,552,553
 483 666 483 666 509 666 c 0,554,555
 526 666 526 666 546 672 c 0,556,557
 560 675 560 675 582 683 c 0,558,559
 622 698 622 698 641 698 c 2,560,-1
 643 698 l 2,561,562
 663 698 663 698 706 679 c 256,563,564
 749 660 749 660 775 658 c 2,565,-1
 782 658 l 2,566,567
 796 658 796 658 813 661 c 0,568,569
 821 662 821 662 831 665 c 2,570,-1
 849 670 l 2,571,572
 886 681 886 681 906 681 c 2,573,-1
 910 681 l 2,574,575
 931 679 931 679 973 657 c 2,576,-1
 991 648 l 2,577,578
 1001 643 1001 643 1008 640 c 1,579,580
 1018 600 1018 600 1022 557 c 1,581,453
 1017 558 1017 558 1006 558 c 0,454,455
EndSplineSet
EndChar

StartChar: uniE00B
Encoding: 57355 57355 13
Width: 1024
GlyphClass: 2
Flags: W
LayerCount: 2
Fore
SplineSet
1024 508 m 0,1,2
 1024 461 1024 461 1016 413 c 0,3,4
 1010 378 1010 378 975 368 c 0,5,6
 948 360 948 360 926 356 c 0,7,8
 895 350 895 350 870 350 c 1,9,10
 940 501 940 501 940 662 c 0,11,12
 940 708 940 708 934 754 c 1,13,-1
 934 757 l 2,14,15
 934 764 934 764 942 766 c 0,16,17
 945 767 945 767 947 767 c 0,18,19
 952 767 952 767 956 761 c 0,20,0
 1024 642 1024 642 1024 508 c 0,1,2
91 756 m 0,21,22
 88 753 88 753 84 753 c 256,23,24
 80 753 80 753 77 757 c 0,25,26
 73 761 73 761 73 765 c 0,27,28
 73 768 73 768 75 772 c 0,29,30
 169 932 169 932 348 997 c 0,31,32
 358 1001 358 1001 368 1001 c 0,33,34
 389 1001 389 1001 408 984 c 0,35,36
 426 966 426 966 442 947 c 0,37,38
 462 923 462 923 474 901 c 1,39,40
 260 882 260 882 91 756 c 0,21,22
546 516 m 1,41,42
 590 613 590 613 590 709 c 0,43,44
 590 754 590 754 580 800 c 0,45,46
 557 904 557 904 489 987 c 0,47,48
 484 993 484 993 484 1001 c 0,49,50
 484 1006 484 1006 487 1011 c 0,51,52
 493 1024 493 1024 508 1024 c 0,53,54
 551 1023 551 1023 590 1018 c 0,55,56
 618 1013 618 1013 631 990 c 0,57,58
 696 875 696 875 707 733 c 0,59,60
 709 706 709 706 709 680 c 0,61,62
 709 541 709 541 649 414 c 1,63,64
 620 431 620 431 589 463 c 0,65,66
 563 490 563 490 546 516 c 1,41,42
700 385 m 1,67,68
 768 530 768 530 768 683 c 0,69,70
 768 698 768 698 767 712 c 0,71,72
 765 777 765 777 750 840 c 0,73,74
 739 889 739 889 721 934 c 0,75,76
 718 943 718 943 718 950 c 0,77,78
 718 959 718 959 725 964 c 0,79,80
 729 967 729 967 735 967 c 0,81,82
 743 967 743 967 754 961 c 2,83,-1
 762 956 l 1,84,-1
 770 952 l 2,85,86
 779 946 779 946 786 941 c 0,87,88
 806 929 806 929 821 917 c 0,89,90
 841 902 841 902 848 877 c 0,91,92
 881 775 881 775 881 668 c 2,93,-1
 881 645 l 1,94,95
 876 495 876 495 807 353 c 1,96,97
 790 355 790 355 761 363 c 0,98,99
 726 373 726 373 700 385 c 1,67,68
39 482 m 0,100,101
 28 468 28 468 18 468 c 0,102,103
 15 468 15 468 12 470 c 0,104,105
 0 476 0 476 0 497 c 0,106,107
 0 539 0 539 5 576 c 0,108,109
 9 602 9 602 26 620 c 0,110,111
 107 708 107 708 212 764 c 0,112,113
 345 834 345 834 503 845 c 1,114,115
 509 829 509 829 516 800 c 0,116,117
 525 764 525 764 526 736 c 1,118,119
 353 722 353 722 209 632 c 0,120,121
 154 597 154 597 107 553 c 0,122,123
 70 519 70 519 39 482 c 0,100,101
773 120 m 0,124,125
 796 117 796 117 797 103 c 2,126,-1
 797 101 l 2,127,128
 797 89 797 89 780 79 c 0,129,130
 762 68 762 68 747 60 c 0,131,132
 727 49 727 49 709 42 c 0,133,134
 693 35 693 35 678 35 c 0,135,136
 669 35 669 35 661 37 c 0,137,138
 544 61 544 61 443 123 c 0,139,140
 315 200 315 200 226 330 c 1,141,142
 236 344 236 344 257 365 c 0,143,144
 283 391 283 391 307 407 c 1,145,146
 407 265 407 265 558 189 c 0,147,148
 615 159 615 159 677 141 c 0,149,150
 725 127 725 127 773 120 c 0,124,125
938 297 m 0,152,153
 950 297 950 297 956 286 c 0,154,155
 961 280 961 280 961 273 c 0,156,157
 961 267 961 267 957 261 c 0,158,159
 934 223 934 223 910 193 c 0,160,161
 893 171 893 171 866 171 c 0,162,163
 734 171 734 171 605 231 c 0,164,165
 452 301 452 301 357 437 c 1,166,167
 387 454 387 454 429 465 c 0,168,169
 466 475 466 475 497 477 c 1,170,171
 589 351 589 351 727 309 c 0,172,173
 790 289 790 289 855 289 c 0,174,175
 894 289 894 289 934 296 c 0,176,151
 936 297 936 297 938 297 c 0,152,153
511 23 m 1,177,178
 518 12 518 12 518 10 c 0,179,180
 516 0 516 0 506 0 c 2,181,-1
 503 0 l 2,182,183
 319 0 319 0 174 119 c 0,184,185
 153 135 153 135 153 160 c 0,186,187
 153 168 153 168 155 177 c 0,188,189
 161 202 161 202 169 225 c 0,190,191
 179 255 179 255 191 277 c 1,192,193
 316 103 316 103 511 23 c 1,177,178
489 537 m 1,194,195
 333 522 333 522 225 425 c 0,196,197
 146 353 146 353 107 254 c 0,198,199
 102 240 102 240 87 240 c 2,200,-1
 85 240 l 2,201,202
 72 240 72 240 65 252 c 0,203,204
 46 286 46 286 31 326 c 0,205,206
 27 337 27 337 27 348 c 0,207,208
 27 362 27 362 35 376 c 0,209,210
 103 489 103 489 221 570 c 0,211,212
 361 665 361 665 527 678 c 1,213,214
 525 643 525 643 513 601 c 0,215,216
 503 564 503 564 489 537 c 1,194,195
EndSplineSet
EndChar

StartChar: uniE00C
Encoding: 57356 57356 14
Width: 1024
GlyphClass: 2
Flags: W
LayerCount: 2
Fore
SplineSet
400 289 m 2,1,-1
 417 301 l 1,2,-1
 434 313 l 1,3,-1
 454 328 l 2,4,5
 466 336 466 336 475 342 c 0,6,7
 497 355 497 355 513 355 c 256,8,9
 529 355 529 355 551 342 c 0,10,11
 565 333 565 333 592 313 c 2,12,-1
 609 301 l 1,13,-1
 626 290 l 2,14,15
 644 278 644 278 660 272 c 1,16,17
 626 191 626 191 575 154 c 1,18,19
 544 153 544 153 512 153 c 0,20,21
 481 153 481 153 450 154 c 1,22,23
 399 191 399 191 365 271 c 1,24,0
 381 277 381 277 400 289 c 2,1,-1
696 323 m 0,26,27
 694 322 694 322 691 322 c 0,28,29
 681 322 681 322 665 332 c 0,30,31
 657 337 657 337 646 344 c 0,32,33
 640 349 640 349 627 359 c 2,34,-1
 614 368 l 1,35,-1
 601 378 l 2,36,37
 586 388 586 388 573 395 c 0,38,39
 541 412 541 412 513 412 c 0,40,41
 484 412 484 412 453 394 c 0,42,43
 440 388 440 388 425 377 c 0,44,45
 416 371 416 371 400 359 c 2,46,-1
 390 351 l 1,47,-1
 380 344 l 2,48,49
 370 337 370 337 361 332 c 0,50,51
 345 322 345 322 335 322 c 0,52,53
 332 322 332 322 330 323 c 0,54,55
 235 351 235 351 178 403 c 1,56,57
 168 454 168 454 168 511 c 0,58,59
 168 567 168 567 177 620 c 1,60,61
 236 673 236 673 337 701 c 0,62,63
 338 702 338 702 340 702 c 0,64,65
 350 702 350 702 366 692 c 0,66,67
 379 684 379 684 402 665 c 0,68,69
 418 652 418 652 427 645 c 0,70,71
 441 635 441 635 454 628 c 0,72,73
 485 611 485 611 513 611 c 256,74,75
 541 611 541 611 573 628 c 0,76,77
 586 634 586 634 601 644 c 0,78,79
 610 651 610 651 627 663 c 2,80,-1
 637 670 l 1,81,-1
 647 678 l 2,82,83
 658 685 658 685 666 690 c 0,84,85
 682 699 682 699 692 699 c 0,86,87
 695 699 695 699 698 698 c 0,88,89
 791 670 791 670 847 620 c 1,90,91
 857 563 857 563 857 511 c 0,92,93
 857 455 857 455 847 402 c 1,94,25
 792 352 792 352 696 323 c 0,26,27
964 318 m 0,96,97
 974 309 974 309 974 298 c 0,98,99
 974 291 974 291 971 284 c 0,100,101
 904 150 904 150 777 74 c 0,102,103
 763 66 763 66 749 66 c 0,104,105
 745 66 745 66 740 67 c 0,106,107
 682 78 682 78 633 129 c 1,108,109
 686 179 686 179 720 271 c 1,110,111
 829 305 829 305 892 367 c 1,112,95
 932 346 932 346 964 318 c 0,96,97
55 386 m 0,114,115
 48 381 48 381 41 381 c 0,116,117
 35 381 35 381 29 383 c 0,118,119
 15 389 15 389 12 404 c 0,120,121
 0 458 0 458 0 512 c 0,122,123
 0 567 0 567 12 620 c 0,124,125
 15 635 15 635 29 641 c 0,126,127
 35 644 35 644 40 644 c 0,128,129
 48 644 48 644 55 638 c 0,130,131
 84 619 84 619 117 601 c 1,132,133
 111 558 111 558 111 511 c 0,134,135
 111 466 111 466 117 423 c 1,136,113
 84 407 84 407 55 386 c 0,114,115
285 67 m 0,138,139
 280 66 280 66 275 66 c 0,140,141
 261 66 261 66 247 74 c 0,142,143
 121 151 121 151 54 284 c 0,144,145
 51 290 51 290 51 296 c 2,146,-1
 51 302 l 2,147,148
 53 312 53 312 61 318 c 0,149,150
 91 345 91 345 133 367 c 1,151,152
 195 305 195 305 304 272 c 1,153,154
 337 181 337 181 392 129 c 1,155,137
 340 77 340 77 285 67 c 0,138,139
303 751 m 1,157,158
 198 718 198 718 133 657 c 1,159,160
 91 680 91 680 61 706 c 0,161,162
 50 715 50 715 50 726 c 0,163,164
 50 733 50 733 54 740 c 0,165,166
 120 873 120 873 247 950 c 0,167,168
 261 958 261 958 275 958 c 0,169,170
 279 958 279 958 284 957 c 0,171,172
 342 947 342 947 393 893 c 1,173,156
 338 842 338 842 303 751 c 1,157,158
593 709 m 2,175,-1
 572 694 l 2,176,177
 560 686 560 686 551 681 c 0,178,179
 529 667 529 667 513 667 c 0,180,181
 498 667 498 667 477 681 c 0,182,183
 463 689 463 689 438 710 c 2,184,-1
 420 723 l 2,185,186
 411 731 411 731 403 736 c 0,187,188
 383 749 383 749 367 754 c 1,189,190
 401 834 401 834 452 869 c 1,191,192
 483 871 483 871 515 871 c 0,193,194
 543 871 543 871 572 869 c 1,195,196
 625 834 625 834 660 750 c 1,197,174
 635 740 635 740 593 709 c 2,175,-1
584 925 m 1,199,200
 548 928 548 928 512 928 c 0,201,202
 477 928 477 928 441 925 c 1,203,204
 413 955 413 955 388 973 c 0,205,206
 378 981 378 981 378 991 c 2,207,-1
 378 993 l 2,208,209
 379 1007 379 1007 397 1011 c 0,210,211
 453 1024 453 1024 512 1024 c 0,212,213
 573 1024 573 1024 629 1010 c 0,214,215
 647 1007 647 1007 647 993 c 0,216,217
 647 980 647 980 635 971 c 0,218,198
 606 950 606 950 584 925 c 1,199,200
441 99 m 1,220,221
 477 96 477 96 512 96 c 0,222,223
 548 96 548 96 583 99 c 1,224,225
 611 69 611 69 636 51 c 0,226,227
 647 44 647 44 647 33 c 2,228,-1
 647 31 l 2,229,230
 646 18 646 18 628 13 c 0,231,232
 571 0 571 0 512 0 c 0,233,234
 451 0 451 0 395 14 c 0,235,236
 377 18 377 18 377 32 c 0,237,238
 377 44 377 44 389 53 c 0,239,219
 418 75 418 75 441 99 c 1,220,221
891 657 m 1,241,242
 828 717 828 717 720 751 c 1,243,244
 688 841 688 841 632 893 c 1,245,246
 683 946 683 946 740 958 c 1,247,-1
 749 958 l 2,248,249
 764 958 764 958 778 950 c 0,250,251
 905 872 905 872 971 740 c 0,252,253
 974 732 974 732 974 726 c 0,254,255
 974 715 974 715 964 706 c 0,256,240
 934 680 934 680 891 657 c 1,241,242
1013 405 m 0,258,259
 1009 390 1009 390 995 384 c 0,260,261
 989 381 989 381 984 381 c 0,262,263
 976 381 976 381 969 386 c 0,264,265
 941 406 941 406 908 424 c 1,266,267
 914 470 914 470 914 511 c 0,268,269
 914 559 914 559 908 601 c 1,270,271
 939 617 939 617 969 638 c 0,272,273
 976 643 976 643 984 643 c 0,274,275
 990 643 990 643 995 641 c 0,276,277
 1009 635 1009 635 1013 620 c 0,278,279
 1024 566 1024 566 1024 512 c 256,280,257
 1024 458 1024 458 1013 405 c 0,258,259
EndSplineSet
EndChar

StartChar: uniE00D
Encoding: 57357 57357 15
Width: 1024
GlyphClass: 2
Flags: W
LayerCount: 2
Fore
SplineSet
1024 512 m 256,1,2
 1024 498 1024 498 1012 490 c 0,3,4
 946 447 946 447 821 412 c 0,5,6
 668 367 668 367 513 367 c 0,7,8
 356 367 356 367 201 412 c 0,9,10
 75 448 75 448 11 492 c 0,11,12
 0 499 0 499 0 512 c 0,13,14
 0 526 0 526 11 533 c 0,15,16
 75 576 75 576 201 612 c 0,17,18
 356 656 356 656 513 656 c 2,19,-1
 516 656 l 2,20,21
 669 656 669 656 821 613 c 0,22,23
 946 578 946 578 1012 534 c 0,24,0
 1024 526 1024 526 1024 512 c 256,1,2
783 347 m 0,26,27
 911 376 911 376 998 422 c 1,28,29
 927 329 927 329 803 261 c 0,30,31
 658 180 658 180 513 180 c 0,32,33
 367 180 367 180 222 260 c 0,34,35
 97 329 97 329 27 421 c 1,36,37
 115 376 115 376 243 347 c 0,38,39
 382 315 382 315 513 315 c 0,40,25
 645 315 645 315 783 347 c 0,26,27
242 677 m 0,42,43
 114 648 114 648 27 602 c 1,44,45
 97 694 97 694 221 763 c 0,46,47
 367 844 367 844 513 844 c 0,48,49
 658 844 658 844 804 763 c 0,50,51
 929 694 929 694 998 602 c 1,52,53
 911 648 911 648 783 677 c 0,54,55
 645 709 645 709 513 709 c 256,56,41
 381 709 381 709 242 677 c 0,42,43
EndSplineSet
EndChar

StartChar: uniE00E
Encoding: 57358 57358 16
Width: 1024
GlyphClass: 2
Flags: W
LayerCount: 2
Fore
SplineSet
26 13 m 2,0,1
 15 13 15 13 7 21 c 0,2,3
 0 28 0 28 0 39 c 256,4,5
 0 50 0 50 8 58 c 0,6,7
 15 65 15 65 26 65 c 2,8,-1
 813 65 l 2,9,10
 830 65 830 65 841 77 c 0,11,12
 853 88 853 88 853 105 c 0,13,14
 853 116 853 116 861 124 c 0,15,16
 868 131 868 131 879 131 c 256,17,18
 890 131 890 131 898 123 c 0,19,20
 905 116 905 116 905 105 c 0,21,22
 905 67 905 67 878 40 c 256,23,24
 851 13 851 13 813 13 c 2,25,-1
 26 13 l 2,0,1
665 769 m 1,26,-1
 555 769 l 1,27,-1
 555 739 l 1,28,-1
 595 699 l 1,29,-1
 665 769 l 1,26,-1
1024 839 m 1,30,-1
 1024 814 l 1,31,-1
 841 814 l 1,32,-1
 841 793 l 2,33,34
 841 783 841 783 834 776 c 256,35,36
 827 769 827 769 817 769 c 2,37,-1
 772 769 l 1,38,-1
 619 616 l 2,39,40
 608 605 608 605 592 605 c 256,41,42
 576 605 576 605 565 616 c 2,43,-1
 556 626 l 1,44,-1
 556 465 l 1,45,-1
 627 128 l 2,46,47
 628 123 628 123 628 118 c 0,48,49
 628 104 628 104 621 93 c 0,50,51
 611 77 611 77 592 73 c 0,52,53
 586 72 586 72 581 72 c 0,54,55
 568 72 568 72 557 79 c 0,56,57
 542 89 542 89 537 108 c 2,58,-1
 464 456 l 1,59,-1
 442 456 l 1,60,-1
 368 108 l 2,61,62
 363 89 363 89 348 79 c 0,63,64
 337 72 337 72 324 72 c 0,65,66
 319 72 319 72 313 73 c 0,67,68
 295 77 295 77 284 93 c 0,69,70
 277 105 277 105 277 118 c 0,71,72
 277 123 277 123 278 128 c 2,73,-1
 351 470 l 1,74,-1
 351 741 l 2,75,76
 351 781 351 781 379 810 c 0,77,78
 407 838 407 838 447 839 c 1,79,80
 413 841 413 841 390 865 c 0,81,82
 366 890 366 890 366 925 c 256,83,84
 366 960 366 960 391 986 c 0,85,86
 417 1011 417 1011 453 1011 c 0,87,88
 488 1011 488 1011 513 986 c 0,89,90
 539 960 539 960 539 925 c 256,91,92
 539 890 539 890 515 866 c 0,93,94
 492 841 492 841 458 839 c 1,95,-1
 984 839 l 1,96,-1
 984 877 l 1,97,-1
 994 877 l 1,98,-1
 1008 839 l 1,99,-1
 1024 839 l 1,30,-1
EndSplineSet
EndChar

StartChar: uniE00F
Encoding: 57359 57359 17
Width: 1024
GlyphClass: 2
Flags: W
LayerCount: 2
Fore
SplineSet
554 174 m 0,0,1
 574 192 574 192 574 223 c 0,2,3
 574 251 574 251 555 270 c 0,4,5
 535 289 535 289 508 289 c 0,6,7
 480 289 480 289 460 270 c 0,8,9
 441 251 441 251 441 223 c 0,10,11
 441 192 441 192 460 174 c 0,12,13
 481 157 481 157 508 157 c 0,14,15
 534 157 534 157 554 174 c 0,0,1
729 353 m 2,16,17
 851 353 851 353 938 267 c 0,18,19
 1024 180 1024 180 1024 57 c 0,20,21
 1024 34 1024 34 1008 17 c 0,22,23
 991 0 991 0 967 0 c 2,24,-1
 57 0 l 2,25,26
 34 0 34 0 17 17 c 256,27,28
 0 34 0 34 0 57 c 0,29,30
 0 180 0 180 88 266 c 0,31,32
 174 353 174 353 297 353 c 2,33,-1
 729 353 l 2,16,17
719 678 m 0,34,35
 735 708 735 708 735 744 c 0,36,37
 735 790 735 790 708 832 c 0,38,39
 680 873 680 873 632 897 c 0,40,41
 582 920 582 920 518 920 c 0,42,43
 448 920 448 920 397 892 c 0,44,45
 345 863 345 863 319 821 c 0,46,47
 291 777 291 777 291 735 c 0,48,49
 291 715 291 715 309 697 c 0,50,51
 326 680 326 680 351 680 c 0,52,53
 393 680 393 680 408 729 c 0,54,55
 424 778 424 778 447 802 c 0,56,57
 470 827 470 827 518 827 c 0,58,59
 560 827 560 827 586 802 c 0,60,61
 613 778 613 778 613 743 c 0,62,63
 613 724 613 724 604 709 c 0,64,65
 595 692 595 692 583 681 c 0,66,67
 575 673 575 673 566 665 c 0,68,69
 554 655 554 655 542 644 c 0,70,71
 506 612 506 612 491 595 c 0,72,73
 473 576 473 576 460 547 c 0,74,75
 448 519 448 519 448 482 c 0,76,77
 448 452 448 452 464 438 c 0,78,79
 480 422 480 422 503 422 c 0,80,81
 547 422 547 422 555 468 c 0,82,83
 561 492 561 492 563 499 c 0,84,85
 565 508 565 508 570 516 c 0,86,87
 574 525 574 525 583 535 c 0,88,89
 591 545 591 545 607 559 c 0,90,91
 664 610 664 610 683 629 c 0,92,93
 704 649 704 649 719 678 c 0,34,35
512 1024 m 0,94,95
 649 1024 649 1024 746 926 c 256,96,97
 843 828 843 828 843 689 c 256,98,99
 843 550 843 550 746 452 c 0,100,101
 650 354 650 354 513 354 c 256,102,103
 376 354 376 354 280 452 c 0,104,105
 183 550 183 550 183 689 c 256,106,107
 183 828 183 828 279 926 c 0,108,109
 376 1024 376 1024 512 1024 c 0,94,95
EndSplineSet
EndChar

StartChar: uniE010
Encoding: 57360 57360 18
Width: 1024
GlyphClass: 2
Flags: W
LayerCount: 2
Fore
SplineSet
645 744 m 1,0,-1
 777 515 l 1,1,-1
 645 285 l 1,2,-1
 380 285 l 1,3,-1
 247 515 l 1,4,-1
 380 744 l 1,5,-1
 645 744 l 1,0,-1
297 947 m 2,6,7
 293 954 293 954 293 961 c 0,8,9
 293 965 293 965 295 970 c 0,10,11
 298 982 298 982 310 987 c 0,12,13
 407 1029 407 1029 512 1029 c 0,14,15
 619 1029 619 1029 718 986 c 0,16,17
 730 981 730 981 734 969 c 0,18,19
 735 964 735 964 735 960 c 0,20,21
 735 953 735 953 731 946 c 2,22,-1
 647 801 l 1,23,-1
 382 801 l 1,24,-1
 297 947 l 2,6,7
29 543 m 2,25,26
 17 543 17 543 8 553 c 0,27,28
 0 561 0 561 0 572 c 2,29,-1
 0 574 l 1,30,31
 13 682 13 682 68 775 c 0,32,33
 121 865 121 865 206 928 c 0,34,35
 213 933 213 933 221 933 c 0,36,37
 225 933 225 933 229 932 c 0,38,39
 241 930 241 930 248 918 c 2,40,-1
 330 774 l 1,41,-1
 330 773 l 1,42,-1
 197 543 l 1,43,-1
 29 543 l 2,25,26
695 771 m 1,44,-1
 779 916 l 2,45,46
 785 928 785 928 798 930 c 0,47,48
 802 931 802 931 805 931 c 0,49,50
 814 931 814 931 821 925 c 0,51,52
 904 863 904 863 957 773 c 0,53,54
 1011 681 1011 681 1023 574 c 1,55,-1
 1023 571 l 2,56,57
 1023 561 1023 561 1016 553 c 0,58,59
 1008 543 1008 543 995 543 c 2,60,-1
 827 543 l 1,61,-1
 695 771 l 1,44,-1
331 255 m 1,62,-1
 248 111 l 2,63,64
 242 99 242 99 229 97 c 0,65,66
 225 96 225 96 221 96 c 0,67,68
 213 96 213 96 206 101 c 0,69,70
 122 163 122 163 68 254 c 0,71,72
 14 347 14 347 1 454 c 1,73,-1
 1 458 l 2,74,75
 1 468 1 468 8 476 c 0,76,77
 17 486 17 486 29 486 c 2,78,-1
 197 486 l 1,79,-1
 331 255 l 1,62,-1
995 486 m 2,80,81
 1007 486 1007 486 1016 476 c 0,82,83
 1024 468 1024 468 1024 459 c 2,84,-1
 1024 455 l 1,85,86
 1011 348 1011 348 957 256 c 0,87,88
 904 165 904 165 821 104 c 0,89,90
 814 98 814 98 806 98 c 0,91,92
 802 98 802 98 799 99 c 0,93,94
 786 101 786 101 779 113 c 2,95,-1
 695 258 l 1,96,-1
 827 486 l 1,97,-1
 995 486 l 2,80,81
730 83 m 2,98,99
 734 76 734 76 734 69 c 0,100,101
 734 64 734 64 733 60 c 0,102,103
 729 48 729 48 717 43 c 0,104,105
 621 0 621 0 512 0 c 0,106,107
 407 0 407 0 310 41 c 0,108,109
 298 46 298 46 294 59 c 0,110,111
 293 63 293 63 293 67 c 0,112,113
 293 75 293 75 297 82 c 2,114,-1
 382 228 l 1,115,-1
 646 228 l 1,116,-1
 730 83 l 2,98,99
EndSplineSet
EndChar

StartChar: uniE011
Encoding: 57361 57361 19
Width: 1027
GlyphClass: 2
Flags: W
LayerCount: 2
Fore
SplineSet
1024 634 m 1,0,-1
 782 390 l 1,1,-1
 664 390 l 1,2,-1
 907 634 l 1,3,-1
 1024 634 l 1,0,-1
708 513 m 1,4,-1
 646 450 l 1,5,-1
 405 450 l 2,6,7
 366 450 366 450 350 446 c 0,8,9
 330 440 330 440 310 420 c 2,10,-1
 281 390 l 1,11,-1
 185 390 l 1,12,-1
 262 468 l 2,13,14
 292 498 292 498 315 505 c 0,15,16
 340 513 340 513 414 513 c 2,17,-1
 708 513 l 1,4,-1
828 634 m 1,18,-1
 759 565 l 1,19,-1
 401 565 l 2,20,21
 329 565 329 565 299 555 c 0,22,23
 269 546 269 546 234 513 c 0,24,25
 212 492 212 492 174 455 c 0,26,27
 134 417 134 417 108 390 c 1,28,-1
 0 390 l 1,29,30
 14 404 14 404 36 427 c 0,31,32
 45 436 45 436 58 448 c 2,33,-1
 80 470 l 2,34,35
 109 500 109 500 124 514 c 0,36,37
 149 539 149 539 164 555 c 0,38,39
 216 604 216 604 254 618 c 0,40,41
 297 634 297 634 391 634 c 2,42,-1
 828 634 l 1,18,-1
EndSplineSet
EndChar

StartChar: uniE012
Encoding: 57362 57362 20
Width: 1024
GlyphClass: 2
Flags: W
LayerCount: 2
Fore
SplineSet
512 981 m 256,0,1
 564 981 564 981 608 956 c 0,2,3
 652 930 652 930 679 885 c 2,4,-1
 998 331 l 2,5,6
 1024 286 1024 286 1024 235 c 0,7,8
 1024 185 1024 185 998 139 c 0,9,10
 972 94 972 94 928 69 c 0,11,12
 884 43 884 43 832 43 c 2,13,-1
 192 43 l 2,14,15
 140 43 140 43 96 69 c 0,16,17
 52 94 52 94 26 139 c 256,18,19
 0 184 0 184 0 235 c 256,20,21
 0 286 0 286 26 331 c 2,22,-1
 346 885 l 2,23,24
 372 930 372 930 416 956 c 0,25,26
 460 981 460 981 512 981 c 256,0,1
512 899 m 256,27,28
 449 899 449 899 418 844 c 2,29,-1
 98 290 l 2,30,31
 82 263 82 263 82 235 c 0,32,33
 82 208 82 208 98 181 c 0,34,35
 129 126 129 126 192 126 c 2,36,-1
 832 126 l 2,37,38
 895 126 895 126 926 181 c 0,39,40
 942 208 942 208 942 235 c 0,41,42
 942 263 942 263 926 290 c 2,43,-1
 606 844 l 2,44,45
 575 899 575 899 512 899 c 256,27,28
331 344 m 0,47,48
 360 316 360 316 360 276 c 256,49,50
 360 236 360 236 331 208 c 0,51,52
 303 180 303 180 263 180 c 0,53,54
 224 180 224 180 195 208 c 0,55,56
 167 236 167 236 167 276 c 256,57,58
 167 316 167 316 195 344 c 0,59,60
 224 372 224 372 263 372 c 0,61,46
 303 372 303 372 331 344 c 0,47,48
580 344 m 256,63,64
 608 316 608 316 608 276 c 256,65,66
 608 236 608 236 580 208 c 256,67,68
 552 180 552 180 512 180 c 256,69,70
 472 180 472 180 444 208 c 256,71,72
 416 236 416 236 416 276 c 256,73,74
 416 316 416 316 444 344 c 256,75,76
 472 372 472 372 512 372 c 256,77,62
 552 372 552 372 580 344 c 256,63,64
580 776 m 0,79,80
 608 747 608 747 608 708 c 0,81,82
 608 668 608 668 580 640 c 0,83,84
 552 611 552 611 512 611 c 256,85,86
 472 611 472 611 444 640 c 0,87,88
 416 668 416 668 416 708 c 0,89,90
 416 747 416 747 444 776 c 0,91,92
 472 804 472 804 512 804 c 256,93,78
 552 804 552 804 580 776 c 0,79,80
705 560 m 0,95,96
 733 532 733 532 733 492 c 256,97,98
 733 452 733 452 705 424 c 0,99,100
 676 396 676 396 637 396 c 0,101,102
 597 396 597 396 569 424 c 256,103,104
 541 452 541 452 541 492 c 256,105,106
 541 532 541 532 569 560 c 256,107,108
 597 588 597 588 637 588 c 0,109,94
 676 588 676 588 705 560 c 0,95,96
455 560 m 0,111,112
 484 532 484 532 484 492 c 256,113,114
 484 452 484 452 455 424 c 0,115,116
 427 396 427 396 387 396 c 0,117,118
 348 396 348 396 319 424 c 0,119,120
 291 452 291 452 291 492 c 256,121,122
 291 532 291 532 319 560 c 0,123,124
 348 588 348 588 387 588 c 0,125,110
 427 588 427 588 455 560 c 0,111,112
829 344 m 0,127,128
 857 316 857 316 857 276 c 256,129,130
 857 236 857 236 829 208 c 0,131,132
 800 180 800 180 761 180 c 0,133,134
 721 180 721 180 693 208 c 0,135,136
 664 236 664 236 664 276 c 256,137,138
 664 316 664 316 693 344 c 0,139,140
 721 372 721 372 761 372 c 0,141,126
 800 372 800 372 829 344 c 0,127,128
EndSplineSet
EndChar

StartChar: uniE013
Encoding: 57363 57363 21
Width: 1024
GlyphClass: 2
Flags: W
LayerCount: 2
Fore
SplineSet
512 665 m 0,0,1
 449 665 449 665 404 620 c 256,2,3
 359 575 359 575 359 512 c 256,4,5
 359 449 359 449 404 404 c 256,6,7
 449 359 449 359 512 359 c 0,8,9
 576 359 576 359 621 404 c 256,10,11
 666 449 666 449 666 512 c 0,12,13
 666 526 666 526 663 542 c 1,14,-1
 727 607 l 1,15,16
 747 562 747 562 747 512 c 0,17,18
 747 415 747 415 678 346 c 256,19,20
 609 277 609 277 512 277 c 256,21,22
 415 277 415 277 346 346 c 256,23,24
 277 415 277 415 277 512 c 256,25,26
 277 609 277 609 346 678 c 256,27,28
 415 747 415 747 512 747 c 0,29,30
 562 747 562 747 607 727 c 1,31,-1
 542 662 l 1,32,33
 526 665 526 665 512 665 c 0,0,1
649 770 m 1,34,35
 585 804 585 804 512 804 c 0,36,37
 391 804 391 804 306 718 c 0,38,39
 220 633 220 633 220 512 c 256,40,41
 220 391 220 391 306 306 c 0,42,43
 392 220 392 220 512 220 c 0,44,45
 633 220 633 220 718 306 c 0,46,47
 804 391 804 391 804 512 c 0,48,49
 804 584 804 584 770 649 c 1,50,-1
 791 670 l 1,51,-1
 830 669 l 1,52,-1
 851 668 l 1,53,54
 886 594 886 594 886 512 c 0,55,56
 886 357 886 357 776 248 c 0,57,58
 667 138 667 138 512 138 c 0,59,60
 358 138 358 138 248 248 c 0,61,62
 138 357 138 357 138 512 c 256,63,64
 138 667 138 667 248 776 c 256,65,66
 358 885 358 885 512 885 c 0,67,68
 595 885 595 885 668 851 c 1,69,-1
 669 829 l 1,70,-1
 670 791 l 1,71,-1
 649 770 l 1,34,35
955 768 m 1,72,73
 1024 651 1024 651 1024 512 c 0,74,75
 1024 408 1024 408 984 313 c 0,76,77
 945 221 945 221 874 150 c 256,78,79
 803 79 803 79 711 40 c 0,80,81
 616 0 616 0 512 0 c 256,82,83
 408 0 408 0 313 40 c 0,84,85
 221 79 221 79 150 150 c 256,86,87
 79 221 79 221 41 313 c 0,88,89
 0 408 0 408 0 512 c 256,90,91
 0 616 0 616 41 711 c 0,92,93
 79 803 79 803 150 874 c 256,94,95
 221 945 221 945 313 984 c 0,96,97
 408 1024 408 1024 512 1024 c 0,98,99
 650 1024 650 1024 769 955 c 1,100,-1
 709 894 l 1,101,102
 617 942 617 942 512 942 c 0,103,104
 425 942 425 942 345 908 c 0,105,106
 268 876 268 876 208 816 c 0,107,108
 82 690 82 690 82 512 c 0,109,110
 82 425 82 425 116 345 c 0,111,112
 148 267 148 267 208 208 c 0,113,114
 334 82 334 82 512 82 c 0,115,116
 600 82 600 82 680 115 c 0,117,118
 757 148 757 148 816 208 c 0,119,120
 943 334 943 334 943 512 c 0,121,122
 943 617 943 617 895 708 c 1,123,-1
 955 768 l 1,72,73
726 831 m 1,124,-1
 919 1024 l 1,125,-1
 922 922 l 1,126,-1
 1024 918 l 1,127,-1
 923 817 l 1,128,-1
 864 758 l 1,129,-1
 831 725 l 1,130,-1
 818 726 l 1,131,-1
 768 728 l 1,132,-1
 737 697 l 1,133,-1
 698 657 l 1,134,-1
 639 598 l 1,135,-1
 597 557 l 1,136,137
 605 543 605 543 608 527 c 0,138,139
 609 518 609 518 609 512 c 0,140,141
 609 498 609 498 604 483 c 0,142,143
 595 453 595 453 570 435 c 0,144,145
 544 415 544 415 512 415 c 0,146,147
 472 415 472 415 444 444 c 0,148,149
 416 472 416 472 416 512 c 0,150,151
 416 544 416 544 435 569 c 256,152,153
 454 594 454 594 483 604 c 0,154,155
 498 608 498 608 512 608 c 2,156,-1
 520 608 l 1,157,-1
 527 607 l 2,158,159
 543 605 543 605 557 597 c 1,160,-1
 599 638 l 1,161,-1
 657 697 l 1,162,-1
 698 737 l 1,163,-1
 728 768 l 1,164,-1
 727 818 l 1,165,-1
 726 831 l 1,124,-1
EndSplineSet
EndChar

StartChar: uniE014
Encoding: 57364 57364 22
Width: 1024
GlyphClass: 2
Flags: W
LayerCount: 2
Fore
SplineSet
941 436 m 0,0,1
 942 442 942 442 942 447 c 0,2,3
 942 457 942 457 938 465 c 0,4,5
 933 478 933 478 923 480 c 2,6,-1
 919 480 l 2,7,8
 910 480 910 480 903 472 c 0,9,10
 894 462 894 462 891 445 c 0,11,12
 890 439 890 439 890 433 c 0,13,14
 890 424 890 424 893 416 c 0,15,16
 898 403 898 403 909 402 c 2,17,-1
 912 402 l 2,18,19
 921 402 921 402 929 410 c 0,20,21
 938 420 938 420 941 436 c 0,0,1
889 294 m 0,22,23
 897 309 897 309 897 322 c 0,24,25
 896 336 896 336 887 341 c 0,26,27
 883 343 883 343 878 343 c 256,28,29
 873 343 873 343 866 340 c 0,30,31
 853 334 853 334 845 320 c 0,32,33
 837 305 837 305 837 291 c 0,34,35
 838 278 838 278 847 272 c 0,36,37
 851 270 851 270 855 270 c 0,38,39
 861 270 861 270 868 274 c 0,40,41
 881 280 881 280 889 294 c 0,22,23
792 466 m 0,42,43
 811 466 811 466 825 480 c 0,44,45
 838 493 838 493 838 512 c 256,46,47
 838 531 838 531 825 544 c 0,48,49
 811 558 811 558 792 558 c 0,50,51
 774 558 774 558 760 544 c 0,52,53
 747 531 747 531 747 512 c 256,54,55
 747 493 747 493 760 480 c 0,56,57
 774 466 774 466 792 466 c 0,42,43
792 179 m 0,58,59
 804 189 804 189 809 202 c 0,60,61
 810 207 810 207 810 211 c 0,62,63
 810 219 810 219 806 224 c 0,64,65
 800 230 800 230 791 230 c 2,66,-1
 786 230 l 2,67,68
 772 228 772 228 759 217 c 0,69,70
 747 207 747 207 743 194 c 0,71,72
 741 188 741 188 741 183 c 0,73,74
 741 177 741 177 745 172 c 0,75,76
 751 166 751 166 760 166 c 2,77,-1
 765 166 l 2,78,79
 779 168 779 168 792 179 c 0,58,59
678 281 m 256,80,81
 691 268 691 268 710 268 c 256,82,83
 729 268 729 268 742 281 c 0,84,85
 756 294 756 294 756 313 c 256,86,87
 756 332 756 332 742 345 c 0,88,89
 729 359 729 359 710 359 c 256,90,91
 691 359 691 359 678 345 c 0,92,93
 665 332 665 332 665 313 c 256,94,95
 665 294 665 294 678 281 c 256,80,81
685 119 m 0,97,98
 690 126 690 126 690 134 c 0,99,100
 690 137 690 137 689 141 c 0,101,102
 686 150 686 150 672 153 c 0,103,104
 668 154 668 154 663 154 c 0,105,106
 654 154 654 154 643 150 c 0,107,108
 628 145 628 145 620 134 c 0,109,110
 614 126 614 126 614 119 c 0,111,112
 614 116 614 116 615 113 c 0,113,114
 618 103 618 103 632 100 c 0,115,116
 636 99 636 99 641 99 c 0,117,118
 650 99 650 99 661 103 c 0,119,96
 677 109 677 109 685 119 c 0,97,98
512 747 m 256,120,121
 531 747 531 747 544 760 c 0,122,123
 558 774 558 774 558 792 c 0,124,125
 558 811 558 811 544 825 c 0,126,127
 531 838 531 838 512 838 c 256,128,129
 493 838 493 838 480 825 c 0,130,131
 466 811 466 811 466 792 c 0,132,133
 466 774 466 774 480 760 c 0,134,135
 493 747 493 747 512 747 c 256,120,121
512 185 m 256,136,137
 531 185 531 185 544 199 c 0,138,139
 558 212 558 212 558 231 c 256,140,141
 558 250 558 250 544 263 c 0,142,143
 531 276 531 276 512 276 c 256,144,145
 493 276 493 276 480 263 c 0,146,147
 466 250 466 250 466 231 c 256,148,149
 466 212 466 212 480 199 c 0,150,151
 493 185 493 185 512 185 c 256,136,137
512 77 m 0,152,153
 528 77 528 77 540 84 c 0,154,155
 552 92 552 92 552 102 c 256,156,157
 552 112 552 112 540 120 c 0,158,159
 528 127 528 127 512 127 c 0,160,161
 495 127 495 127 484 120 c 0,162,163
 472 113 472 113 472 102 c 0,164,165
 472 92 472 92 484 84 c 0,166,167
 495 77 495 77 512 77 c 0,152,153
404 890 m 0,169,170
 410 898 410 898 410 905 c 0,171,172
 410 908 410 908 409 911 c 0,173,174
 406 921 406 921 392 924 c 0,175,176
 387 925 387 925 382 925 c 0,177,178
 373 925 373 925 363 921 c 0,179,180
 348 915 348 915 339 905 c 0,181,182
 333 897 333 897 333 889 c 0,183,184
 333 886 333 886 334 883 c 0,185,186
 338 874 338 874 351 871 c 0,187,188
 356 870 356 870 361 870 c 0,189,190
 370 870 370 870 380 874 c 0,191,168
 396 879 396 879 404 890 c 0,169,170
409 113 m 0,192,193
 410 116 410 116 410 119 c 0,194,195
 410 126 410 126 404 134 c 0,196,197
 396 145 396 145 380 150 c 0,198,199
 370 154 370 154 361 154 c 0,200,201
 356 154 356 154 351 153 c 0,202,203
 338 150 338 150 334 141 c 0,204,205
 333 138 333 138 333 135 c 0,206,207
 333 127 333 127 339 119 c 0,208,209
 348 109 348 109 363 103 c 0,210,211
 373 99 373 99 382 99 c 0,212,213
 387 99 387 99 392 100 c 0,214,215
 406 103 406 103 409 113 c 0,192,193
281 281 m 0,216,217
 295 268 295 268 313 268 c 0,218,219
 332 268 332 268 345 281 c 0,220,221
 359 294 359 294 359 313 c 256,222,223
 359 332 359 332 345 345 c 0,224,225
 332 359 332 359 313 359 c 0,226,227
 295 359 295 359 281 345 c 0,228,229
 268 332 268 332 268 313 c 256,230,231
 268 294 268 294 281 281 c 0,216,217
283 183 m 0,233,234
 283 188 283 188 281 194 c 0,235,236
 277 207 277 207 265 217 c 0,237,238
 252 228 252 228 238 230 c 2,239,-1
 233 230 l 2,240,241
 224 230 224 230 218 224 c 0,242,243
 214 218 214 218 214 211 c 0,244,245
 214 207 214 207 215 202 c 0,246,247
 219 189 219 189 232 179 c 0,248,249
 244 168 244 168 258 166 c 2,250,-1
 263 166 l 2,251,252
 273 166 273 166 279 172 c 0,253,232
 283 177 283 177 283 183 c 0,233,234
185 512 m 256,254,255
 185 493 185 493 199 480 c 0,256,257
 212 466 212 466 231 466 c 256,258,259
 250 466 250 466 263 480 c 0,260,261
 276 493 276 493 276 512 c 256,262,263
 276 531 276 531 263 544 c 0,264,265
 250 558 250 558 231 558 c 256,266,267
 212 558 212 558 199 544 c 0,268,269
 185 531 185 531 185 512 c 256,254,255
186 291 m 2,271,-1
 186 294 l 2,272,273
 186 307 186 307 179 320 c 0,274,275
 171 334 171 334 158 340 c 0,276,277
 151 343 151 343 146 343 c 256,278,279
 141 343 141 343 137 341 c 0,280,281
 128 336 128 336 127 322 c 0,282,283
 127 309 127 309 135 294 c 0,284,285
 143 280 143 280 155 274 c 0,286,287
 163 270 163 270 169 270 c 0,288,289
 173 270 173 270 177 272 c 0,290,270
 186 278 186 278 186 291 c 2,271,-1
130 416 m 0,292,293
 134 425 134 425 134 435 c 0,294,295
 134 440 134 440 133 445 c 0,296,297
 130 462 130 462 121 472 c 0,298,299
 114 480 114 480 105 480 c 2,300,-1
 101 480 l 2,301,302
 91 478 91 478 86 465 c 0,303,304
 82 456 82 456 82 446 c 0,305,306
 82 441 82 441 83 436 c 0,307,308
 86 420 86 420 95 410 c 0,309,310
 103 402 103 402 112 402 c 2,311,-1
 115 402 l 2,312,291
 125 403 125 403 130 416 c 0,292,293
83 588 m 0,313,314
 82 583 82 583 82 578 c 0,315,316
 82 568 82 568 86 559 c 0,317,318
 91 546 91 546 101 544 c 2,319,-1
 105 544 l 2,320,321
 114 544 114 544 121 552 c 0,322,323
 130 562 130 562 133 579 c 0,324,325
 134 584 134 584 134 589 c 0,326,327
 134 599 134 599 130 608 c 0,328,329
 125 621 125 621 115 622 c 2,330,-1
 112 622 l 2,331,332
 103 622 103 622 95 614 c 0,333,334
 86 604 86 604 83 588 c 0,313,314
135 730 m 0,335,336
 127 715 127 715 127 702 c 0,337,338
 128 688 128 688 137 683 c 0,339,340
 141 681 141 681 146 681 c 256,341,342
 151 681 151 681 158 684 c 0,343,344
 171 690 171 690 179 704 c 0,345,346
 186 717 186 717 186 730 c 2,347,-1
 186 733 l 2,348,349
 186 746 186 746 177 752 c 0,350,351
 173 754 173 754 169 754 c 0,352,353
 163 754 163 754 155 750 c 0,354,355
 143 744 143 744 135 730 c 0,335,336
345 742 m 0,356,357
 332 756 332 756 313 756 c 0,358,359
 295 756 295 756 281 742 c 0,360,361
 268 729 268 729 268 710 c 256,362,363
 268 691 268 691 281 678 c 0,364,365
 295 665 295 665 313 665 c 0,366,367
 332 665 332 665 345 678 c 0,368,369
 359 691 359 691 359 710 c 256,370,371
 359 729 359 729 345 742 c 0,356,357
232 845 m 0,372,373
 219 835 219 835 215 822 c 0,374,375
 214 817 214 817 214 813 c 0,376,377
 214 806 214 806 218 800 c 0,378,379
 224 794 224 794 233 794 c 2,380,-1
 238 794 l 2,381,382
 252 796 252 796 265 807 c 0,383,384
 277 817 277 817 281 830 c 0,385,386
 283 836 283 836 283 841 c 0,387,388
 283 847 283 847 279 852 c 0,389,390
 273 858 273 858 263 858 c 2,391,-1
 258 858 l 2,392,393
 244 856 244 856 232 845 c 0,372,373
512 947 m 0,394,395
 495 947 495 947 484 940 c 0,396,397
 472 932 472 932 472 922 c 0,398,399
 472 911 472 911 484 904 c 0,400,401
 495 897 495 897 512 897 c 0,402,403
 528 897 528 897 540 904 c 0,404,405
 552 912 552 912 552 922 c 256,406,407
 552 932 552 932 540 940 c 0,408,409
 528 947 528 947 512 947 c 0,394,395
615 911 m 0,410,411
 614 908 614 908 614 905 c 0,412,413
 614 898 614 898 620 890 c 0,414,415
 628 879 628 879 643 874 c 0,416,417
 654 870 654 870 663 870 c 0,418,419
 668 870 668 870 672 871 c 0,420,421
 686 874 686 874 689 883 c 0,422,423
 690 887 690 887 690 890 c 0,424,425
 690 898 690 898 685 905 c 0,426,427
 677 915 677 915 661 921 c 0,428,429
 650 925 650 925 641 925 c 0,430,431
 636 925 636 925 632 924 c 0,432,433
 618 921 618 921 615 911 c 0,410,411
742 742 m 0,434,435
 729 756 729 756 710 756 c 256,436,437
 691 756 691 756 678 742 c 0,438,439
 665 729 665 729 665 710 c 256,440,441
 665 691 665 691 678 678 c 256,442,443
 691 665 691 665 710 665 c 256,444,445
 729 665 729 665 742 678 c 0,446,447
 756 691 756 691 756 710 c 256,448,449
 756 729 756 729 742 742 c 0,434,435
741 841 m 0,451,452
 741 836 741 836 743 830 c 0,453,454
 747 817 747 817 759 807 c 0,455,456
 772 796 772 796 786 794 c 2,457,-1
 791 794 l 2,458,459
 800 794 800 794 806 800 c 0,460,461
 810 805 810 805 810 813 c 0,462,463
 810 817 810 817 809 822 c 0,464,465
 804 835 804 835 792 845 c 0,466,467
 779 856 779 856 765 858 c 2,468,-1
 760 858 l 2,469,470
 751 858 751 858 745 852 c 0,471,450
 741 847 741 847 741 841 c 0,451,452
837 733 m 0,473,474
 837 719 837 719 845 704 c 0,475,476
 853 690 853 690 866 684 c 0,477,478
 873 681 873 681 878 681 c 256,479,480
 883 681 883 681 887 683 c 0,481,482
 896 688 896 688 897 702 c 0,483,484
 897 715 897 715 889 730 c 0,485,486
 881 744 881 744 868 750 c 0,487,488
 861 754 861 754 855 754 c 0,489,490
 851 754 851 754 847 752 c 0,491,472
 838 746 838 746 837 733 c 0,473,474
893 608 m 0,493,494
 890 600 890 600 890 591 c 0,495,496
 890 585 890 585 891 579 c 0,497,498
 894 562 894 562 903 552 c 0,499,500
 910 544 910 544 919 544 c 2,501,-1
 923 544 l 2,502,503
 933 546 933 546 938 559 c 0,504,505
 942 567 942 567 942 577 c 0,506,507
 942 582 942 582 941 588 c 0,508,509
 938 604 938 604 929 614 c 0,510,511
 921 622 921 622 912 622 c 2,512,-1
 909 622 l 2,513,492
 898 621 898 621 893 608 c 0,493,494
512 1024 m 256,514,515
 616 1024 616 1024 711 984 c 0,516,517
 803 945 803 945 874 874 c 256,518,519
 945 803 945 803 984 711 c 0,520,521
 1024 616 1024 616 1024 512 c 256,522,523
 1024 408 1024 408 984 313 c 0,524,525
 945 221 945 221 874 150 c 256,526,527
 803 79 803 79 711 40 c 0,528,529
 616 0 616 0 512 0 c 256,530,531
 408 0 408 0 313 40 c 0,532,533
 221 79 221 79 150 150 c 256,534,535
 79 221 79 221 40 313 c 0,536,537
 0 408 0 408 0 512 c 256,538,539
 0 616 0 616 40 711 c 0,540,541
 79 803 79 803 150 874 c 256,542,543
 221 945 221 945 313 984 c 0,544,545
 408 1024 408 1024 512 1024 c 256,514,515
EndSplineSet
EndChar

StartChar: uniE015
Encoding: 57365 57365 23
Width: 1024
GlyphClass: 2
Flags: W
LayerCount: 2
Fore
SplineSet
962 632 m 1,0,-1
 976 693 l 2,1,2
 978 701 978 701 985 702 c 2,3,-1
 987 702 l 2,4,5
 993 702 993 702 995 696 c 0,6,7
 1015 643 1015 643 1024 584 c 1,8,-1
 1024 582 l 2,9,10
 1024 576 1024 576 1018 574 c 2,11,-1
 1016 574 l 2,12,13
 1010 574 1010 574 1006 579 c 2,14,-1
 962 632 l 1,0,-1
334 207 m 1,15,-1
 329 207 l 1,16,-1
 395 294 l 1,17,-1
 629 294 l 1,18,-1
 695 208 l 1,19,-1
 694 208 l 1,20,-1
 686 204 l 2,21,22
 669 199 669 199 652 190 c 0,23,24
 640 185 640 185 628 177 c 2,25,-1
 626 176 l 1,26,-1
 625 175 l 1,27,28
 602 160 602 160 586 145 c 2,29,-1
 580 141 l 1,30,-1
 574 137 l 1,31,-1
 569 133 l 1,32,-1
 566 130 l 2,33,34
 565 129 565 129 561 127 c 0,35,36
 546 117 546 117 526 115 c 0,37,38
 524 114 524 114 515 114 c 2,39,-1
 503 114 l 1,40,-1
 502 115 l 1,41,-1
 497 115 l 2,42,43
 476 117 476 117 454 134 c 2,44,-1
 452 136 l 1,45,-1
 450 137 l 1,46,-1
 445 140 l 1,47,-1
 441 144 l 1,48,-1
 438 146 l 2,49,50
 428 154 428 154 420 161 c 0,51,52
 409 169 409 169 397 176 c 0,53,54
 373 193 373 193 342 203 c 1,55,-1
 334 207 l 1,15,-1
666 538 m 1,56,-1
 620 355 l 1,57,-1
 404 355 l 1,58,-1
 358 538 l 1,59,-1
 512 660 l 1,60,-1
 666 538 l 1,56,-1
347 331 m 1,61,-1
 259 216 l 1,62,-1
 257 216 l 2,63,64
 239 216 239 216 219 213 c 2,65,-1
 218 213 l 1,66,-1
 104 231 l 2,67,68
 76 236 76 236 63 259 c 0,69,70
 16 341 16 341 1 434 c 0,71,72
 0 439 0 439 0 443 c 0,73,74
 0 463 0 463 14 479 c 2,75,-1
 107 588 l 1,76,-1
 297 525 l 1,77,-1
 347 331 l 1,61,-1
62 632 m 1,78,-1
 22 583 l 2,79,80
 15 575 15 575 9 575 c 0,81,82
 8 575 8 575 6 576 c 0,83,84
 0 577 0 577 0 584 c 0,85,86
 0 585 0 585 1 587 c 0,87,88
 9 641 9 641 28 692 c 0,89,90
 31 701 31 701 39 701 c 256,91,92
 47 701 47 701 49 690 c 2,93,-1
 62 632 l 1,78,-1
482 903 m 1,94,-1
 482 714 l 1,95,-1
 317 584 l 1,96,-1
 123 648 l 1,97,-1
 92 776 l 2,98,99
 90 784 90 784 90 791 c 0,100,101
 90 809 90 809 102 823 c 0,102,103
 173 914 173 914 271 965 c 0,104,105
 283 971 283 971 297 971 c 0,106,107
 307 971 307 971 318 967 c 2,108,-1
 482 903 l 1,94,-1
512 956 m 1,109,-1
 433 987 l 2,110,111
 423 991 423 991 423 1002 c 2,112,-1
 423 1004 l 2,113,114
 423 1016 423 1016 437 1018 c 0,115,116
 475 1024 475 1024 512 1024 c 0,117,118
 551 1024 551 1024 590 1018 c 0,119,120
 603 1016 603 1016 605 1005 c 2,121,-1
 605 1002 l 2,122,123
 605 993 605 993 596 990 c 2,124,-1
 512 956 l 1,109,-1
902 648 m 1,125,-1
 708 583 l 1,126,-1
 544 714 l 1,127,-1
 544 903 l 1,128,-1
 705 967 l 2,129,130
 716 972 716 972 727 972 c 0,131,132
 740 972 740 972 752 966 c 0,133,134
 854 912 854 912 922 824 c 0,135,136
 934 808 934 808 934 790 c 0,137,138
 934 783 934 783 932 776 c 2,139,-1
 902 648 l 1,125,-1
961 258 m 0,141,142
 948 236 948 236 920 231 c 2,143,-1
 802 214 l 2,144,145
 788 216 788 216 768 216 c 2,146,-1
 766 216 l 1,147,-1
 678 331 l 1,148,-1
 727 525 l 1,149,-1
 917 588 l 1,150,-1
 1010 479 l 2,151,152
 1024 463 1024 463 1024 443 c 0,153,154
 1024 439 1024 439 1023 434 c 0,155,140
 1008 340 1008 340 961 258 c 0,141,142
1022 0 m 1,156,-1
 3 0 l 1,157,-1
 3 57 l 1,158,159
 39 57 39 57 66 70 c 0,160,161
 83 78 83 78 112 101 c 0,162,163
 140 124 140 124 159 134 c 0,164,165
 160 135 160 135 162 136 c 2,166,-1
 163 137 l 1,167,-1
 165 137 l 1,168,169
 182 148 182 148 207 153 c 0,170,171
 208 154 208 154 209 154 c 2,172,-1
 215 154 l 1,173,174
 232 159 232 159 257 159 c 0,175,176
 290 159 290 159 319 150 c 1,177,-1
 321 150 l 1,178,179
 347 142 347 142 368 128 c 0,180,181
 383 118 383 118 403 101 c 2,182,-1
 411 95 l 1,183,-1
 419 90 l 1,184,185
 454 62 454 62 492 59 c 0,186,187
 501 57 501 57 513 57 c 2,188,-1
 515 57 l 2,189,190
 522 57 522 57 533 58 c 0,191,192
 565 62 565 62 591 79 c 0,193,194
 598 83 598 83 604 88 c 2,195,-1
 605 89 l 2,196,197
 612 93 612 93 622 101 c 0,198,199
 641 118 641 118 657 128 c 0,200,201
 682 144 682 144 706 150 c 1,202,-1
 706 151 l 1,203,-1
 708 151 l 1,204,-1
 710 152 l 1,205,-1
 711 152 l 1,206,207
 735 159 735 159 768 159 c 0,208,209
 792 159 792 159 810 155 c 0,210,211
 812 155 812 155 817 154 c 0,212,213
 821 153 821 153 826 151 c 2,214,-1
 827 151 l 1,215,-1
 828 150 l 2,216,217
 832 149 832 149 842 146 c 0,218,219
 850 143 850 143 860 137 c 1,220,-1
 861 137 l 2,221,222
 862 137 862 137 863 136 c 2,223,-1
 864 136 l 1,224,-1
 865 135 l 1,225,226
 878 128 878 128 891 119 c 2,227,-1
 902 110 l 1,228,-1
 913 101 l 2,229,230
 942 78 942 78 959 70 c 0,231,232
 986 57 986 57 1022 57 c 1,233,-1
 1022 0 l 1,156,-1
EndSplineSet
EndChar

StartChar: uniE016
Encoding: 57366 57366 24
Width: 1024
GlyphClass: 2
Flags: W
LayerCount: 2
Fore
SplineSet
1024 313 m 1,0,-1
 0 313 l 1,1,-1
 0 398 l 2,2,3
 0 469 0 469 50 519 c 256,4,5
 100 569 100 569 171 569 c 2,6,-1
 853 569 l 2,7,8
 924 569 924 569 974 519 c 256,9,10
 1024 469 1024 469 1024 398 c 2,11,-1
 1024 313 l 1,0,-1
0 256 m 1,12,-1
 1024 256 l 1,13,-1
 1024 171 l 2,14,15
 1024 100 1024 100 974 50 c 256,16,17
 924 0 924 0 853 0 c 2,18,-1
 171 0 l 2,19,20
 100 0 100 0 50 50 c 256,21,22
 0 100 0 100 0 171 c 2,23,-1
 0 256 l 1,12,-1
474 766 m 2,24,25
 474 755 474 755 482 747 c 0,26,27
 490 740 490 740 501 740 c 2,28,-1
 766 740 l 2,29,30
 790 740 790 740 808 722 c 0,31,32
 825 705 825 705 825 681 c 2,33,-1
 825 628 l 2,34,35
 825 625 825 625 822 625 c 2,36,-1
 202 625 l 2,37,38
 199 626 199 626 199 629 c 2,39,-1
 199 681 l 2,40,41
 199 705 199 705 217 722 c 0,42,43
 234 740 234 740 258 740 c 2,44,-1
 283 740 l 2,45,46
 309 740 309 740 317 763 c 2,47,-1
 411 997 l 2,48,49
 421 1024 421 1024 451 1024 c 2,50,-1
 738 1024 l 2,51,52
 751 1024 751 1024 760 1015 c 256,53,54
 769 1006 769 1006 769 993 c 2,55,-1
 769 940 l 2,56,57
 769 928 769 928 760 919 c 256,58,59
 751 910 751 910 738 910 c 2,60,-1
 503 910 l 2,61,62
 492 910 492 910 483 901 c 256,63,64
 474 892 474 892 474 880 c 2,65,-1
 474 766 l 2,24,25
EndSplineSet
EndChar

StartChar: uniE017
Encoding: 57367 57367 25
Width: 1024
GlyphClass: 2
Flags: W
LayerCount: 2
Fore
SplineSet
886 426 m 1,0,-1
 787 598 l 1,1,-1
 687 426 l 1,2,-1
 886 426 l 1,0,-1
512 413 m 0,3,4
 554 413 554 413 583 442 c 256,5,6
 612 471 612 471 612 512 c 256,7,8
 612 553 612 553 583 582 c 0,9,10
 553 612 553 612 512 612 c 256,11,12
 471 612 471 612 442 582 c 0,13,14
 413 553 413 553 413 512 c 256,15,16
 413 471 413 471 442 442 c 256,17,18
 471 413 471 413 512 413 c 0,3,4
299 598 m 1,19,-1
 128 598 l 1,20,-1
 128 427 l 1,21,-1
 299 427 l 1,22,-1
 299 598 l 1,19,-1
512 1024 m 256,23,24
 616 1024 616 1024 711 984 c 0,25,26
 803 945 803 945 874 874 c 256,27,28
 945 803 945 803 984 711 c 0,29,30
 1024 616 1024 616 1024 512 c 256,31,32
 1024 408 1024 408 984 313 c 0,33,34
 945 221 945 221 874 150 c 256,35,36
 803 79 803 79 711 41 c 0,37,38
 616 0 616 0 512 0 c 256,39,40
 408 0 408 0 313 41 c 0,41,42
 221 79 221 79 150 150 c 256,43,44
 79 221 79 221 40 313 c 0,45,46
 0 408 0 408 0 512 c 256,47,48
 0 616 0 616 40 711 c 0,49,50
 79 803 79 803 150 874 c 256,51,52
 221 945 221 945 313 984 c 0,53,54
 408 1024 408 1024 512 1024 c 256,23,24
EndSplineSet
EndChar

StartChar: uniE018
Encoding: 57368 57368 26
Width: 1024
GlyphClass: 2
Flags: W
LayerCount: 2
Fore
SplineSet
644 232 m 1,1,-1
 636 232 l 2,2,3
 615 232 615 232 598 249 c 2,4,-1
 249 598 l 2,5,6
 232 615 232 615 232 636 c 0,7,8
 232 639 232 639 233 643 c 0,9,10
 249 761 249 761 354 866 c 0,11,12
 493 1005 493 1005 631 1021 c 0,13,14
 649 1023 649 1023 667 1023 c 0,15,16
 796 1023 796 1023 910 909 c 256,17,18
 1024 795 1024 795 1024 666 c 0,19,20
 1024 648 1024 648 1022 630 c 0,21,22
 1005 493 1005 493 866 354 c 0,23,0
 761 249 761 249 644 232 c 1,1,-1
529 239 m 1,24,-1
 528 239 l 1,25,26
 509 243 509 243 485 253 c 0,27,28
 451 267 451 267 420 267 c 0,29,30
 387 267 387 267 357 252 c 0,31,32
 343 244 343 244 328 233 c 0,33,34
 266 185 266 185 203 118 c 0,35,36
 183 96 183 96 161 71 c 0,37,38
 157 66 157 66 153 61 c 2,39,-1
 150 57 l 1,40,-1
 146 53 l 2,41,42
 139 44 139 44 136 41 c 0,43,44
 102 2 102 2 91 1 c 2,45,-1
 88 1 l 2,46,47
 72 1 72 1 36 36 c 0,48,49
 0 72 0 72 0 89 c 2,50,-1
 0 91 l 2,51,52
 2 102 2 102 41 136 c 0,53,54
 44 139 44 139 53 147 c 2,55,-1
 57 150 l 1,56,-1
 61 153 l 2,57,58
 66 158 66 158 70 161 c 0,59,60
 96 183 96 183 117 203 c 0,61,62
 185 266 185 266 233 328 c 0,63,64
 242 340 242 340 252 357 c 0,65,66
 267 387 267 387 267 419 c 0,67,68
 267 450 267 450 253 484 c 0,69,70
 245 506 245 506 239 528 c 1,71,-1
 529 239 l 1,24,-1
993 178 m 0,73,74
 1024 148 1024 148 1024 104 c 0,75,76
 1024 61 1024 61 993 30 c 0,77,78
 963 0 963 0 919 0 c 0,79,80
 876 0 876 0 845 30 c 0,81,82
 815 61 815 61 815 104 c 0,83,84
 815 148 815 148 845 178 c 0,85,86
 876 209 876 209 919 209 c 0,87,72
 963 209 963 209 993 178 c 0,73,74
EndSplineSet
EndChar

StartChar: uniE019
Encoding: 57369 57369 27
Width: 1024
GlyphClass: 2
Flags: W
LayerCount: 2
Fore
SplineSet
1022 0 m 1,0,-1
 3 0 l 1,1,-1
 3 57 l 1,2,3
 39 57 39 57 66 70 c 0,4,5
 83 78 83 78 112 101 c 2,6,-1
 123 110 l 1,7,-1
 135 119 l 2,8,9
 148 129 148 129 156 133 c 128,-1,10
 164 137 164 137 165 137 c 0,11,12
 182 148 182 148 208 154 c 1,13,-1
 210 154 l 1,14,15
 231 159 231 159 257 159 c 0,16,17
 281 159 281 159 303 154 c 2,18,-1
 312 152 l 1,19,-1
 321 150 l 2,20,21
 344 143 344 143 367 128 c 0,22,23
 381 119 381 119 403 101 c 0,24,25
 432 78 432 78 449 70 c 0,26,27
 477 57 477 57 513 57 c 2,28,-1
 514 57 l 2,29,30
 541 58 541 58 563 65 c 0,31,32
 578 70 578 70 591 79 c 0,33,34
 598 83 598 83 607 90 c 2,35,-1
 622 101 l 2,36,37
 638 115 638 115 648 122 c 0,38,39
 664 134 664 134 680 141 c 0,40,41
 693 147 693 147 707 151 c 2,42,-1
 709 152 l 1,43,-1
 711 152 l 1,44,45
 735 159 735 159 768 159 c 0,46,47
 795 159 795 159 817 154 c 0,48,49
 821 153 821 153 826 151 c 0,50,51
 827 151 827 151 828 150 c 0,52,53
 832 149 832 149 842 146 c 0,54,55
 851 143 851 143 861 137 c 0,56,57
 874 131 874 131 889 120 c 2,58,-1
 901 111 l 1,59,-1
 913 101 l 2,60,61
 942 78 942 78 958 70 c 0,62,63
 986 57 986 57 1022 57 c 1,64,-1
 1022 0 l 1,0,-1
1024 508 m 0,66,67
 1024 461 1024 461 1016 413 c 0,68,69
 1010 378 1010 378 975 368 c 0,70,71
 949 360 949 360 925 356 c 0,72,73
 895 350 895 350 870 350 c 1,74,75
 940 502 940 502 940 662 c 0,76,77
 940 708 940 708 934 754 c 1,78,-1
 934 756 l 2,79,80
 934 764 934 764 942 767 c 0,81,82
 945 768 945 768 947 768 c 0,83,84
 952 768 952 768 956 761 c 0,85,65
 1024 642 1024 642 1024 508 c 0,66,67
848 877 m 0,86,87
 881 775 881 775 881 668 c 2,88,-1
 881 645 l 1,89,90
 876 495 876 495 807 353 c 1,91,92
 790 355 790 355 761 363 c 0,93,94
 725 373 725 373 700 385 c 1,95,96
 768 530 768 530 768 683 c 0,97,98
 768 698 768 698 767 712 c 0,99,100
 765 777 765 777 750 840 c 0,101,102
 739 889 739 889 722 934 c 0,103,104
 718 944 718 944 718 951 c 0,105,106
 718 960 718 960 724 964 c 0,107,108
 729 967 729 967 735 967 c 0,109,110
 743 967 743 967 754 961 c 0,111,112
 773 950 773 950 786 942 c 0,113,114
 805 929 805 929 821 917 c 0,115,116
 841 902 841 902 848 877 c 0,86,87
631 990 m 0,117,118
 696 875 696 875 707 733 c 0,119,120
 709 706 709 706 709 680 c 0,121,122
 709 541 709 541 649 414 c 1,123,124
 620 432 620 432 589 463 c 0,125,126
 563 490 563 490 546 516 c 1,127,128
 590 613 590 613 590 709 c 0,129,130
 590 755 590 755 580 800 c 0,131,132
 557 904 557 904 489 987 c 0,133,134
 484 993 484 993 484 1000 c 0,135,136
 484 1006 484 1006 487 1011 c 0,137,138
 494 1024 494 1024 507 1024 c 2,139,-1
 508 1024 l 2,140,141
 547 1024 547 1024 590 1017 c 0,142,143
 618 1014 618 1014 631 990 c 0,117,118
442 947 m 0,145,146
 462 923 462 923 474 901 c 1,147,148
 260 882 260 882 91 756 c 0,149,150
 88 754 88 754 84 754 c 0,151,152
 81 754 81 754 77 757 c 0,153,154
 73 761 73 761 73 765 c 0,155,156
 73 768 73 768 75 772 c 0,157,158
 169 933 169 933 348 997 c 0,159,160
 359 1001 359 1001 369 1001 c 0,161,162
 390 1001 390 1001 408 984 c 0,163,144
 426 965 426 965 442 947 c 0,145,146
502 845 m 1,164,165
 509 829 509 829 516 800 c 0,166,167
 525 764 525 764 526 736 c 1,168,169
 353 722 353 722 209 632 c 0,170,171
 154 597 154 597 107 553 c 0,172,173
 70 519 70 519 39 482 c 0,174,175
 28 468 28 468 18 468 c 0,176,177
 15 468 15 468 12 470 c 0,178,179
 0 476 0 476 0 497 c 0,180,181
 0 539 0 539 5 577 c 0,182,183
 9 602 9 602 26 620 c 0,184,185
 107 708 107 708 212 764 c 0,186,187
 345 835 345 835 502 845 c 1,164,165
221 570 m 0,189,190
 361 665 361 665 527 678 c 1,191,192
 525 643 525 643 513 601 c 0,193,194
 502 564 502 564 489 537 c 1,195,196
 332 522 332 522 225 425 c 0,197,198
 146 354 146 354 107 254 c 0,199,200
 102 240 102 240 87 239 c 2,201,-1
 85 239 l 2,202,203
 72 239 72 239 65 252 c 0,204,205
 46 286 46 286 31 326 c 0,206,207
 27 337 27 337 27 348 c 0,208,209
 27 362 27 362 35 376 c 0,210,188
 103 489 103 489 221 570 c 0,189,190
192 277 m 1,211,212
 213 246 213 246 241 215 c 1,213,214
 222 215 222 215 195 210 c 0,215,216
 178 206 178 206 161 198 c 1,217,218
 173 245 173 245 192 277 c 1,211,212
307 407 m 1,219,220
 425 239 425 239 610 165 c 1,221,222
 597 156 597 156 586 146 c 2,223,-1
 582 142 l 1,224,-1
 571 134 l 1,225,-1
 561 127 l 2,226,227
 541 115 541 115 513 114 c 0,228,229
 489 114 489 114 473 122 c 0,230,231
 463 127 463 127 439 146 c 0,232,233
 428 155 428 155 421 160 c 0,234,235
 409 169 409 169 398 176 c 0,236,237
 368 195 368 195 337 204 c 2,238,-1
 332 206 l 1,239,240
 274 259 274 259 225 330 c 1,241,242
 235 344 235 344 257 365 c 0,243,244
 283 391 283 391 307 407 c 1,219,220
938 297 m 0,246,247
 950 297 950 297 956 286 c 0,248,249
 961 280 961 280 961 273 c 0,250,251
 961 267 961 267 957 261 c 0,252,253
 936 226 936 226 910 194 c 0,254,255
 905 187 905 187 898 182 c 1,256,-1
 892 185 l 1,257,-1
 886 189 l 1,258,-1
 880 192 l 1,259,-1
 874 195 l 2,260,261
 866 198 866 198 860 200 c 0,262,263
 859 200 859 200 836 208 c 2,264,-1
 832 209 l 1,265,-1
 828 210 l 2,266,267
 803 216 803 216 768 216 c 0,268,269
 727 216 727 216 696 207 c 2,270,-1
 690 205 l 1,271,-1
 679 202 l 1,272,273
 477 267 477 267 356 438 c 1,274,275
 387 454 387 454 429 466 c 0,276,277
 466 476 466 476 497 478 c 1,278,279
 589 351 589 351 727 309 c 0,280,281
 790 289 790 289 855 289 c 0,282,283
 894 289 894 289 934 296 c 0,284,245
 936 297 936 297 938 297 c 0,246,247
EndSplineSet
EndChar

StartChar: uniE01A
Encoding: 57370 57370 28
Width: 1024
GlyphClass: 2
Flags: W
LayerCount: 2
Fore
SplineSet
108 97 m 0,0,1
 119 97 119 97 127 105 c 256,2,3
 135 113 135 113 135 125 c 0,4,5
 135 136 135 136 127 144 c 256,6,7
 119 152 119 152 108 152 c 0,8,9
 96 152 96 152 88 144 c 256,10,11
 80 136 80 136 80 125 c 0,12,13
 80 113 80 113 88 105 c 256,14,15
 96 97 96 97 108 97 c 0,0,1
108 232 m 0,16,17
 152 232 152 232 184 201 c 0,18,19
 215 169 215 169 215 125 c 0,20,21
 215 80 215 80 184 48 c 0,22,23
 152 17 152 17 108 17 c 0,24,25
 63 17 63 17 31 48 c 0,26,27
 0 80 0 80 0 125 c 0,28,29
 0 169 0 169 31 201 c 0,30,31
 63 232 63 232 108 232 c 0,16,17
377 97 m 0,32,33
 389 97 389 97 397 105 c 256,34,35
 405 113 405 113 405 125 c 0,36,37
 405 136 405 136 397 144 c 256,38,39
 389 152 389 152 377 152 c 0,40,41
 366 152 366 152 358 144 c 256,42,43
 350 136 350 136 350 125 c 0,44,45
 350 113 350 113 358 105 c 256,46,47
 366 97 366 97 377 97 c 0,32,33
378 232 m 0,48,49
 422 232 422 232 453 201 c 0,50,51
 485 169 485 169 485 125 c 0,52,53
 485 80 485 80 453 48 c 0,54,55
 422 17 422 17 378 17 c 0,56,57
 333 17 333 17 301 48 c 0,58,59
 269 80 269 80 269 125 c 0,60,61
 269 169 269 169 301 201 c 0,62,63
 333 232 333 232 378 232 c 0,48,49
647 97 m 256,64,65
 658 97 658 97 667 105 c 0,66,67
 675 113 675 113 675 125 c 0,68,69
 675 136 675 136 667 144 c 0,70,71
 658 152 658 152 647 152 c 256,72,73
 636 152 636 152 628 144 c 256,74,75
 620 136 620 136 620 125 c 0,76,77
 620 113 620 113 628 105 c 256,78,79
 636 97 636 97 647 97 c 256,64,65
647 232 m 256,80,81
 692 232 692 232 723 201 c 0,82,83
 755 169 755 169 755 125 c 0,84,85
 755 80 755 80 723 48 c 0,86,87
 692 17 692 17 647 17 c 256,88,89
 602 17 602 17 571 48 c 0,90,91
 540 80 540 80 540 125 c 0,92,93
 540 169 540 169 571 201 c 0,94,95
 602 232 602 232 647 232 c 256,80,81
917 97 m 0,96,97
 928 97 928 97 936 105 c 256,98,99
 944 113 944 113 944 125 c 0,100,101
 944 136 944 136 936 144 c 256,102,103
 928 152 928 152 917 152 c 256,104,105
 906 152 906 152 897 144 c 0,106,107
 889 136 889 136 889 125 c 0,108,109
 889 113 889 113 897 105 c 256,110,111
 905 97 905 97 917 97 c 0,96,97
916 232 m 0,112,113
 961 232 961 232 993 201 c 0,114,115
 1024 169 1024 169 1024 125 c 0,116,117
 1024 80 1024 80 993 48 c 0,118,119
 961 17 961 17 916 17 c 0,120,121
 872 17 872 17 840 48 c 0,122,123
 809 80 809 80 809 125 c 0,124,125
 809 169 809 169 840 201 c 0,126,127
 872 232 872 232 916 232 c 0,112,113
990 807 m 0,129,130
 956 773 956 773 907 773 c 256,131,132
 858 773 858 773 824 807 c 0,133,134
 790 842 790 842 790 891 c 0,135,136
 790 938 790 938 824 973 c 0,137,138
 859 1007 859 1007 907 1007 c 256,139,140
 955 1007 955 1007 990 973 c 0,141,142
 1024 938 1024 938 1024 891 c 0,143,128
 1024 842 1024 842 990 807 c 0,129,130
908 394 m 0,145,146
 892 377 892 377 869 377 c 2,147,-1
 113 377 l 2,148,149
 88 377 88 377 72 396 c 0,150,151
 58 411 58 411 58 431 c 0,152,153
 58 435 58 435 59 438 c 0,154,155
 62 541 62 541 78 659 c 0,156,157
 93 762 93 762 114 835 c 0,158,159
 139 926 139 926 174 965 c 0,160,161
 200 995 200 995 255 1004 c 0,162,163
 276 1007 276 1007 299 1007 c 0,164,165
 331 1007 331 1007 366 1001 c 0,166,167
 426 991 426 991 474 968 c 0,168,169
 525 944 525 944 544 915 c 0,170,171
 557 895 557 895 561 824 c 0,172,173
 558 823 558 823 553 819 c 2,174,-1
 515 798 l 2,175,176
 485 781 485 781 477 748 c 0,177,178
 474 737 474 737 474 726 c 0,179,180
 474 705 474 705 485 685 c 2,181,-1
 497 664 l 2,182,183
 522 623 522 623 569 623 c 0,184,185
 590 623 590 623 610 634 c 2,186,-1
 629 645 l 1,187,188
 635 637 635 637 647 628 c 1,189,-1
 628 598 l 2,190,191
 614 577 614 577 614 553 c 0,192,193
 614 544 614 544 615 536 c 0,194,195
 622 503 622 503 650 483 c 2,196,-1
 671 470 l 2,197,198
 691 456 691 456 717 456 c 0,199,200
 761 456 761 456 785 493 c 2,201,-1
 809 528 l 2,202,203
 814 537 814 537 818 545 c 1,204,205
 877 537 877 537 902 507 c 0,206,207
 924 481 924 481 924 432 c 0,208,144
 924 410 924 410 908 394 c 0,145,146
739 524 m 2,209,210
 731 511 731 511 717 511 c 0,211,212
 708 511 708 511 702 516 c 2,213,-1
 681 529 l 2,214,215
 672 536 672 536 670.5 543 c 128,-1,216
 669 550 669 550 669 552 c 0,217,218
 669 560 669 560 673 568 c 2,219,-1
 691 594 l 1,220,-1
 698 603 l 2,221,222
 705 615 705 615 720 615 c 0,223,224
 729 615 729 615 735 611 c 2,225,-1
 756 597 l 2,226,227
 765 591 765 591 767 580 c 2,228,-1
 767 573 l 2,229,230
 767 566 767 566 763 559 c 2,231,-1
 739 524 l 2,209,210
595 688 m 1,232,-1
 583 681 l 2,233,234
 576 678 576 678 569 678 c 0,235,236
 553 678 553 678 545 692 c 2,237,-1
 532 713 l 2,238,239
 529 719 529 719 529 726 c 0,240,241
 529 730 529 730 530 734 c 0,242,243
 533 745 533 745 543 751 c 2,244,-1
 567 764 l 1,245,-1
 580 772 l 2,246,247
 586 775 586 775 594 775 c 0,248,249
 611 775 611 775 618 761 c 2,250,-1
 630 741 l 2,251,252
 634 734 634 734 634 727 c 0,253,254
 634 724 634 724 633 720 c 0,255,256
 630 709 630 709 620 703 c 2,257,-1
 595 688 l 1,232,-1
917 322 m 1,258,-1
 917 287 l 1,259,-1
 916 287 l 2,260,261
 875 287 875 287 839 267 c 0,262,263
 804 248 804 248 782 215 c 1,264,265
 760 248 760 248 724 267 c 0,266,267
 688 287 688 287 647 287 c 256,268,269
 606 287 606 287 570 267 c 0,270,271
 535 248 535 248 512 215 c 1,272,273
 490 248 490 248 455 267 c 0,274,275
 419 287 419 287 378 287 c 0,276,277
 336 287 336 287 300 267 c 0,278,279
 265 248 265 248 243 215 c 1,280,281
 220 248 220 248 185 267 c 0,282,283
 149 287 149 287 108 287 c 1,284,-1
 108 322 l 1,285,-1
 917 322 l 1,258,-1
EndSplineSet
EndChar

StartChar: uniE01B
Encoding: 57371 57371 29
Width: 1024
GlyphClass: 2
Flags: W
LayerCount: 2
Fore
SplineSet
704 492 m 0,1,2
 677 454 677 454 634 406 c 0,3,4
 618 388 618 388 596 364 c 2,5,-1
 577 344 l 1,6,-1
 559 324 l 2,7,8
 496 255 496 255 480 224 c 0,9,10
 479 222 479 222 477 221 c 0,11,12
 474 221 474 221 472 224 c 0,13,14
 450 248 450 248 399 289 c 2,15,-1
 379 305 l 1,16,-1
 359 321 l 2,17,18
 337 340 337 340 321 356 c 0,19,20
 232 444 232 444 232 556 c 0,21,22
 232 634 232 634 264 694 c 0,23,24
 301 764 301 764 363 764 c 0,25,26
 427 764 427 764 454 699 c 2,27,-1
 458 690 l 2,28,29
 460 684 460 684 462 680 c 0,30,31
 468 671 468 671 475 671 c 0,32,33
 487 671 487 671 495 695 c 0,34,35
 515 746 515 746 561 788 c 0,36,37
 613 835 613 835 666 835 c 0,38,39
 711 835 711 835 742 795 c 0,40,41
 777 751 777 751 777 678 c 0,42,0
 777 593 777 593 704 492 c 0,1,2
683 355 m 0,43,44
 760 419 760 419 807 494 c 0,45,46
 864 585 864 585 864 677 c 0,47,48
 864 766 864 766 815 824 c 0,49,50
 767 882 767 882 692 882 c 0,51,52
 621 882 621 882 555 830 c 0,53,54
 499 785 499 785 479 735 c 1,55,56
 456 767 456 767 433 783 c 0,57,58
 399 807 399 807 351 807 c 0,59,60
 284 807 284 807 227 742 c 0,61,62
 161 666 161 666 161 543 c 0,63,64
 161 411 161 411 245 325 c 0,65,66
 277 292 277 292 331 256 c 0,67,68
 349 244 349 244 380 224 c 2,69,-1
 405 208 l 1,70,-1
 430 192 l 2,71,72
 451 177 451 177 474 150 c 0,73,74
 480 143 480 143 484 143 c 0,75,76
 487 143 487 143 492 152 c 0,77,78
 494 154 494 154 496 158 c 2,79,-1
 499 162 l 1,80,-1
 501 167 l 2,81,82
 509 180 509 180 515 189 c 0,83,84
 535 220 535 220 555 237 c 0,85,86
 566 248 566 248 606 283 c 0,87,88
 625 300 625 300 640 314 c 0,89,90
 662 334 662 334 683 355 c 0,43,44
512 1024 m 256,91,92
 616 1024 616 1024 711 984 c 0,93,94
 803 945 803 945 874 874 c 256,95,96
 945 803 945 803 984 711 c 0,97,98
 1024 616 1024 616 1024 512 c 256,99,100
 1024 408 1024 408 984 313 c 0,101,102
 945 221 945 221 874 150 c 256,103,104
 803 79 803 79 711 41 c 0,105,106
 616 0 616 0 512 0 c 256,107,108
 408 0 408 0 313 41 c 0,109,110
 221 79 221 79 150 150 c 256,111,112
 79 221 79 221 40 313 c 0,113,114
 0 408 0 408 0 512 c 256,115,116
 0 616 0 616 40 711 c 0,117,118
 79 803 79 803 150 874 c 256,119,120
 221 945 221 945 313 984 c 0,121,122
 408 1024 408 1024 512 1024 c 256,91,92
EndSplineSet
EndChar

StartChar: uniE01C
Encoding: 57372 57372 30
Width: 892
GlyphClass: 2
Flags: W
LayerCount: 2
Fore
SplineSet
273 833 m 2,0,1
 266 833 266 833 260 838 c 0,2,3
 256 843 256 843 256 849 c 2,4,-1
 256 851 l 1,5,6
 263 924 263 924 317 974 c 0,7,8
 372 1024 372 1024 446 1024 c 256,9,10
 520 1024 520 1024 575 974 c 256,11,12
 630 924 630 924 637 851 c 1,13,-1
 637 850 l 2,14,15
 637 843 637 843 632 838 c 256,16,17
 627 833 627 833 619 833 c 2,18,-1
 273 833 l 2,0,1
781 13 m 2,19,20
 773 3 773 3 760 1 c 0,21,22
 757 0 757 0 754 0 c 0,23,24
 743 0 743 0 735 7 c 2,25,-1
 636 85 l 2,26,27
 627 93 627 93 625 104 c 0,28,29
 615 184 615 184 600 292 c 0,30,31
 596 328 596 328 589 381 c 2,32,-1
 586 402 l 1,33,-1
 583 423 l 2,34,35
 580 447 580 447 578 462 c 0,36,37
 555 635 555 635 554 644 c 0,38,39
 553 655 553 655 546 662 c 0,40,41
 538 670 538 670 531.5 670.5 c 128,-1,42
 525 671 525 671 523 671 c 0,43,44
 514 671 514 671 507 665 c 0,45,46
 497 656 497 656 496 644 c 0,47,48
 496 636 496 636 566 113 c 1,49,-1
 566 109 l 2,50,51
 566 95 566 95 555 86 c 2,52,-1
 466 15 l 2,53,54
 456 7 456 7 446 7 c 256,55,56
 436 7 436 7 427 15 c 2,57,-1
 340 83 l 2,58,59
 329 91 329 91 329 103 c 0,60,61
 329 106 329 106 330 109 c 0,62,63
 400 638 400 638 400 644 c 0,64,65
 399 656 399 656 389 665 c 0,66,67
 381 673 381 673 371 673 c 2,68,-1
 369 673 l 2,69,70
 356 672 356 672 349 665 c 0,71,72
 342 657 342 657 342 647 c 2,73,-1
 342 645 l 2,74,75
 341 636 341 636 319 470 c 0,76,77
 302 342 302 342 272 118 c 0,78,79
 270 104 270 104 259 98 c 2,80,-1
 138 21 l 2,81,82
 131 16 131 16 123 16 c 0,83,84
 119 16 119 16 115 17 c 0,85,86
 102 19 102 19 95 30 c 2,87,-1
 6 165 l 2,88,89
 0 174 0 174 0 183 c 0,90,91
 0 190 0 190 4 197 c 2,92,-1
 255 700 l 1,93,-1
 255 758 l 2,94,95
 255 765 255 765 260 770 c 256,96,97
 265 775 265 775 272 775 c 2,98,-1
 620 775 l 2,99,100
 627 775 627 775 632 770 c 256,101,102
 637 765 637 765 637 758 c 2,103,-1
 637 700 l 1,104,-1
 638 700 l 1,105,-1
 888 197 l 2,106,107
 892 189 892 189 892 182 c 0,108,109
 892 173 892 173 886 164 c 2,110,-1
 781 13 l 2,19,20
EndSplineSet
EndChar

StartChar: uniE01D
Encoding: 57373 57373 31
Width: 1024
GlyphClass: 2
Flags: W
LayerCount: 2
Fore
SplineSet
691 579 m 2,0,1
 691 590 691 590 684 597 c 256,2,3
 677 604 677 604 666 604 c 256,4,5
 655 604 655 604 648 597 c 0,6,7
 640 590 640 590 640 579 c 2,8,-1
 640 537 l 1,9,-1
 538 537 l 1,10,-1
 538 579 l 2,11,12
 538 590 538 590 530 597 c 0,13,14
 523 604 523 604 512 604 c 256,15,16
 501 604 501 604 494 597 c 256,17,18
 487 590 487 590 487 579 c 2,19,-1
 487 537 l 1,20,-1
 384 537 l 1,21,-1
 384 579 l 2,22,23
 384 590 384 590 377 597 c 0,24,25
 369 604 369 604 358 604 c 256,26,27
 347 604 347 604 340 597 c 256,28,29
 333 590 333 590 333 579 c 2,30,-1
 333 444 l 2,31,32
 333 434 333 434 340 426 c 0,33,34
 348 419 348 419 358 419 c 0,35,36
 369 419 369 419 377 426 c 0,37,38
 384 434 384 434 384 444 c 2,39,-1
 384 487 l 1,40,-1
 487 487 l 1,41,-1
 487 444 l 2,42,43
 487 434 487 434 494 426 c 0,44,45
 501 419 501 419 512 419 c 256,46,47
 523 419 523 419 530 426 c 0,48,49
 538 434 538 434 538 444 c 2,50,-1
 538 487 l 1,51,-1
 640 487 l 1,52,-1
 640 444 l 2,53,54
 640 434 640 434 648 426 c 0,55,56
 655 419 655 419 666 419 c 256,57,58
 677 419 677 419 684 426 c 0,59,60
 691 434 691 434 691 444 c 2,61,-1
 691 579 l 2,0,1
512 693 m 256,62,63
 630 693 630 693 713 640 c 0,64,65
 797 587 797 587 797 513 c 0,66,67
 797 438 797 438 713 384 c 0,68,69
 630 331 630 331 512 331 c 256,70,71
 394 331 394 331 311 384 c 0,72,73
 227 438 227 438 227 513 c 0,74,75
 227 587 227 587 311 640 c 0,76,77
 394 693 394 693 512 693 c 256,62,63
512 280 m 256,78,79
 651 280 651 280 749 348 c 0,80,81
 796 380 796 380 821 422 c 0,82,83
 848 465 848 465 848 512 c 256,84,85
 848 559 848 559 821 602 c 0,86,87
 796 644 796 644 749 676 c 0,88,89
 651 744 651 744 512 744 c 256,90,91
 373 744 373 744 275 676 c 0,92,93
 228 644 228 644 203 602 c 0,94,95
 176 559 176 559 176 512 c 256,96,97
 176 465 176 465 203 422 c 0,98,99
 228 380 228 380 275 348 c 0,100,101
 373 280 373 280 512 280 c 256,78,79
512 834 m 256,102,103
 697 834 697 834 870 708 c 0,104,105
 939 657 939 657 982 602 c 0,106,107
 1024 548 1024 548 1024 512 c 256,108,109
 1024 476 1024 476 982 422 c 0,110,111
 939 367 939 367 870 316 c 0,112,113
 697 190 697 190 512 190 c 256,114,115
 327 190 327 190 154 316 c 0,116,117
 85 367 85 367 42 422 c 0,118,119
 0 476 0 476 0 512 c 256,120,121
 0 548 0 548 42 602 c 0,122,123
 85 657 85 657 154 708 c 0,124,125
 327 834 327 834 512 834 c 256,102,103
EndSplineSet
EndChar

StartChar: uniE01E
Encoding: 57374 57374 32
Width: 1024
GlyphClass: 2
Flags: W
LayerCount: 2
Fore
SplineSet
801 737 m 256,0,1
 821 737 821 737 835 751 c 256,2,3
 849 765 849 765 849 785 c 256,4,5
 849 805 849 805 835 819 c 0,6,7
 821 834 821 834 801 834 c 256,8,9
 781 834 781 834 767 819 c 0,10,11
 753 805 753 805 753 785 c 256,12,13
 753 765 753 765 767 751 c 256,14,15
 781 737 781 737 801 737 c 256,0,1
801 191 m 256,16,17
 821 191 821 191 835 205 c 256,18,19
 849 219 849 219 849 239 c 256,20,21
 849 259 849 259 835 273 c 0,22,23
 821 288 821 288 801 288 c 256,24,25
 781 288 781 288 767 273 c 0,26,27
 753 259 753 259 753 239 c 256,28,29
 753 219 753 219 767 205 c 256,30,31
 781 191 781 191 801 191 c 256,16,17
615 705 m 256,32,33
 635 705 635 705 649 719 c 256,34,35
 663 733 663 733 663 753 c 256,36,37
 663 773 663 773 649 788 c 0,38,39
 635 802 635 802 615 802 c 256,40,41
 595 802 595 802 581 788 c 0,42,43
 567 773 567 773 567 753 c 256,44,45
 567 733 567 733 581 719 c 256,46,47
 595 705 595 705 615 705 c 256,32,33
615 222 m 256,48,49
 635 222 635 222 649 236 c 256,50,51
 663 250 663 250 663 270 c 0,52,53
 663 291 663 291 649 305 c 256,54,55
 635 319 635 319 615 319 c 256,56,57
 595 319 595 319 581 305 c 256,58,59
 567 291 567 291 567 270 c 0,60,61
 567 250 567 250 581 236 c 256,62,63
 595 222 595 222 615 222 c 256,48,49
410 704 m 256,64,65
 430 704 430 704 444 719 c 0,66,67
 458 733 458 733 458 753 c 256,68,69
 458 773 458 773 444 787 c 256,70,71
 430 801 430 801 410 801 c 256,72,73
 390 801 390 801 376 787 c 0,74,75
 361 773 361 773 361 753 c 256,76,77
 361 733 361 733 376 719 c 0,78,79
 390 704 390 704 410 704 c 256,64,65
410 223 m 256,80,81
 430 223 430 223 444 237 c 256,82,83
 458 251 458 251 458 271 c 256,84,85
 458 291 458 291 444 305 c 256,86,87
 430 319 430 319 410 319 c 256,88,89
 390 319 390 319 376 305 c 0,90,91
 361 291 361 291 361 271 c 256,92,93
 361 251 361 251 376 237 c 0,94,95
 390 223 390 223 410 223 c 256,80,81
223 736 m 256,96,97
 243 736 243 736 257 750 c 0,98,99
 272 764 272 764 272 784 c 256,100,101
 272 804 272 804 257 818 c 0,102,103
 243 832 243 832 223 832 c 256,104,105
 203 832 203 832 189 818 c 256,106,107
 175 804 175 804 175 784 c 256,108,109
 175 764 175 764 189 750 c 256,110,111
 203 736 203 736 223 736 c 256,96,97
223 191 m 256,112,113
 243 191 243 191 257 206 c 0,114,115
 272 220 272 220 272 240 c 256,116,117
 272 260 272 260 257 274 c 0,118,119
 243 288 243 288 223 288 c 256,120,121
 203 288 203 288 189 274 c 256,122,123
 175 260 175 260 175 240 c 256,124,125
 175 220 175 220 189 206 c 0,126,127
 203 191 203 191 223 191 c 256,112,113
512 966 m 0,128,129
 731 966 731 966 874 845 c 0,130,131
 1024 719 1024 719 1024 512 c 0,132,133
 1024 306 1024 306 874 179 c 0,134,135
 731 58 731 58 512 58 c 0,136,137
 294 58 294 58 150 179 c 0,138,139
 0 306 0 306 0 512 c 0,140,141
 0 719 0 719 150 845 c 0,142,143
 294 966 294 966 512 966 c 0,128,129
EndSplineSet
EndChar

StartChar: uniE01F
Encoding: 57375 57375 33
Width: 1024
GlyphClass: 2
Flags: W
LayerCount: 2
Fore
SplineSet
717 403 m 256,0,1
 761 403 761 403 793 437 c 0,2,3
 824 471 824 471 824 519 c 256,4,5
 824 567 824 567 793 601 c 0,6,7
 761 635 761 635 717 635 c 256,8,9
 673 635 673 635 641 601 c 256,10,11
 609 567 609 567 609 519 c 256,12,13
 609 471 609 471 641 437 c 256,14,15
 673 403 673 403 717 403 c 256,0,1
308 403 m 256,16,17
 352 403 352 403 384 437 c 0,18,19
 415 471 415 471 415 519 c 256,20,21
 415 567 415 567 384 601 c 0,22,23
 352 635 352 635 308 635 c 256,24,25
 264 635 264 635 232 601 c 0,26,27
 201 567 201 567 201 519 c 256,28,29
 201 471 201 471 232 437 c 0,30,31
 264 403 264 403 308 403 c 256,16,17
512 1024 m 0,32,33
 617 1024 617 1024 712 984 c 0,34,35
 804 945 804 945 874 874 c 0,36,37
 945 804 945 804 984 712 c 0,38,39
 1024 617 1024 617 1024 512 c 0,40,41
 1024 408 1024 408 984 313 c 0,42,43
 945 221 945 221 874 150 c 0,44,45
 804 79 804 79 712 40 c 0,46,47
 617 0 617 0 512 0 c 0,48,49
 408 0 408 0 313 40 c 0,50,51
 221 79 221 79 150 150 c 256,52,53
 79 221 79 221 40 313 c 0,54,55
 0 408 0 408 0 512 c 0,56,57
 0 617 0 617 40 712 c 0,58,59
 79 804 79 804 150 874 c 0,60,61
 221 945 221 945 313 984 c 0,62,63
 408 1024 408 1024 512 1024 c 0,32,33
EndSplineSet
EndChar

StartChar: uniE020
Encoding: 57376 57376 34
Width: 1024
GlyphClass: 2
Flags: W
LayerCount: 2
Fore
SplineSet
57 502 m 1,0,1
 31 513 31 513 15 536 c 0,2,3
 0 558 0 558 0 585 c 2,4,-1
 0 587 l 2,5,6
 0 615 0 615 15 638 c 0,7,8
 31 660 31 660 57 671 c 1,9,-1
 57 502 l 1,0,1
313 122 m 0,11,12
 288 122 288 122 268 137 c 0,13,14
 249 152 249 152 243 176 c 2,15,-1
 191 364 l 1,16,-1
 344 364 l 1,17,-1
 384 215 l 2,18,19
 388 203 388 203 388 193 c 0,20,21
 388 171 388 171 372 151 c 0,22,10
 350 122 350 122 313 122 c 0,11,12
993 509 m 0,24,25
 962 478 962 478 918 478 c 1,26,-1
 918 689 l 1,27,-1
 920 689 l 2,28,29
 963 689 963 689 993 659 c 0,30,31
 1024 628 1024 628 1024 585 c 0,32,23
 1024 541 1024 541 993 509 c 0,24,25
112 657 m 2,33,34
 112 690 112 690 136 714 c 0,35,36
 159 737 159 737 192 737 c 2,37,-1
 405 737 l 1,38,-1
 405 420 l 1,39,-1
 192 420 l 2,40,41
 160 420 160 420 136 443 c 0,42,43
 113 465 113 465 112 498 c 2,44,-1
 112 657 l 2,33,34
863 288 m 2,45,46
 863 273 863 273 850 265 c 0,47,48
 842 260 842 260 835 260 c 0,49,50
 829 260 829 260 823 262 c 2,51,-1
 461 407 l 1,52,-1
 461 755 l 1,53,-1
 823 900 l 2,54,55
 829 902 829 902 834 902 c 0,56,57
 842 902 842 902 850 897 c 0,58,59
 863 889 863 889 863 874 c 2,60,-1
 863 288 l 2,45,46
EndSplineSet
EndChar

StartChar: uniE021
Encoding: 57377 57377 35
Width: 1024
GlyphClass: 2
Flags: W
LayerCount: 2
Fore
SplineSet
783 930 m 0,1,2
 773 949 773 949 773 969 c 2,3,-1
 773 976 l 1,4,5
 795 965 795 965 807 943 c 0,6,7
 816 924 816 924 816 904 c 2,8,-1
 816 896 l 1,9,0
 795 907 795 907 783 930 c 0,1,2
844 877 m 0,11,12
 843 886 843 886 843 894 c 0,13,14
 843 916 843 916 852 936 c 1,15,16
 873 914 873 914 878 883 c 0,17,18
 879 874 879 874 879 866 c 0,19,20
 879 844 879 844 870 824 c 1,21,10
 849 846 849 846 844 877 c 0,11,12
907 734 m 1,22,23
 893 760 893 760 893 789 c 2,24,-1
 893 799 l 2,25,26
 896 834 896 834 917 861 c 1,27,28
 932 836 932 836 932 809 c 0,29,30
 932 802 932 802 931 796 c 0,31,32
 928 761 928 761 907 734 c 1,22,23
932 649 m 1,33,34
 926 666 926 666 926 684 c 0,35,36
 926 699 926 699 931 715 c 0,37,38
 941 749 941 749 967 772 c 1,39,40
 973 755 973 755 973 737 c 0,41,42
 973 721 973 721 968 705 c 0,43,44
 958 671 958 671 932 649 c 1,33,34
941 546 m 1,45,46
 939 557 939 557 939 569 c 0,47,48
 939 593 939 593 949 617 c 0,49,50
 963 652 963 652 994 672 c 1,51,52
 997 659 997 659 997 647 c 0,53,54
 997 624 997 624 987 601 c 0,55,56
 972 566 972 566 941 546 c 1,45,46
928 440 m 1,57,58
 928 480 928 480 952 515 c 0,59,60
 977 549 977 549 1015 563 c 1,61,62
 1014 523 1014 523 990 489 c 0,63,64
 966 454 966 454 928 440 c 1,57,58
894 341 m 1,65,66
 907 385 907 385 943 414 c 256,67,68
 979 443 979 443 1024 447 c 1,69,70
 1011 404 1011 404 975 375 c 0,71,72
 939 345 939 345 894 341 c 1,65,66
885 309 m 0,74,75
 916 322 916 322 947 322 c 0,76,77
 965 322 965 322 984 317 c 1,78,79
 955 275 955 275 906 255 c 0,80,81
 875 243 875 243 844 243 c 0,82,83
 825 243 825 243 806 247 c 1,84,73
 835 290 835 290 885 309 c 0,74,75
795 215 m 0,86,87
 813 218 813 218 830 218 c 0,88,89
 877 218 877 218 919 198 c 1,90,91
 872 154 872 154 807 144 c 0,92,93
 788 141 788 141 770 141 c 0,94,95
 724 141 724 141 683 160 c 1,96,85
 729 205 729 205 795 215 c 0,86,87
739 890 m 1,97,98
 752 898 752 898 770 902 c 1,99,100
 782 887 782 887 794 879 c 1,101,102
 788 878 788 878 780 878 c 0,103,104
 758 878 758 878 739 890 c 1,97,98
779 846 m 1,105,106
 795 853 795 853 815 853 c 2,107,-1
 824 853 l 1,108,109
 830 834 830 834 841 818 c 1,110,111
 835 818 835 818 828 819 c 0,112,113
 799 826 799 826 779 846 c 1,105,106
816 784 m 1,114,115
 824 785 824 785 833 785 c 0,116,117
 850 785 850 785 868 780 c 1,118,119
 869 768 869 768 872 755 c 0,120,121
 873 749 873 749 875 744 c 0,122,123
 876 740 876 740 878 735 c 1,124,125
 873 736 873 736 866 739 c 0,126,127
 834 754 834 754 816 784 c 1,114,115
840 720 m 1,128,129
 870 718 870 718 897 699 c 1,130,-1
 901 690 l 1,131,132
 901 678 901 678 902 666 c 0,133,134
 903 661 903 661 904 656 c 2,135,-1
 904 652 l 1,136,-1
 905 648 l 1,137,138
 890 654 890 654 878 664 c 0,139,140
 850 687 850 687 840 720 c 1,128,129
854 638 m 1,141,142
 889 632 889 632 918 607 c 1,143,144
 914 592 914 592 914 576 c 2,145,-1
 914 553 l 1,146,147
 900 562 900 562 892 569 c 0,148,149
 863 598 863 598 854 638 c 1,141,142
861 555 m 1,150,151
 895 542 895 542 920 512 c 1,152,153
 913 497 913 497 908 480 c 0,154,155
 904 467 904 467 903 454 c 1,156,157
 895 461 895 461 888 472 c 0,158,159
 862 510 862 510 861 555 c 1,150,151
861 382 m 0,160,161
 854 405 854 405 854 428 c 256,162,163
 854 451 854 451 861 474 c 1,164,165
 884 455 884 455 901 424 c 1,166,-1
 901 408 l 1,167,168
 890 395 890 395 882 379 c 0,169,170
 876 368 876 368 872 357 c 1,171,172
 865 369 865 369 861 382 c 0,160,161
789 279 m 2,173,-1
 789 283 l 2,174,175
 789 345 789 345 823 397 c 1,176,177
 844 366 844 366 854 323 c 1,178,179
 833 311 833 311 814 294 c 0,180,181
 807 287 807 287 800 280 c 0,182,183
 795 275 795 275 790 269 c 1,184,185
 789 272 789 272 789 279 c 2,173,-1
689 199 m 1,186,-1
 690 204 l 1,187,-1
 691 209 l 2,188,189
 704 273 704 273 750 317 c 1,190,191
 764 281 764 281 764 235 c 1,192,193
 743 228 743 228 721 218 c 0,194,195
 705 209 705 209 689 199 c 1,186,-1
552 139 m 1,196,197
 557 152 557 152 564 162 c 0,198,199
 588 202 588 202 631 233 c 0,200,201
 653 248 653 248 669 256 c 1,202,-1
 669 246 l 2,203,204
 669 211 669 211 657 171 c 1,205,-1
 642 157 l 1,206,207
 617 156 617 156 591 151 c 0,208,209
 571 147 571 147 552 139 c 1,196,197
803 75 m 1,211,212
 787 67 787 67 761 60 c 0,213,214
 739 53 739 53 717 50 c 0,215,216
 704 49 704 49 690 49 c 0,217,218
 677 49 677 49 664 50 c 0,219,220
 591 58 591 58 535 105 c 1,221,222
 552 113 552 113 577 121 c 0,223,224
 615 132 615 132 651 132 c 0,225,226
 663 132 663 132 674 131 c 0,227,210
 748 122 748 122 803 75 c 1,211,212
208 896 m 1,229,-1
 208 903 l 2,230,231
 208 924 208 924 217 943 c 0,232,233
 229 965 229 965 251 976 c 1,234,-1
 251 969 l 2,235,236
 251 949 251 949 241 930 c 0,237,228
 229 907 229 907 208 896 c 1,229,-1
154 824 m 1,239,240
 146 844 146 844 146 865 c 0,241,242
 146 874 146 874 147 883 c 0,243,244
 151 914 151 914 173 936 c 1,245,246
 182 916 182 916 182 894 c 0,247,248
 182 886 182 886 181 877 c 0,249,238
 175 846 175 846 154 824 c 1,239,240
131 799 m 2,250,-1
 131 789 l 2,251,252
 131 760 131 760 117 734 c 1,253,254
 96 761 96 761 93 795 c 2,255,-1
 93 806 l 2,256,257
 93 836 93 836 107 861 c 1,258,259
 128 834 128 834 131 799 c 2,250,-1
93 715 m 0,260,261
 98 699 98 699 98 684 c 0,262,263
 98 666 98 666 92 649 c 1,264,265
 65 671 65 671 56 705 c 0,266,267
 51 721 51 721 51 737 c 0,268,269
 51 754 51 754 57 771 c 1,270,271
 83 749 83 749 93 715 c 0,260,261
75 618 m 0,272,273
 85 593 85 593 85 569 c 0,274,275
 85 557 85 557 83 546 c 1,276,277
 52 567 52 567 37 601 c 0,278,279
 28 624 28 624 28 649 c 0,280,281
 28 661 28 661 30 673 c 1,282,283
 61 652 61 652 75 618 c 0,272,273
72 515 m 256,284,285
 96 481 96 481 96 440 c 1,286,287
 58 455 58 455 34 489 c 256,288,289
 10 523 10 523 9 564 c 1,290,291
 48 549 48 549 72 515 c 256,284,285
81 414 m 256,292,293
 117 385 117 385 130 342 c 1,294,295
 85 346 85 346 49 375 c 256,296,297
 13 404 13 404 0 447 c 1,298,299
 45 443 45 443 81 414 c 256,292,293
218 247 m 1,301,302
 199 243 199 243 181 243 c 0,303,304
 149 243 149 243 118 255 c 0,305,306
 69 275 69 275 40 317 c 1,307,308
 59 322 59 322 77 322 c 0,309,310
 108 322 108 322 139 309 c 0,311,300
 189 290 189 290 218 247 c 1,301,302
341 160 m 1,313,314
 299 141 299 141 254 141 c 0,315,316
 236 141 236 141 217 144 c 0,317,318
 152 154 152 154 105 198 c 1,319,320
 148 218 148 218 194 218 c 0,321,322
 211 218 211 218 229 215 c 0,323,312
 294 205 294 205 341 160 c 1,313,314
254 902 m 1,324,325
 272 898 272 898 285 890 c 1,326,327
 266 878 266 878 244 878 c 0,328,329
 236 878 236 878 230 879 c 1,330,331
 242 887 242 887 254 902 c 1,324,325
200 853 m 1,332,-1
 209 853 l 2,333,334
 229 853 229 853 245 846 c 1,335,336
 225 826 225 826 196 819 c 0,337,338
 189 818 189 818 183 818 c 1,339,340
 194 834 194 834 200 853 c 1,332,-1
156 780 m 1,341,342
 174 785 174 785 191 785 c 0,343,344
 200 785 200 785 208 784 c 1,345,346
 190 754 190 754 158 739 c 0,347,348
 151 736 151 736 146 735 c 1,349,350
 148 740 148 740 149 744 c 0,351,352
 151 749 151 749 152 755 c 0,353,354
 155 768 155 768 156 780 c 1,341,342
127 699 m 1,355,356
 154 718 154 718 184 720 c 1,357,358
 174 687 174 687 146 664 c 0,359,360
 134 654 134 654 119 648 c 1,361,-1
 120 652 l 1,362,-1
 120 656 l 2,363,364
 121 661 121 661 122 666 c 0,365,366
 123 678 123 678 123 690 c 1,367,-1
 127 699 l 1,355,356
106 607 m 1,368,369
 135 632 135 632 170 638 c 1,370,371
 161 598 161 598 132 569 c 0,372,373
 124 562 124 562 110 553 c 1,374,375
 111 563 111 563 111 576 c 0,376,377
 110 592 110 592 106 607 c 1,368,369
104 512 m 1,378,379
 129 542 129 542 163 555 c 1,380,381
 162 510 162 510 136 472 c 0,382,383
 129 461 129 461 121 454 c 1,384,385
 120 467 120 467 116 480 c 0,386,387
 111 497 111 497 104 512 c 1,378,379
163 474 m 1,388,389
 170 451 170 451 170 428 c 256,390,391
 170 405 170 405 163 382 c 0,392,393
 159 369 159 369 152 357 c 1,394,395
 148 368 148 368 142 379 c 0,396,397
 134 395 134 395 123 408 c 1,398,-1
 123 424 l 1,399,400
 140 455 140 455 163 474 c 1,388,389
201 397 m 1,401,402
 235 345 235 345 235 283 c 2,403,-1
 235 279 l 2,404,405
 235 272 235 272 234 269 c 1,406,407
 229 275 229 275 224 280 c 0,408,409
 217 287 217 287 210 294 c 0,410,411
 191 311 191 311 170 323 c 1,412,413
 180 366 180 366 201 397 c 1,401,402
333 209 m 2,414,-1
 334 204 l 1,415,-1
 335 199 l 1,416,417
 319 209 319 209 303 218 c 0,418,419
 281 228 281 228 260 235 c 1,420,421
 260 281 260 281 274 317 c 1,422,423
 320 273 320 273 333 209 c 2,414,-1
460 162 m 0,424,425
 467 152 467 152 472 139 c 1,426,427
 453 147 453 147 433 151 c 0,428,429
 407 156 407 156 382 157 c 1,430,-1
 367 171 l 1,431,432
 355 211 355 211 355 246 c 2,433,-1
 355 256 l 1,434,435
 421 226 421 226 460 162 c 0,424,425
451 80 m 0,437,438
 405 54 405 54 359 49 c 0,439,440
 346 48 346 48 333 48 c 0,441,442
 274 48 274 48 221 75 c 1,443,444
 234 87 234 87 257 100 c 0,445,446
 278 111 278 111 298 118 c 0,447,448
 324 127 324 127 350 130 c 0,449,450
 364 132 364 132 379 132 c 0,451,452
 436 132 436 132 488 105 c 1,453,436
 474 93 474 93 451 80 c 0,437,438
EndSplineSet
EndChar

StartChar: uniE022
Encoding: 57378 57378 36
Width: 1024
GlyphClass: 2
Flags: W
LayerCount: 2
Fore
SplineSet
594 486 m 1,0,-1
 674 565 l 1,1,-1
 562 582 l 1,2,-1
 512 683 l 1,3,-1
 462 582 l 1,4,-1
 350 565 l 1,5,-1
 431 486 l 1,6,-1
 412 375 l 1,7,-1
 512 427 l 1,8,-1
 612 375 l 1,9,-1
 594 486 l 1,0,-1
512 790 m 256,10,11
 627 790 627 790 708 708 c 0,12,13
 790 627 790 627 790 512 c 256,14,15
 790 397 790 397 708 316 c 0,16,17
 627 235 627 235 512 235 c 256,18,19
 397 235 397 235 316 316 c 256,20,21
 235 397 235 397 235 512 c 256,22,23
 235 627 235 627 316 708 c 0,24,25
 397 790 397 790 512 790 c 256,10,11
512 178 m 256,26,27
 650 178 650 178 749 276 c 0,28,29
 847 374 847 374 847 512 c 256,30,31
 847 650 847 650 749 749 c 0,32,33
 650 847 650 847 512 847 c 256,34,35
 374 847 374 847 276 749 c 0,36,37
 178 650 178 650 178 512 c 256,38,39
 178 374 178 374 276 276 c 256,40,41
 374 178 374 178 512 178 c 256,26,27
963 627 m 0,42,43
 977 612 977 612 985 603 c 0,44,45
 997 590 997 590 1005 577 c 0,46,47
 1024 545 1024 545 1024 512 c 0,48,49
 1024 477 1024 477 1003 444 c 0,50,51
 995 431 995 431 983 416 c 2,52,-1
 972 403 l 1,53,-1
 961 391 l 2,54,55
 928 355 928 355 920 336 c 0,56,57
 914 320 914 320 913 274 c 2,58,-1
 912 258 l 1,59,-1
 911 242 l 2,60,61
 910 224 910 224 907 210 c 0,62,63
 898 173 898 173 874 150 c 0,64,65
 849 126 849 126 811 117 c 0,66,67
 796 113 796 113 777 111 c 0,68,69
 765 110 765 110 744 109 c 2,70,-1
 725 108 l 2,71,72
 715 107 715 107 707 106 c 0,73,74
 688 104 688 104 677 99 c 0,75,76
 660 93 660 93 627 61 c 2,77,-1
 616 50 l 1,78,-1
 604 40 l 2,79,80
 590 28 590 28 577 20 c 0,81,82
 546 0 546 0 513 0 c 2,83,-1
 512 0 l 2,84,85
 477 1 477 1 444 21 c 0,86,87
 431 29 431 29 416 41 c 2,88,-1
 403 52 l 1,89,-1
 391 63 l 2,90,91
 354 97 354 97 336 104 c 0,92,93
 320 111 320 111 274 112 c 0,94,95
 254 112 254 112 242 113 c 0,96,97
 224 115 224 115 210 118 c 0,98,99
 173 127 173 127 150 150 c 0,100,101
 126 175 126 175 117 213 c 0,102,103
 113 228 113 228 111 247 c 2,104,-1
 110 264 l 1,105,-1
 109 281 l 2,106,107
 107 330 107 330 99 348 c 256,108,109
 91 366 91 366 61 397 c 2,110,-1
 50 409 l 1,111,-1
 39 421 l 2,112,113
 27 435 27 435 20 448 c 0,114,115
 0 478 0 478 0 511 c 2,116,-1
 0 513 l 2,117,118
 1 547 1 547 21 580 c 0,119,120
 29 593 29 593 41 608 c 2,121,-1
 52 621 l 1,122,-1
 63 633 l 2,123,124
 96 669 96 669 104 688 c 0,125,126
 111 704 111 704 112 750 c 2,127,-1
 112 766 l 1,128,-1
 113 782 l 2,129,130
 115 801 115 801 118 815 c 0,131,132
 126 851 126 851 150 875 c 0,133,134
 175 899 175 899 213 908 c 0,135,136
 228 911 228 911 247 913 c 2,137,-1
 264 915 l 1,138,-1
 281 915 l 2,139,140
 330 918 330 918 348 925 c 0,141,142
 364 932 364 932 397 963 c 2,143,-1
 409 974 l 1,144,-1
 421 985 l 2,145,146
 435 997 435 997 447 1004 c 0,147,148
 478 1024 478 1024 511 1024 c 2,149,-1
 513 1024 l 2,150,151
 547 1024 547 1024 580 1003 c 0,152,153
 593 995 593 995 608 983 c 2,154,-1
 621 972 l 1,155,-1
 633 961 l 2,156,157
 670 928 670 928 688 921 c 0,158,159
 704 914 704 914 750 913 c 2,160,-1
 766 912 l 1,161,-1
 782 911 l 2,162,163
 801 910 801 910 815 907 c 0,164,165
 851 898 851 898 875 874 c 0,166,167
 899 849 899 849 908 811 c 0,168,169
 911 796 911 796 913 777 c 2,170,-1
 915 760 l 1,171,-1
 915 744 l 2,172,173
 918 694 918 694 925 677 c 0,174,175
 933 658 933 658 963 627 c 0,42,43
EndSplineSet
EndChar

StartChar: uniE023
Encoding: 57379 57379 37
Width: 931
GlyphClass: 2
Flags: W
LayerCount: 2
Fore
SplineSet
551 794 m 1,0,1
 509 806 509 806 466 806 c 256,2,3
 423 806 423 806 381 794 c 1,4,-1
 381 967 l 2,5,6
 381 990 381 990 397 1007 c 0,7,8
 414 1024 414 1024 437 1024 c 2,9,-1
 494 1024 l 2,10,11
 517 1024 517 1024 534 1007 c 256,12,13
 551 990 551 990 551 967 c 2,14,-1
 551 794 l 1,0,1
848 0 m 1,15,-1
 676 0 l 1,16,-1
 707 344 l 1,17,18
 760 420 760 420 760 512 c 0,19,20
 760 579 760 579 732 636 c 1,21,-1
 761 972 l 2,22,23
 763 996 763 996 782 1011 c 0,24,25
 798 1024 798 1024 819 1024 c 2,26,-1
 823 1024 l 1,27,-1
 879 1019 l 2,28,29
 903 1017 903 1017 918 999 c 0,30,31
 931 983 931 983 931 963 c 2,32,-1
 931 958 l 1,33,-1
 848 0 l 1,15,-1
255 0 m 1,34,-1
 84 0 l 1,35,36
 0 961 0 961 0 964 c 0,37,38
 0 984 0 984 13 999 c 0,39,40
 28 1017 28 1017 52 1019 c 2,41,-1
 108 1024 l 1,42,-1
 113 1024 l 2,43,44
 133 1024 133 1024 150 1011 c 0,45,46
 168 996 168 996 170 973 c 2,47,-1
 199 636 l 1,48,49
 171 579 171 579 171 512 c 0,50,51
 171 420 171 420 225 344 c 1,52,-1
 255 0 l 1,34,-1
660 376 m 0,54,55
 619 316 619 316 551 290 c 0,56,57
 509 274 509 274 466 274 c 0,58,59
 420 274 420 274 381 291 c 0,60,61
 313 316 313 316 271 376 c 0,62,63
 228 437 228 437 228 512 c 256,64,65
 228 587 228 587 271 648 c 0,66,67
 313 708 313 708 381 733 c 0,68,69
 420 750 420 750 466 750 c 0,70,71
 509 750 509 750 551 734 c 0,72,73
 619 708 619 708 660 648 c 0,74,75
 703 587 703 587 703 512 c 256,76,53
 703 437 703 437 660 376 c 0,54,55
EndSplineSet
EndChar

StartChar: uniE024
Encoding: 57380 57380 38
Width: 1024
GlyphClass: 2
Flags: W
LayerCount: 2
Fore
SplineSet
922 433 m 256,0,1
 941 433 941 433 954 456 c 256,2,3
 967 479 967 479 967 512 c 256,4,5
 967 545 967 545 954 568 c 256,6,7
 941 591 941 591 922 591 c 256,8,9
 903 591 903 591 890 568 c 256,10,11
 877 545 877 545 877 512 c 256,12,13
 877 479 877 479 890 456 c 256,14,15
 903 433 903 433 922 433 c 256,0,1
867 768 m 0,17,18
 867 776 867 776 864 785 c 0,19,20
 857 811 857 811 834 834 c 256,21,22
 811 857 811 857 785 864 c 0,23,24
 776 867 776 867 768 867 c 0,25,26
 755 867 755 867 746 858 c 256,27,28
 737 849 737 849 737 836 c 0,29,30
 737 828 737 828 740 819 c 0,31,32
 747 793 747 793 770 770 c 256,33,34
 793 747 793 747 819 740 c 0,35,36
 828 737 828 737 836 737 c 0,37,38
 849 737 849 737 858 746 c 256,39,16
 867 755 867 755 867 768 c 0,17,18
834 190 m 0,40,41
 857 214 857 214 864 239 c 0,42,43
 867 248 867 248 867 256 c 0,44,45
 867 270 867 270 858 278 c 0,46,47
 849 287 849 287 835 287 c 0,48,49
 828 287 828 287 819 285 c 0,50,51
 793 278 793 278 770 254 c 0,52,53
 747 231 747 231 740 205 c 0,54,55
 737 196 737 196 737 189 c 0,56,57
 737 175 737 175 746 166 c 0,58,59
 755 158 755 158 768 158 c 0,60,61
 776 158 776 158 785 160 c 0,62,63
 811 167 811 167 834 190 c 0,40,41
648 346 m 0,64,65
 680 346 680 346 704 369 c 0,66,67
 727 392 727 392 727 425 c 0,68,69
 727 457 727 457 704 480 c 0,70,71
 680 503 680 503 648 503 c 0,72,73
 615 503 615 503 592 480 c 0,74,75
 568 457 568 457 568 425 c 0,76,77
 568 392 568 392 592 369 c 0,78,79
 615 346 615 346 648 346 c 0,64,65
512 57 m 256,80,81
 545 57 545 57 568 70 c 0,82,83
 591 84 591 84 591 102 c 0,84,85
 591 121 591 121 568 134 c 0,86,87
 545 148 545 148 512 148 c 256,88,89
 479 148 479 148 456 134 c 0,90,91
 433 121 433 121 433 102 c 0,92,93
 433 84 433 84 456 70 c 0,94,95
 479 57 479 57 512 57 c 256,80,81
377 346 m 256,96,97
 410 346 410 346 433 369 c 256,98,99
 456 392 456 392 456 425 c 0,100,101
 456 457 456 457 433 480 c 256,102,103
 410 503 410 503 377 503 c 256,104,105
 344 503 344 503 321 480 c 256,106,107
 298 457 298 457 298 425 c 0,108,109
 298 392 298 392 321 369 c 256,110,111
 344 346 344 346 377 346 c 256,96,97
255 770 m 0,112,113
 278 793 278 793 285 819 c 0,114,115
 287 828 287 828 287 835 c 0,116,117
 287 849 287 849 278 858 c 0,118,119
 270 867 270 867 256 867 c 0,120,121
 248 867 248 867 239 864 c 0,122,123
 214 857 214 857 190 834 c 0,124,125
 167 811 167 811 160 785 c 0,126,127
 158 776 158 776 158 768 c 0,128,129
 158 755 158 755 166 746 c 0,130,131
 175 737 175 737 189 737 c 0,132,133
 196 737 196 737 205 740 c 0,134,135
 231 747 231 747 255 770 c 0,112,113
287 189 m 0,137,138
 287 197 287 197 285 205 c 0,139,140
 278 231 278 231 255 254 c 0,141,142
 231 278 231 278 205 285 c 0,143,144
 197 287 197 287 189 287 c 0,145,146
 175 287 175 287 166 278 c 0,147,148
 158 270 158 270 158 256 c 0,149,150
 158 248 158 248 160 239 c 0,151,152
 167 214 167 214 190 190 c 0,153,154
 214 167 214 167 239 160 c 0,155,156
 248 158 248 158 256 158 c 0,157,158
 270 158 270 158 278 166 c 0,159,136
 287 175 287 175 287 189 c 0,137,138
512 737 m 256,160,161
 479 737 479 737 456 714 c 256,162,163
 433 691 433 691 433 659 c 0,164,165
 433 626 433 626 456 603 c 256,166,167
 479 580 479 580 512 580 c 256,168,169
 545 580 545 580 568 603 c 256,170,171
 591 626 591 626 591 659 c 0,172,173
 591 691 591 691 568 714 c 256,174,175
 545 737 545 737 512 737 c 256,160,161
512 967 m 256,176,177
 479 967 479 967 456 954 c 256,178,179
 433 941 433 941 433 922 c 0,180,181
 433 904 433 904 456 890 c 0,182,183
 479 877 479 877 512 877 c 256,184,185
 545 877 545 877 568 890 c 0,186,187
 591 904 591 904 591 922 c 0,188,189
 591 941 591 941 568 954 c 256,190,191
 545 967 545 967 512 967 c 256,176,177
102 433 m 0,192,193
 121 433 121 433 134 456 c 0,194,195
 148 479 148 479 148 512 c 256,196,197
 148 545 148 545 134 568 c 0,198,199
 121 591 121 591 102 591 c 0,200,201
 84 591 84 591 70 568 c 0,202,203
 57 545 57 545 57 512 c 256,204,205
 57 479 57 479 70 456 c 0,206,207
 84 433 84 433 102 433 c 0,192,193
512 1024 m 0,208,209
 617 1024 617 1024 712 984 c 0,210,211
 804 945 804 945 874 874 c 0,212,213
 945 804 945 804 984 712 c 0,214,215
 1024 617 1024 617 1024 512 c 0,216,217
 1024 408 1024 408 984 313 c 0,218,219
 945 221 945 221 874 150 c 0,220,221
 804 79 804 79 712 41 c 0,222,223
 617 0 617 0 512 0 c 0,224,225
 408 0 408 0 313 41 c 0,226,227
 221 79 221 79 150 150 c 256,228,229
 79 221 79 221 40 313 c 0,230,231
 0 408 0 408 0 512 c 0,232,233
 0 617 0 617 40 712 c 0,234,235
 79 804 79 804 150 874 c 0,236,237
 221 945 221 945 313 984 c 0,238,239
 408 1024 408 1024 512 1024 c 0,208,209
EndSplineSet
EndChar

StartChar: uniE025
Encoding: 57381 57381 39
Width: 1024
GlyphClass: 2
Flags: W
LayerCount: 2
Fore
SplineSet
206 339 m 2,0,1
 226 277 226 277 288 257 c 1,2,3
 240 212 240 212 173 212 c 0,4,5
 101 212 101 212 50 263 c 0,6,7
 0 313 0 313 0 384 c 0,8,9
 0 438 0 438 29 480 c 1,10,-1
 39 477 l 1,11,-1
 148 445 l 2,12,13
 174 438 174 438 183 412 c 2,14,-1
 206 339 l 2,0,1
852 263 m 0,15,16
 902 263 902 263 938 299 c 0,17,18
 973 334 973 334 973 384 c 0,19,20
 973 435 973 435 938 470 c 0,21,22
 902 506 902 506 852 506 c 0,23,24
 835 506 835 506 816 500 c 1,25,-1
 874 399 l 2,26,27
 877 393 877 393 877 387 c 0,28,29
 877 383 877 383 876 379 c 0,30,31
 874 369 874 369 865 364 c 0,32,33
 859 360 859 360 852 360 c 0,34,35
 849 360 849 360 846 361 c 0,36,37
 835 364 835 364 830 373 c 2,38,-1
 771 475 l 1,39,40
 731 438 731 438 730 384 c 0,41,42
 730 334 730 334 766 299 c 0,43,44
 801 263 801 263 852 263 c 0,15,16
852 557 m 0,45,46
 923 557 923 557 974 506 c 0,47,48
 1024 456 1024 456 1024 384 c 0,49,50
 1024 313 1024 313 974 262 c 0,51,52
 923 212 923 212 852 212 c 0,53,54
 780 212 780 212 730 262 c 0,55,56
 679 313 679 313 679 384 c 0,57,58
 679 467 679 467 745 520 c 1,59,-1
 718 567 l 1,60,-1
 677 530 l 2,61,62
 599 461 599 461 576 358 c 0,63,64
 571 334 571 334 551 319 c 0,65,66
 532 304 532 304 507 304 c 2,67,-1
 325 304 l 2,68,69
 301 305 301 305 282 319 c 256,70,71
 263 333 263 333 256 355 c 2,72,-1
 232 428 l 2,73,74
 216 480 216 480 162 497 c 2,75,-1
 70 523 l 1,76,-1
 54 527 l 1,77,-1
 54 561 l 1,78,-1
 183 587 l 2,79,80
 230 594 230 594 275 594 c 1,81,-1
 416 557 l 1,82,-1
 664 661 l 1,83,-1
 625 728 l 2,84,85
 615 744 615 744 596 751 c 2,86,-1
 447 799 l 1,87,-1
 447 812 l 1,88,-1
 587 793 l 1,89,-1
 618 789 l 2,90,91
 651 784 651 784 668 755 c 2,92,-1
 688 722 l 1,93,-1
 711 681 l 1,94,-1
 763 703 l 1,95,-1
 801 641 l 1,96,-1
 757 602 l 1,97,-1
 789 545 l 1,98,99
 821 557 821 557 852 557 c 0,45,46
416 593 m 1,100,-1
 278 631 l 1,101,102
 286 648 286 648 307 655 c 0,103,104
 313 657 313 657 321 657 c 0,105,106
 336 657 336 657 354 649 c 0,107,108
 374 642 374 642 397 640 c 0,109,110
 406 639 406 639 418 639 c 2,111,-1
 438 639 l 1,112,-1
 529 640 l 1,113,-1
 416 593 l 1,100,-1
EndSplineSet
EndChar

StartChar: uniE026
Encoding: 57382 57382 40
Width: 1024
GlyphClass: 2
Flags: W
LayerCount: 2
Fore
SplineSet
699 538 m 1,0,-1
 699 582 l 2,1,2
 699 593 699 593 691 601 c 0,3,4
 683 608 683 608 672 608 c 256,5,6
 661 608 661 608 653 601 c 0,7,8
 646 593 646 593 646 582 c 2,9,-1
 646 538 l 1,10,-1
 539 538 l 1,11,-1
 539 582 l 2,12,13
 539 593 539 593 531 601 c 0,14,15
 523 608 523 608 512 608 c 256,16,17
 501 608 501 608 494 601 c 0,18,19
 486 593 486 593 486 582 c 2,20,-1
 486 538 l 1,21,-1
 379 538 l 1,22,-1
 379 582 l 2,23,24
 379 593 379 593 372 601 c 0,25,26
 364 608 364 608 353 608 c 256,27,28
 342 608 342 608 334 601 c 0,29,30
 327 593 327 593 327 582 c 2,31,-1
 327 538 l 1,32,-1
 26 538 l 2,33,34
 11 538 11 538 3 552 c 0,35,36
 0 559 0 559 0 565 c 0,37,38
 0 572 0 572 5 580 c 0,39,40
 66 676 66 676 199 755 c 0,41,42
 355 847 355 847 512 847 c 0,43,44
 670 847 670 847 825 755 c 0,45,46
 959 676 959 676 1019 580 c 0,47,48
 1024 572 1024 572 1024 565 c 0,49,50
 1024 559 1024 559 1021 552 c 0,51,52
 1013 538 1013 538 997 538 c 2,53,-1
 699 538 l 1,0,-1
997 485 m 2,54,55
 1013 485 1013 485 1020 471 c 0,56,57
 1024 464 1024 464 1024 458 c 0,58,59
 1024 451 1024 451 1019 444 c 0,60,61
 958 347 958 347 825 269 c 0,62,63
 670 177 670 177 512 177 c 0,64,65
 355 177 355 177 200 269 c 0,66,67
 67 347 67 347 5 444 c 0,68,69
 0 451 0 451 0 458 c 256,70,71
 0 465 0 465 4 471 c 0,72,73
 11 485 11 485 27 485 c 2,74,-1
 326 485 l 1,75,-1
 326 442 l 2,76,77
 326 431 326 431 334 423 c 0,78,79
 341 415 341 415 352 415 c 256,80,81
 363 415 363 415 371 423 c 256,82,83
 379 431 379 431 379 442 c 2,84,-1
 379 485 l 1,85,-1
 485 485 l 1,86,-1
 485 442 l 2,87,88
 485 431 485 431 493 423 c 256,89,90
 501 415 501 415 512 415 c 256,91,92
 523 415 523 415 530 423 c 0,93,94
 538 431 538 431 538 442 c 2,95,-1
 538 485 l 1,96,-1
 644 485 l 1,97,-1
 644 442 l 2,98,99
 644 431 644 431 652 423 c 256,100,101
 660 415 660 415 671 415 c 256,102,103
 682 415 682 415 690 423 c 0,104,105
 697 431 697 431 697 442 c 2,106,-1
 697 485 l 1,107,-1
 997 485 l 2,54,55
EndSplineSet
EndChar

StartChar: uniE027
Encoding: 57383 57383 41
Width: 1024
GlyphClass: 2
Flags: W
LayerCount: 2
Fore
SplineSet
144 88 m 2,0,1
 106 50 106 50 86 15 c 2,2,-1
 84 11 l 2,3,4
 83 8 83 8 81 7 c 0,5,6
 77 2 77 2 69 0 c 2,7,-1
 67 0 l 2,8,9
 52 0 52 0 28 27 c 1,10,11
 0 52 0 52 0 67 c 2,12,-1
 0 69 l 2,13,14
 2 77 2 77 6 81 c 0,15,16
 8 83 8 83 11 85 c 2,17,-1
 15 88 l 1,18,19
 49 107 49 107 87 145 c 2,20,-1
 186 242 l 1,21,-1
 241 186 l 1,22,-1
 144 88 l 2,0,1
349 449 m 0,23,24
 344 457 344 457 335 457 c 0,25,26
 332 457 332 457 328 456 c 0,27,28
 314 451 314 451 312 437 c 2,29,-1
 288 314 l 2,30,31
 287 311 287 311 287 309 c 0,32,33
 287 301 287 301 294 294 c 256,34,35
 301 287 301 287 310 287 c 0,36,37
 312 287 312 287 315 288 c 2,38,-1
 438 312 l 2,39,40
 451 315 451 315 456 328 c 0,41,42
 457 332 457 332 457 335 c 0,43,44
 457 344 457 344 450 349 c 0,45,46
 444 354 444 354 422 366 c 0,47,48
 387 387 387 387 366 423 c 0,49,50
 355 443 355 443 349 449 c 0,23,24
685 879 m 0,51,52
 695 870 695 870 709 870 c 256,53,54
 723 870 723 870 733 879 c 0,55,56
 743 890 743 890 743 904 c 256,57,58
 743 918 743 918 734 928 c 0,59,60
 723 938 723 938 709 938 c 256,61,62
 695 938 695 938 685 928 c 256,63,64
 675 918 675 918 675 904 c 0,65,66
 675 889 675 889 685 879 c 0,51,52
587 782 m 256,67,68
 597 772 597 772 612 772 c 0,69,70
 626 772 626 772 636 782 c 256,71,72
 646 792 646 792 646 806 c 256,73,74
 646 820 646 820 636 830 c 0,75,76
 626 841 626 841 612 841 c 2,77,-1
 610 841 l 2,78,79
 597 841 597 841 587 831 c 0,80,81
 578 821 578 821 577 807 c 0,82,83
 577 792 577 792 587 782 c 256,67,68
490 685 m 256,84,85
 500 675 500 675 514 675 c 0,86,87
 529 675 529 675 538 685 c 0,88,89
 548 695 548 695 548 709 c 0,90,91
 548 724 548 724 539 734 c 0,92,93
 528 744 528 744 514 744 c 256,94,95
 500 744 500 744 490 734 c 256,96,97
 480 724 480 724 480 709 c 0,98,99
 480 695 480 695 490 685 c 256,84,85
392 587 m 256,100,101
 402 577 402 577 416 577 c 0,102,103
 431 577 431 577 441 587 c 256,104,105
 451 597 451 597 451 612 c 2,106,-1
 451 613 l 2,107,108
 451 627 451 627 441 636 c 0,109,110
 431 646 431 646 417 646 c 256,111,112
 403 646 403 646 392 636 c 0,113,114
 382 626 382 626 382 612 c 0,115,116
 382 597 382 597 392 587 c 256,100,101
514 870 m 0,118,119
 529 870 529 870 539 880 c 0,120,121
 549 889 549 889 549 903 c 2,122,-1
 549 905 l 2,123,124
 548 919 548 919 539 929 c 0,125,126
 528 939 528 939 514 939 c 256,127,128
 500 939 500 939 490 929 c 256,129,130
 480 919 480 919 480 904 c 2,131,-1
 480 903 l 2,132,133
 480 890 480 890 490 880 c 256,134,117
 500 870 500 870 514 870 c 0,118,119
392 783 m 0,135,136
 402 772 402 772 417 772 c 0,137,138
 431 772 431 772 441 783 c 0,139,140
 451 793 451 793 451 807 c 0,141,142
 451 822 451 822 441 832 c 0,143,144
 432 841 432 841 418 841 c 2,145,-1
 417 841 l 2,146,147
 403 841 403 841 392 831 c 0,148,149
 382 821 382 821 382 807 c 256,150,151
 382 793 382 793 392 783 c 0,135,136
539 539 m 0,152,153
 528 549 528 549 514 549 c 256,154,155
 500 549 500 549 490 539 c 256,156,157
 480 529 480 529 480 514 c 2,158,-1
 480 513 l 2,159,160
 480 499 480 499 490 490 c 0,161,162
 499 480 499 480 514 480 c 256,163,164
 529 480 529 480 539 490 c 256,165,166
 549 500 549 500 549 514 c 0,167,168
 548 529 548 529 539 539 c 0,152,153
636 636 m 256,169,170
 626 646 626 646 612 646 c 0,171,172
 597 646 597 646 587 636 c 256,173,174
 577 626 577 626 577 612 c 256,175,176
 577 598 577 598 587 588 c 0,177,178
 598 577 598 577 612 577 c 256,179,180
 626 577 626 577 636 587 c 256,181,182
 646 597 646 597 646 612 c 0,183,184
 646 626 646 626 636 636 c 256,169,170
734 733 m 0,185,186
 723 743 723 743 709 744 c 0,187,188
 695 744 695 744 685 733 c 0,189,190
 675 723 675 723 675 709 c 0,191,192
 675 694 675 694 685 684 c 256,193,194
 695 674 695 674 710 674 c 0,195,196
 724 674 724 674 734 684 c 256,197,198
 744 694 744 694 744 707 c 2,199,-1
 744 709 l 2,200,201
 744 723 744 723 734 733 c 0,185,186
832 831 m 0,202,203
 821 841 821 841 807 841 c 0,204,205
 792 841 792 841 783 831 c 0,206,207
 773 821 773 821 773 807 c 2,208,-1
 773 805 l 2,209,210
 773 792 773 792 783 782 c 0,211,212
 792 772 792 772 807 772 c 256,213,214
 822 772 822 772 832 782 c 0,215,216
 841 792 841 792 841 805 c 2,217,-1
 841 807 l 2,218,219
 841 821 841 821 832 831 c 0,202,203
636 441 m 256,220,221
 626 451 626 451 612 451 c 256,222,223
 598 451 598 451 588 441 c 256,224,225
 578 431 578 431 577 417 c 0,226,227
 577 403 577 403 587 392 c 0,228,229
 597 383 597 383 612 383 c 256,230,231
 627 383 627 383 636 392 c 0,232,233
 646 403 646 403 646 417 c 256,234,235
 646 431 646 431 636 441 c 256,220,221
734 539 m 256,236,237
 724 549 724 549 709 549 c 0,238,239
 695 549 695 549 685 539 c 256,240,241
 675 529 675 529 675 515 c 0,242,243
 675 500 675 500 685 490 c 256,244,245
 695 480 695 480 709 480 c 0,246,247
 724 480 724 480 734 490 c 256,248,249
 744 500 744 500 744 514 c 0,250,251
 744 529 744 529 734 539 c 256,236,237
831 636 m 256,252,253
 821 646 821 646 807 646 c 256,254,255
 793 646 793 646 783 636 c 256,256,257
 773 626 773 626 773 611 c 2,258,-1
 773 610 l 2,259,260
 773 597 773 597 783 587 c 0,261,262
 792 577 792 577 807 577 c 256,263,264
 822 577 822 577 832 587 c 0,265,266
 841 597 841 597 841 610 c 2,267,-1
 841 612 l 2,268,269
 841 626 841 626 831 636 c 256,252,253
929 734 m 256,270,271
 919 744 919 744 904 744 c 0,272,273
 890 744 890 744 880 734 c 0,274,275
 870 723 870 723 870 709 c 256,276,277
 870 695 870 695 880 685 c 256,278,279
 890 675 890 675 904 675 c 0,280,281
 919 675 919 675 929 685 c 256,282,283
 939 695 939 695 939 709 c 0,284,285
 939 724 939 724 929 734 c 256,270,271
832 441 m 0,286,287
 821 451 821 451 807 451 c 0,288,289
 792 451 792 451 782 441 c 256,290,291
 772 431 772 431 772 417 c 0,292,293
 772 402 772 402 783 392 c 0,294,295
 792 382 792 382 807 382 c 0,296,297
 821 382 821 382 831 392 c 256,298,299
 841 402 841 402 841 417 c 0,300,301
 841 431 841 431 832 441 c 0,286,287
929 538 m 0,302,303
 918 548 918 548 904 548 c 2,304,-1
 903 548 l 2,305,306
 889 548 889 548 880 538 c 0,307,308
 870 528 870 528 870 514 c 0,309,310
 870 499 870 499 880 489 c 0,311,312
 890 480 890 480 904 480 c 0,313,314
 919 480 919 480 929 490 c 256,315,316
 939 500 939 500 939 514 c 256,317,318
 939 528 939 528 929 538 c 0,302,303
223 284 m 1,319,320
 248 324 248 324 260 410 c 0,321,322
 263 435 263 435 269 491 c 0,323,324
 271 519 271 519 273 534 c 0,325,326
 276 558 276 558 278 578 c 0,327,328
 292 686 292 686 321 762 c 0,329,330
 358 861 358 861 429 932 c 0,331,332
 521 1024 521 1024 637 1024 c 2,333,-1
 648 1024 l 1,334,335
 779 1019 779 1019 899 899 c 256,336,337
 1019 779 1019 779 1024 648 c 1,338,-1
 1024 637 l 2,339,340
 1024 521 1024 521 932 429 c 0,341,342
 812 309 812 309 578 279 c 0,343,344
 558 276 558 276 533 274 c 0,345,346
 518 272 518 272 490 269 c 0,347,348
 434 264 434 264 409 260 c 0,349,350
 323 249 323 249 283 225 c 1,351,-1
 223 284 l 1,319,320
986 224 m 256,353,354
 1024 186 1024 186 1024 131 c 0,355,356
 1024 77 1024 77 986 39 c 0,357,358
 948 0 948 0 893 0 c 0,359,360
 839 0 839 0 801 39 c 0,361,362
 763 77 763 77 763 131 c 0,363,364
 763 186 763 186 801 224 c 256,365,366
 839 262 839 262 893 262 c 0,367,352
 948 262 948 262 986 224 c 256,353,354
EndSplineSet
EndChar

StartChar: uniE028
Encoding: 57384 57384 42
Width: 1024
GlyphClass: 2
Flags: W
LayerCount: 2
Fore
SplineSet
98 397 m 0,1,2
 54 353 54 353 54 291 c 256,3,4
 54 229 54 229 97 185 c 0,5,6
 141 142 141 142 203 142 c 256,7,8
 265 142 265 142 308 185 c 0,9,10
 352 229 352 229 352 291 c 256,11,12
 352 353 352 353 308 397 c 0,13,14
 264 440 264 440 203 440 c 0,15,0
 141 440 141 440 98 397 c 0,1,2
59 147 m 0,17,18
 0 207 0 207 0 291 c 256,19,20
 0 375 0 375 59 434 c 0,21,22
 119 494 119 494 203 494 c 0,23,24
 286 494 286 494 346 434 c 0,25,26
 406 375 406 375 406 291 c 256,27,28
 406 207 406 207 346 147 c 0,29,30
 287 88 287 88 203 88 c 256,31,16
 119 88 119 88 59 147 c 0,17,18
716 397 m 0,33,34
 672 353 672 353 672 291 c 256,35,36
 672 229 672 229 716 185 c 0,37,38
 759 142 759 142 821 142 c 256,39,40
 883 142 883 142 927 185 c 0,41,42
 970 229 970 229 970 291 c 256,43,44
 970 353 970 353 927 397 c 0,45,46
 883 440 883 440 821 440 c 0,47,32
 760 440 760 440 716 397 c 0,33,34
678 147 m 0,49,50
 618 207 618 207 618 291 c 256,51,52
 618 375 618 375 678 434 c 0,53,54
 738 494 738 494 821 494 c 0,55,56
 905 494 905 494 965 434 c 0,57,58
 1024 375 1024 375 1024 291 c 256,59,60
 1024 207 1024 207 965 147 c 0,61,62
 905 88 905 88 821 88 c 0,63,48
 738 88 738 88 678 147 c 0,49,50
757 909 m 0,65,66
 785 881 785 881 785 841 c 0,67,68
 785 802 785 802 757 774 c 256,69,70
 729 746 729 746 690 746 c 256,71,72
 651 746 651 746 623 774 c 256,73,74
 595 802 595 802 595 841 c 0,75,76
 595 881 595 881 623 909 c 0,77,78
 651 936 651 936 690 936 c 256,79,64
 729 936 729 936 757 909 c 0,65,66
515 547 m 2,80,81
 534 538 534 538 545 521 c 0,82,83
 555 504 555 504 555 483 c 2,84,-1
 555 285 l 2,85,86
 555 267 555 267 543 254 c 0,87,88
 531 242 531 242 513 242 c 256,89,90
 495 242 495 242 482 254 c 0,91,92
 469 267 469 267 469 285 c 2,93,-1
 469 453 l 2,94,95
 469 472 469 472 453 480 c 2,96,-1
 290 556 l 2,97,98
 250 574 250 574 249 618 c 2,99,-1
 249 622 l 2,100,101
 249 663 249 663 285 684 c 2,102,-1
 521 817 l 2,103,104
 536 826 536 826 550 826 c 0,105,106
 562 826 562 826 573 822 c 0,107,108
 600 812 600 812 609 785 c 2,109,-1
 657 652 l 2,110,111
 661 641 661 641 672 641 c 2,112,-1
 812 641 l 2,113,114
 824 641 824 641 832 633 c 0,115,116
 840 624 840 624 840 612 c 256,117,118
 840 600 840 600 832 592 c 256,119,120
 824 584 824 584 812 584 c 2,121,-1
 656 584 l 2,122,123
 640 584 640 584 627 593 c 256,124,125
 614 602 614 602 609 617 c 2,126,-1
 582 691 l 1,127,-1
 414 594 l 1,128,-1
 515 547 l 2,80,81
EndSplineSet
EndChar

StartChar: uniE029
Encoding: 57385 57385 43
Width: 1024
GlyphClass: 2
Flags: W
LayerCount: 2
Fore
SplineSet
1022 174 m 0,1,2
 1024 169 1024 169 1024 164 c 0,3,4
 1024 160 1024 160 1023 155 c 0,5,6
 1010 121 1010 121 978 107 c 0,7,8
 960 98 960 98 941 98 c 0,9,10
 926 98 926 98 911 103 c 2,11,-1
 16 429 l 2,12,13
 7 432 7 432 2 442 c 0,14,15
 0 447 0 447 0 453 c 0,16,17
 0 457 0 457 1 461 c 0,18,19
 5 471 5 471 14 475 c 0,20,21
 19 477 19 477 25 477 c 0,22,23
 29 477 29 477 33 476 c 2,24,-1
 262 393 l 1,25,-1
 257 396 l 2,26,27
 253 398 253 398 252 400 c 0,28,29
 241 414 241 414 241 431 c 2,30,-1
 241 436 l 2,31,32
 243 457 243 457 258 470 c 2,33,-1
 406 594 l 2,34,35
 417 602 417 602 417 615 c 0,36,37
 417 619 417 619 415 624 c 2,38,-1
 361 823 l 2,39,40
 358 835 358 835 358 846 c 0,41,42
 358 879 358 879 385 904 c 0,43,44
 410 926 410 926 438 926 c 0,45,46
 453 926 453 926 469 920 c 2,47,-1
 757 813 l 2,48,49
 796 799 796 799 802 758 c 1,50,51
 812 792 812 792 840 814 c 0,52,53
 869 836 869 836 905 836 c 0,54,55
 950 836 950 836 981 805 c 0,56,57
 1013 773 1013 773 1013 729 c 256,58,59
 1013 685 1013 685 981 653 c 0,60,61
 950 622 950 622 905 622 c 0,62,63
 862 622 862 622 832 651 c 0,64,65
 801 680 801 680 798 723 c 1,66,-1
 796 718 l 1,67,-1
 794 712 l 1,68,-1
 713 574 l 2,69,70
 711 569 711 569 711 564 c 0,71,72
 711 558 711 558 715 553 c 2,73,-1
 817 431 l 2,74,75
 825 423 825 423 825 412 c 2,76,-1
 825 408 l 2,77,78
 824 395 824 395 813 386 c 0,79,80
 804 378 804 378 792 378 c 2,81,-1
 789 378 l 2,82,83
 776 379 776 379 767 390 c 2,84,-1
 654 525 l 2,85,86
 641 539 641 539 640 557 c 2,87,-1
 640 562 l 2,88,89
 640 577 640 577 648 591 c 2,90,-1
 692 668 l 1,91,-1
 485 743 l 1,92,-1
 521 607 l 2,93,94
 523 600 523 600 523 593 c 0,95,96
 523 584 523 584 520 575 c 0,97,98
 515 559 515 559 502 548 c 2,99,-1
 320 395 l 2,100,101
 307 384 307 384 289 384 c 2,102,-1
 286 384 l 1,103,-1
 928 150 l 2,104,105
 935 148 935 148 941 148 c 0,106,107
 949 148 949 148 957 152 c 0,108,109
 970 158 970 158 976 172 c 0,110,111
 979 182 979 182 989 186 c 0,112,113
 994 188 994 188 999 188 c 0,114,115
 1003 188 1003 188 1008 187 c 0,116,0
 1017 184 1017 184 1022 174 c 0,1,2
EndSplineSet
EndChar

StartChar: uniE02A
Encoding: 57386 57386 44
Width: 1024
GlyphClass: 2
Flags: W
LayerCount: 2
Fore
SplineSet
1017 582 m 0,0,1
 1024 566 1024 566 1024 551 c 0,2,3
 1024 537 1024 537 1019 523 c 0,4,5
 1008 494 1008 494 979 481 c 2,6,-1
 31 38 l 2,7,8
 27 36 27 36 22 36 c 0,9,10
 18 36 18 36 14 37 c 0,11,12
 6 40 6 40 2 49 c 0,13,14
 0 54 0 54 0 58 c 256,15,16
 0 62 0 62 1 66 c 0,17,18
 4 74 4 74 13 78 c 2,19,-1
 268 196 l 1,20,-1
 259 196 l 2,21,22
 249 196 249 196 241 201 c 0,23,24
 227 209 227 209 223 224 c 0,25,26
 221 230 221 230 221 236 c 0,27,28
 221 245 221 245 226 254 c 2,29,-1
 382 525 l 1,30,-1
 407 567 l 2,31,32
 466 668 466 668 560 736 c 2,33,-1
 604 768 l 1,34,-1
 653 805 l 1,35,36
 400 749 400 749 398 749 c 0,37,38
 390 749 390 749 384 753 c 0,39,40
 376 758 376 758 375 764 c 128,-1,41
 374 770 374 770 374 773 c 0,42,43
 374 792 374 792 392 796 c 2,44,-1
 795 884 l 2,45,46
 804 886 804 886 811 886 c 0,47,48
 839 886 839 886 859 863 c 1,49,50
 850 881 850 881 850 901 c 0,51,52
 850 937 850 937 875 963 c 0,53,54
 900 988 900 988 936 988 c 256,55,56
 972 988 972 988 998 963 c 0,57,58
 1023 937 1023 937 1023 901 c 256,59,60
 1023 865 1023 865 998 840 c 0,61,62
 972 815 972 815 936 815 c 0,63,64
 893 815 893 815 867 850 c 1,65,66
 874 835 874 835 874 820 c 0,67,68
 874 813 874 813 872 806 c 0,69,70
 867 782 867 782 848 768 c 2,71,-1
 495 510 l 2,72,73
 442 471 442 471 408 413 c 2,74,-1
 294 215 l 2,75,76
 291 209 291 209 285 205 c 1,77,-1
 961 520 l 2,78,79
 974 525 974 525 978 538 c 0,80,81
 980 544 980 544 980 550 c 256,82,83
 980 556 980 556 977 563 c 0,84,85
 975 568 975 568 975 573 c 0,86,87
 975 576 975 576 976 580 c 0,88,89
 979 588 979 588 988 592 c 0,90,91
 993 595 993 595 997 595 c 256,92,93
 1001 595 1001 595 1005 593 c 0,94,95
 1013 590 1013 590 1017 582 c 0,0,1
EndSplineSet
EndChar

StartChar: uniE02B
Encoding: 57387 57387 45
Width: 1024
GlyphClass: 2
Flags: W
LayerCount: 2
Fore
SplineSet
2 193 m 1,0,1
 61 193 61 193 107 212 c 0,2,3
 152 231 152 231 166 261 c 0,4,5
 172 272 172 272 172 285 c 1,6,7
 172 272 172 272 178 261 c 0,8,9
 192 231 192 231 238 212 c 256,10,11
 284 193 284 193 343 193 c 0,12,13
 401 193 401 193 447 212 c 0,14,15
 492 231 492 231 507 261 c 0,16,17
 513 272 513 272 513 285 c 1,18,19
 513 272 513 272 518 261 c 0,20,21
 533 231 533 231 579 212 c 256,22,23
 625 193 625 193 683 193 c 0,24,25
 742 193 742 193 788 212 c 256,26,27
 834 231 834 231 848 261 c 0,28,29
 854 272 854 272 854 285 c 1,30,31
 854 272 854 272 860 261 c 0,32,33
 874 231 874 231 920 212 c 256,34,35
 966 193 966 193 1024 193 c 1,36,-1
 1024 134 l 1,37,38
 964 134 964 134 916 153 c 0,39,40
 870 171 870 171 854 200 c 1,41,42
 838 171 838 171 791 153 c 0,43,44
 743 134 743 134 683 134 c 0,45,46
 622 134 622 134 574 153 c 0,47,48
 527 172 527 172 512 201 c 1,49,50
 496 172 496 172 449 153 c 256,51,52
 402 134 402 134 342 134 c 0,53,54
 281 134 281 134 233 153 c 0,55,56
 186 172 186 172 170 201 c 1,57,58
 155 172 155 172 108 153 c 256,59,60
 61 134 61 134 0 134 c 1,61,-1
 2 193 l 1,0,1
2 18 m 1,62,-1
 2 77 l 1,63,64
 61 77 61 77 107 96 c 0,65,66
 152 115 152 115 166 145 c 0,67,68
 172 156 172 156 172 169 c 1,69,70
 172 156 172 156 178 145 c 0,71,72
 192 115 192 115 238 96 c 256,73,74
 284 77 284 77 343 77 c 0,75,76
 401 77 401 77 447 96 c 0,77,78
 492 115 492 115 507 145 c 0,79,80
 513 156 513 156 513 169 c 1,81,82
 513 156 513 156 518 145 c 0,83,84
 533 115 533 115 579 96 c 256,85,86
 625 77 625 77 683 77 c 0,87,88
 742 77 742 77 788 96 c 256,89,90
 834 115 834 115 848 145 c 0,91,92
 854 156 854 156 854 169 c 1,93,94
 854 156 854 156 860 145 c 0,95,96
 874 115 874 115 920 96 c 256,97,98
 966 77 966 77 1024 77 c 1,99,-1
 1024 18 l 1,100,-1
 2 18 l 1,62,-1
961 381 m 1,101,102
 961 320 961 320 936 263 c 1,103,104
 877 282 877 282 859 318 c 0,105,106
 853 330 853 330 853 343 c 1,107,108
 853 330 853 330 848 318 c 0,109,110
 833 288 833 288 787 269 c 256,111,112
 741 250 741 250 683 250 c 0,113,114
 624 250 624 250 578 269 c 256,115,116
 532 288 532 288 517 318 c 0,117,118
 512 329 512 329 512 343 c 1,119,120
 512 330 512 330 506 318 c 0,121,122
 491 288 491 288 446 269 c 0,123,124
 400 250 400 250 342 250 c 0,125,126
 283 250 283 250 237 269 c 256,127,128
 191 288 191 288 176 318 c 0,129,130
 170 329 170 329 170 343 c 1,131,132
 170 330 170 330 165 318 c 0,133,134
 146 282 146 282 88 263 c 1,135,136
 63 320 63 320 63 381 c 1,137,-1
 961 381 l 1,101,102
484 438 m 1,138,-1
 208 438 l 1,139,-1
 484 1006 l 1,140,-1
 484 438 l 1,138,-1
541 438 m 1,141,-1
 541 880 l 1,142,143
 546 877 546 877 553 873 c 0,144,145
 664 803 664 803 730 690 c 0,146,147
 799 573 799 573 805 438 c 1,148,-1
 541 438 l 1,141,-1
EndSplineSet
EndChar

StartChar: uniE02C
Encoding: 57388 57388 46
Width: 1008
GlyphClass: 2
Flags: W
LayerCount: 2
Fore
SplineSet
701 158 m 1,0,-1
 709 0 l 1,1,-1
 300 0 l 1,2,-1
 308 158 l 1,3,-1
 701 158 l 1,0,-1
657 1024 m 1,4,-1
 662 923 l 1,5,-1
 347 923 l 1,6,-1
 352 1024 l 1,7,-1
 657 1024 l 1,4,-1
675 539 m 1,8,9
 661 499 661 499 614 473 c 0,10,11
 566 446 566 446 504 446 c 0,12,13
 443 446 443 446 395 473 c 0,14,15
 347 499 347 499 333 539 c 1,16,-1
 675 539 l 1,8,9
333 596 m 1,17,18
 347 636 347 636 395 662 c 0,19,20
 443 689 443 689 504 689 c 0,21,22
 566 689 566 689 614 662 c 0,23,24
 661 636 661 636 675 596 c 1,25,-1
 333 596 l 1,17,18
58 596 m 1,26,-1
 100 973 l 2,27,28
 103 995 103 995 119 1010 c 0,29,30
 135 1024 135 1024 157 1024 c 2,31,-1
 295 1024 l 1,32,-1
 286 866 l 1,33,-1
 723 866 l 1,34,-1
 714 1024 l 1,35,-1
 852 1024 l 2,36,37
 874 1024 874 1024 890 1010 c 0,38,39
 906 995 906 995 908 973 c 2,40,-1
 950 596 l 1,41,-1
 734 596 l 1,42,43
 721 660 721 660 656 702 c 0,44,45
 591 745 591 745 504 745 c 0,46,47
 418 745 418 745 353 702 c 0,48,49
 288 660 288 660 274 596 c 1,50,-1
 58 596 l 1,26,-1
766 0 m 1,51,-1
 754 215 l 1,52,-1
 254 215 l 1,53,-1
 243 0 l 1,54,-1
 68 0 l 2,55,56
 38 0 38 0 18 23 c 0,57,58
 0 42 0 42 0 67 c 0,59,60
 0 71 0 71 1 76 c 2,61,-1
 52 539 l 1,62,-1
 274 539 l 1,63,64
 288 475 288 475 353 433 c 0,65,66
 418 389 418 389 504 389 c 256,67,68
 590 389 590 389 656 433 c 0,69,70
 721 475 721 475 735 539 c 1,71,-1
 956 539 l 1,72,-1
 1007 76 l 2,73,74
 1008 71 1008 71 1008 67 c 0,75,76
 1008 42 1008 42 991 23 c 0,77,78
 970 0 970 0 940 0 c 2,79,-1
 766 0 l 1,51,-1
EndSplineSet
EndChar

StartChar: uniE02D
Encoding: 57389 57389 47
Width: 756
GlyphClass: 2
Flags: W
LayerCount: 2
Fore
SplineSet
121 0 m 2,0,1
 99 0 99 0 83 16 c 256,2,3
 67 32 67 32 67 54 c 2,4,-1
 67 253 l 2,5,6
 67 276 67 276 83 291 c 0,7,8
 99 307 99 307 121 307 c 2,9,-1
 519 307 l 2,10,11
 542 307 542 307 557 291 c 0,12,13
 573 276 573 276 573 253 c 2,14,-1
 573 53 l 2,15,16
 573 31 573 31 558 16 c 0,17,18
 542 0 542 0 520 0 c 2,19,-1
 121 0 l 2,0,1
499 673 m 2,20,21
 499 693 499 693 484 709 c 0,22,23
 469 724 469 724 448 724 c 2,24,-1
 193 724 l 2,25,26
 172 724 172 724 157 709 c 0,27,28
 142 693 142 693 142 673 c 2,29,-1
 142 552 l 2,30,31
 142 531 142 531 157 516 c 256,32,33
 172 501 172 501 193 501 c 2,34,-1
 448 501 l 2,35,36
 469 501 469 501 484 516 c 256,37,38
 499 531 499 531 499 552 c 2,39,-1
 499 673 l 2,20,21
738 720 m 2,40,41
 751 716 751 716 755 702 c 0,42,43
 756 698 756 698 756 694 c 0,44,45
 756 685 756 685 750 678 c 2,46,-1
 658 557 l 2,47,48
 605 489 605 489 596 404 c 0,49,50
 593 384 593 384 579 371 c 0,51,52
 564 359 564 359 545 359 c 2,53,-1
 97 359 l 2,54,55
 77 359 77 359 62 371 c 0,56,57
 48 384 48 384 46 404 c 2,58,-1
 16 663 l 2,59,60
 0 796 0 796 0 937 c 2,61,-1
 0 998 l 2,62,63
 0 1009 0 1009 8 1016 c 0,64,65
 15 1024 15 1024 25 1024 c 2,66,-1
 99 1024 l 2,67,68
 110 1024 110 1024 117 1016 c 0,69,70
 125 1009 125 1009 125 998 c 2,71,-1
 125 888 l 2,72,73
 125 878 125 878 132 871 c 256,74,75
 139 864 139 864 149 864 c 0,76,77
 158 864 158 864 165 871 c 256,78,79
 172 878 172 878 172 888 c 2,80,-1
 172 998 l 2,81,82
 172 1009 172 1009 180 1016 c 0,83,84
 187 1024 187 1024 198 1024 c 2,85,-1
 272 1024 l 2,86,87
 283 1024 283 1024 290 1016 c 0,88,89
 297 1009 297 1009 297 998 c 2,90,-1
 297 888 l 2,91,92
 297 878 297 878 304 871 c 256,93,94
 311 864 311 864 321 864 c 256,95,96
 331 864 331 864 338 871 c 256,97,98
 345 878 345 878 345 888 c 2,99,-1
 345 998 l 2,100,101
 345 1009 345 1009 352 1016 c 0,102,103
 359 1024 359 1024 370 1024 c 2,104,-1
 445 1024 l 2,105,106
 455 1024 455 1024 462 1016 c 0,107,108
 470 1009 470 1009 470 998 c 2,109,-1
 470 888 l 2,110,111
 470 878 470 878 476 871 c 0,112,113
 483 864 483 864 493 864 c 256,114,115
 503 864 503 864 510 871 c 0,116,117
 516 878 516 878 516 888 c 2,118,-1
 516 998 l 2,119,120
 516 1009 516 1009 524 1016 c 0,121,122
 531 1024 531 1024 542 1024 c 2,123,-1
 616 1024 l 2,124,125
 627 1024 627 1024 634 1016 c 0,126,127
 641 1009 641 1009 641 998 c 2,128,-1
 641 937 l 2,129,130
 641 863 641 863 634 757 c 1,131,-1
 738 720 l 2,40,41
EndSplineSet
EndChar

StartChar: uniE02E
Encoding: 57390 57390 48
Width: 1024
GlyphClass: 2
Flags: W
LayerCount: 2
Fore
SplineSet
512 102 m 0,0,1
 568 102 568 102 623 111 c 1,2,3
 627 71 627 71 633 37 c 1,4,-1
 633 32 l 2,5,6
 633 22 633 22 626 16 c 0,7,8
 622 13 622 13 617 12 c 0,9,10
 614 10 614 10 609 9 c 0,11,12
 564 0 564 0 512 0 c 0,13,14
 458 0 458 0 415 10 c 0,15,16
 411 11 411 11 407 13 c 0,17,18
 402 14 402 14 399 17 c 0,19,20
 391 23 391 23 391 33 c 0,21,22
 391 35 391 35 392 38 c 0,23,24
 398 74 398 74 402 112 c 1,25,26
 458 102 458 102 512 102 c 0,0,1
706 38 m 0,27,28
 702 37 702 37 699 37 c 0,29,30
 695 37 695 37 692 40 c 0,31,32
 691 42 691 42 690 45 c 2,33,-1
 689 47 l 1,34,-1
 688 50 l 1,35,36
 682 94 682 94 679 122 c 1,37,38
 747 138 747 138 807 169 c 1,39,-1
 810 171 l 1,40,-1
 813 173 l 1,41,42
 825 149 825 149 835 135 c 2,43,-1
 836 133 l 1,44,-1
 837 131 l 2,45,46
 838 128 838 128 838 125 c 0,47,48
 838 117 838 117 830 111 c 0,49,50
 775 66 775 66 706 38 c 0,27,28
336 50 m 1,51,-1
 335 47 l 1,52,-1
 335 45 l 2,53,54
 334 42 334 42 332 40 c 0,55,56
 330 37 330 37 325 37 c 0,57,58
 322 37 322 37 318 38 c 0,59,60
 249 67 249 67 194 111 c 0,61,62
 186 118 186 118 186 125 c 0,63,64
 186 128 186 128 187 131 c 0,65,66
 188 133 188 133 190 135 c 0,67,68
 202 153 202 153 212 173 c 1,69,-1
 214 171 l 1,70,-1
 217 169 l 1,71,72
 277 138 277 138 346 122 c 1,73,74
 342 92 342 92 336 50 c 1,51,-1
126 847 m 0,76,77
 130 851 130 851 133 853 c 0,78,79
 137 855 137 855 140 855 c 0,80,81
 144 855 144 855 148 850 c 0,82,83
 151 845 151 845 156 837 c 2,84,-1
 164 823 l 2,85,86
 168 817 168 817 168 811 c 0,87,88
 168 809 168 809 167 807 c 0,89,90
 167 805 167 805 166 802 c 2,91,-1
 165 800 l 1,92,-1
 164 799 l 1,93,94
 101 667 101 667 101 512 c 0,95,96
 101 356 101 356 165 226 c 0,97,98
 168 220 168 220 168 217 c 2,99,-1
 168 214 l 2,100,101
 168 208 168 208 164 202 c 0,102,103
 154 185 154 185 148 175 c 0,104,105
 145 170 145 170 140 170 c 0,106,107
 137 170 137 170 134 172 c 2,108,-1
 126 178 l 1,109,-1
 120 184 l 1,110,111
 0 326 0 326 0 512 c 256,112,113
 0 698 0 698 120 841 c 0,114,75
 123 844 123 844 126 847 c 0,76,77
805 243 m 0,116,117
 796 228 796 228 781 220 c 0,118,119
 662 159 662 159 512 159 c 0,120,121
 363 159 363 159 243 220 c 0,122,123
 228 228 228 228 220 243 c 0,124,125
 191 300 191 300 175 367 c 1,126,127
 324 338 324 338 512 338 c 256,128,129
 700 338 700 338 849 367 c 1,130,115
 834 300 834 300 805 243 c 0,116,117
512 686 m 256,132,133
 322 686 322 686 175 657 c 1,134,135
 190 725 190 725 220 782 c 0,136,137
 228 796 228 796 243 805 c 0,138,139
 361 866 361 866 512 866 c 256,140,141
 663 866 663 866 781 805 c 0,142,143
 797 796 797 796 805 782 c 0,144,145
 834 725 834 725 849 657 c 1,146,131
 702 686 702 686 512 686 c 256,132,133
861 428 m 1,148,149
 714 396 714 396 512 396 c 0,150,151
 311 396 311 396 164 428 c 1,152,153
 158 466 158 466 158 512 c 256,154,155
 158 558 158 558 164 596 c 1,156,157
 311 629 311 629 512 629 c 0,158,159
 714 629 714 629 861 596 c 1,160,161
 867 558 867 558 867 512 c 0,162,147
 867 467 867 467 861 428 c 1,148,149
512 922 m 0,163,164
 456 922 456 922 402 914 c 1,165,166
 397 953 397 953 392 988 c 0,167,168
 391 990 391 990 391 992 c 0,169,170
 391 1002 391 1002 399 1008 c 0,171,172
 402 1011 402 1011 407 1013 c 0,173,174
 411 1014 411 1014 415 1015 c 0,175,176
 460 1024 460 1024 512 1024 c 0,177,178
 566 1024 566 1024 609 1014 c 0,179,180
 614 1013 614 1013 617 1012 c 0,181,182
 622 1010 622 1010 626 1007 c 0,183,184
 633 1001 633 1001 633 991 c 2,185,-1
 633 987 l 1,186,187
 627 950 627 950 623 913 c 1,188,189
 566 922 566 922 512 922 c 0,163,164
905 841 m 0,190,191
 1024 698 1024 698 1024 512 c 256,192,193
 1024 326 1024 326 905 185 c 0,194,195
 902 181 902 181 899 178 c 0,196,197
 895 175 895 175 891 173 c 256,198,199
 887 171 887 171 884 171 c 0,200,201
 880 171 880 171 877 175 c 2,202,-1
 869 189 l 1,203,-1
 861 203 l 2,204,205
 857 209 857 209 857 215 c 2,206,-1
 857 218 l 2,207,208
 857 220 857 220 859 223 c 2,209,-1
 860 225 l 1,210,-1
 860 227 l 1,211,212
 924 357 924 357 924 513 c 256,213,214
 924 669 924 669 860 799 c 1,215,-1
 860 800 l 1,216,-1
 859 802 l 2,217,218
 857 805 857 805 857 807 c 2,219,-1
 857 810 l 2,220,221
 857 817 857 817 861 823 c 2,222,-1
 869 837 l 2,223,224
 873 845 873 845 877 850 c 0,225,226
 880 855 880 855 884 855 c 0,227,228
 887 855 887 855 891 853 c 256,229,230
 895 851 895 851 899 847 c 0,231,232
 902 844 902 844 905 841 c 0,190,191
318 986 m 0,233,234
 322 987 322 987 325 987 c 0,235,236
 329 987 329 987 332 984 c 0,237,238
 334 983 334 983 335 980 c 2,239,-1
 335 977 l 1,240,-1
 336 975 l 1,241,242
 342 932 342 932 346 902 c 1,243,244
 277 886 277 886 217 855 c 1,245,-1
 214 854 l 1,246,-1
 212 852 l 1,247,248
 202 871 202 871 190 889 c 2,249,-1
 189 891 l 1,250,-1
 188 894 l 2,251,252
 187 897 187 897 187 900 c 0,253,254
 187 907 187 907 194 913 c 0,255,256
 249 957 249 957 318 986 c 0,233,234
688 975 m 1,257,-1
 689 977 l 1,258,-1
 690 980 l 2,259,260
 691 983 691 983 692 984 c 0,261,262
 695 987 695 987 699 987 c 0,263,264
 702 987 702 987 706 986 c 0,265,266
 775 957 775 957 830 913 c 0,267,268
 838 906 838 906 838 899 c 0,269,270
 838 896 838 896 837 894 c 256,271,272
 836 892 836 892 835 889 c 0,273,274
 823 871 823 871 813 852 c 1,275,-1
 810 854 l 1,276,-1
 807 855 l 1,277,278
 747 886 747 886 679 902 c 1,279,280
 683 935 683 935 688 975 c 1,257,-1
EndSplineSet
EndChar

StartChar: uniE02F
Encoding: 57391 57391 49
Width: 975
GlyphClass: 2
Flags: W
LayerCount: 2
Fore
SplineSet
968 84 m 2,0,1
 975 70 975 70 975 57 c 0,2,3
 975 48 975 48 972 40 c 0,4,5
 965 18 965 18 945 7 c 0,6,7
 932 0 932 0 919 0 c 0,8,9
 910 0 910 0 901 3 c 0,10,11
 878 10 878 10 867 31 c 2,12,-1
 753 248 l 2,13,14
 747 259 747 259 736 263 c 2,15,-1
 422 360 l 1,16,-1
 362 266 l 1,17,-1
 346 242 l 2,18,19
 327 212 327 212 292 205 c 0,20,21
 282 202 282 202 272 202 c 0,22,23
 249 202 249 202 227 216 c 2,24,-1
 203 232 l 1,25,-1
 27 345 l 2,26,27
 7 358 7 358 2 381 c 0,28,29
 0 388 0 388 0 394 c 0,30,31
 0 410 0 410 10 424 c 0,32,33
 22 444 22 444 45 449 c 0,34,35
 52 451 52 451 58 451 c 0,36,37
 74 451 74 451 89 441 c 2,38,-1
 255 334 l 2,39,40
 258 332 258 332 261 332 c 2,41,-1
 264 332 l 2,42,43
 269 333 269 333 271 338 c 2,44,-1
 558 785 l 1,45,-1
 250 785 l 2,46,47
 236 785 236 785 226 795 c 256,48,49
 216 805 216 805 216 819 c 256,50,51
 216 833 216 833 226 843 c 256,52,53
 236 853 236 853 250 853 c 2,54,-1
 662 853 l 2,55,56
 693 853 693 853 720 838 c 1,57,58
 671 866 671 866 671 923 c 0,59,60
 671 965 671 965 700 994 c 0,61,62
 730 1024 730 1024 772 1024 c 256,63,64
 814 1024 814 1024 843 994 c 0,65,66
 872 965 872 965 872 923 c 256,67,68
 872 881 872 881 843 852 c 0,69,70
 814 822 814 822 772 822 c 0,71,72
 747 822 747 822 724 835 c 1,73,74
 762 810 762 810 771 765 c 0,75,76
 774 753 774 753 774 741 c 0,77,78
 774 710 774 710 756 682 c 2,79,-1
 591 426 l 1,80,-1
 671 401 l 1,81,-1
 785 366 l 2,82,83
 826 353 826 353 846 315 c 2,84,-1
 901 210 l 1,85,-1
 968 84 l 2,0,1
EndSplineSet
EndChar

StartChar: uniE030
Encoding: 57392 57392 50
Width: 1024
GlyphClass: 2
Flags: W
LayerCount: 2
Fore
SplineSet
1019 315 m 0,0,1
 1021 301 1021 301 1024 281 c 2,2,-1
 1024 269 l 1,3,4
 1015 245 1015 245 985 245 c 2,5,-1
 843 245 l 2,6,7
 834 245 834 245 831 253 c 2,8,-1
 808 321 l 2,9,10
 795 361 795 361 786 389 c 0,11,12
 785 392 785 392 785 397 c 2,13,-1
 785 400 l 2,14,15
 785 404 785 404 786 411 c 2,16,-1
 814 548 l 1,17,-1
 841 686 l 2,18,19
 842 690 842 690 842 694 c 0,20,21
 842 703 842 703 838 711 c 0,22,23
 831 722 831 722 823 723.5 c 128,-1,24
 815 725 815 725 812 725 c 0,25,26
 803 725 803 725 795 720 c 0,27,28
 785 713 785 713 782 698 c 2,29,-1
 755 563 l 1,30,-1
 728 429 l 2,31,32
 728 427 728 427 727 425 c 2,33,-1
 335 425 l 1,34,-1
 564 712 l 1,35,-1
 679 855 l 1,36,-1
 794 999 l 1,37,-1
 940 851 l 2,38,39
 962 829 962 829 964 802 c 0,40,41
 968 758 968 758 979 672 c 2,42,-1
 986 607 l 1,43,-1
 994 541 l 1,44,-1
 1000 486 l 1,45,-1
 1006 430 l 2,46,47
 1011 388 1011 388 1019 315 c 0,0,1
733 356 m 2,48,-1
 784 200 l 1,49,-1
 836 44 l 2,50,51
 838 37 838 37 838 31 c 0,52,53
 838 11 838 11 814 0 c 1,54,-1
 210 0 l 1,55,56
 192 8 192 8 187 18 c 0,57,58
 186 22 186 22 186 27 c 0,59,60
 186 35 186 35 189 46 c 2,61,-1
 239 200 l 1,62,-1
 290 354 l 2,63,64
 293 364 293 364 304 364 c 2,65,-1
 455 364 l 1,66,67
 452 360 452 360 448 355 c 0,68,69
 406 290 406 290 368 233 c 0,70,71
 361 223 361 223 361 214 c 0,72,73
 361 206 361 206 366 198 c 0,74,75
 375 184 375 184 391 184 c 2,76,-1
 395 184 l 2,77,78
 409 185 409 185 419 200 c 2,79,-1
 460 262 l 1,80,-1
 501 323 l 2,81,82
 502 325 502 325 504 328 c 2,83,-1
 506 331 l 1,84,-1
 508 334 l 1,85,86
 510 329 510 329 513 323 c 2,87,-1
 558 233 l 1,88,-1
 603 144 l 2,89,90
 613 123 613 123 630 123 c 0,91,92
 635 123 635 123 641 125 c 0,93,94
 654 130 654 130 660 143 c 0,95,96
 662 148 662 148 662 154 c 0,97,98
 662 161 662 161 658 169 c 2,99,-1
 643 201 l 1,100,-1
 626 233 l 1,101,-1
 596 293 l 1,102,-1
 566 353 l 1,103,-1
 564 358 l 1,104,-1
 563 361 l 1,105,-1
 561 364 l 1,106,107
 565 365 565 365 571 365 c 2,108,-1
 721 365 l 2,109,110
 730 365 730 365 733 356 c 2,48,-1
192 252 m 2,111,112
 190 245 190 245 183 245 c 2,113,-1
 33 245 l 2,114,115
 15 245 15 245 7 255 c 0,116,117
 0 264 0 264 0 277 c 2,118,-1
 0 284 l 1,119,-1
 8 349 l 1,120,-1
 15 414 l 1,121,-1
 30 544 l 1,122,-1
 37 601 l 1,123,-1
 43 657 l 1,124,-1
 50 714 l 1,125,-1
 56 770 l 1,126,-1
 59 793 l 2,127,128
 60 806 60 806 62 814 c 0,129,130
 63 821 63 821 64 826 c 0,131,132
 67 832 67 832 70 836 c 0,133,134
 149 916 149 916 231 997 c 1,135,136
 314 898 314 898 477 701 c 1,137,138
 440 654 440 654 383 583 c 2,139,-1
 336 524 l 1,140,-1
 289 465 l 1,141,142
 284 487 284 487 279 513 c 2,143,-1
 270 559 l 1,144,-1
 256 629 l 1,145,-1
 242 699 l 2,146,147
 239 713 239 713 229 721 c 0,148,149
 221 726 221 726 213 726 c 0,150,151
 209 726 209 726 205 725 c 0,152,153
 193 722 193 722 186 711 c 0,154,155
 181 704 181 704 181 695 c 0,156,157
 181 691 181 691 182 687 c 2,158,-1
 201 591 l 1,159,-1
 221 494 l 2,160,161
 232 439 232 439 239 403 c 1,162,-1
 239 400 l 2,163,164
 239 396 239 396 238 391 c 2,165,-1
 215 321 l 1,166,-1
 192 252 l 2,111,112
736 1024 m 1,167,-1
 727 1012 l 1,168,-1
 717 1000 l 2,169,170
 705 986 705 986 699 978 c 2,171,-1
 686 962 l 1,172,-1
 673 946 l 2,173,174
 653 921 653 921 626 887 c 0,175,176
 607 863 607 863 579 828 c 0,177,178
 523 758 523 758 516 749 c 1,179,180
 513 753 513 753 510 757 c 0,181,182
 505 763 505 763 500 769 c 0,183,184
 487 785 487 785 474 801 c 0,185,186
 435 847 435 847 403 887 c 0,187,188
 307 1004 307 1004 290 1024 c 1,189,-1
 736 1024 l 1,167,-1
EndSplineSet
EndChar

StartChar: uniE031
Encoding: 57393 57393 51
Width: 884
GlyphClass: 2
Flags: W
LayerCount: 2
Fore
SplineSet
358 166 m 1,0,-1
 360 166 l 2,1,2
 381 169 381 169 394 174 c 1,3,-1
 394 97 l 1,4,-1
 296 97 l 1,5,-1
 296 174 l 1,6,7
 321 165 321 165 345 165 c 2,8,-1
 358 166 l 1,0,-1
98 625 m 256,9,10
 98 607 98 607 110 594 c 0,11,12
 123 582 123 582 141 582 c 256,13,14
 159 582 159 582 172 594 c 0,15,16
 185 607 185 607 185 625 c 256,17,18
 185 643 185 643 172 656 c 0,19,20
 159 668 159 668 141 668 c 256,21,22
 123 668 123 668 110 656 c 0,23,24
 98 643 98 643 98 625 c 256,9,10
491 678 m 256,25,26
 491 660 491 660 504 648 c 0,27,28
 517 635 517 635 535 635 c 256,29,30
 553 635 553 635 566 648 c 0,31,32
 578 660 578 660 578 678 c 256,33,34
 578 696 578 696 566 709 c 0,35,36
 553 722 553 722 535 722 c 256,37,38
 517 722 517 722 504 709 c 256,39,40
 491 696 491 696 491 678 c 256,25,26
1 583 m 0,41,42
 0 602 0 602 0 619 c 0,43,44
 0 634 0 634 1 647 c 0,45,46
 11 798 11 798 122 907 c 256,47,48
 233 1016 233 1016 384 1024 c 1,49,-1
 404 1024 l 2,50,51
 529 1024 529 1024 632 954 c 0,52,53
 731 886 731 886 778 775 c 0,54,55
 799 722 799 722 805 670 c 1,56,-1
 805 665 l 2,57,58
 806 662 806 662 807 657 c 2,59,-1
 807 648 l 1,60,61
 817 580 817 580 875 545 c 0,62,63
 884 540 884 540 884 531 c 0,64,65
 884 528 884 528 883 523 c 0,66,67
 878 509 878 509 861 508 c 0,68,69
 858 507 858 507 853 507 c 0,70,71
 823 507 823 507 796 519 c 0,72,73
 792 521 792 521 787 525 c 2,74,-1
 778 532 l 2,75,76
 766 540 766 540 759 542 c 0,77,78
 665 567 665 567 570 573 c 0,79,80
 532 577 532 577 487 577 c 2,81,-1
 463 577 l 2,82,83
 342 574 342 574 228 546 c 0,84,85
 179 534 179 534 134 517 c 0,86,87
 127 515 127 515 116 510 c 0,88,89
 100 505 100 505 86 505 c 0,90,91
 54 505 54 505 29 527 c 0,92,93
 5 550 5 550 1 583 c 0,41,42
157 474 m 1,94,95
 205 491 205 491 252 501 c 1,96,-1
 344 325 l 1,97,-1
 440 528 l 1,98,-1
 463 528 l 1,99,-1
 487 529 l 2,100,101
 521 529 521 529 548 527 c 1,102,-1
 424 264 l 2,103,104
 414 242 414 242 394 228 c 0,105,106
 372 215 372 215 345 213 c 0,107,108
 318 213 318 213 295 229 c 0,109,110
 278 241 278 241 268 261 c 2,111,-1
 157 474 l 1,94,95
394 0 m 1,112,-1
 296 0 l 1,113,-1
 296 49 l 1,114,-1
 394 49 l 1,115,-1
 394 0 l 1,112,-1
EndSplineSet
EndChar

StartChar: uniE032
Encoding: 57394 57394 52
Width: 1024
GlyphClass: 2
Flags: W
LayerCount: 2
Fore
SplineSet
803 347 m 0,1,2
 778 261 778 261 735 185 c 0,3,4
 689 102 689 102 635 54 c 0,5,6
 574 0 574 0 512 0 c 0,7,8
 451 0 451 0 390 54 c 0,9,10
 335 102 335 102 289 185 c 0,11,12
 247 261 247 261 221 347 c 0,13,14
 196 431 196 431 196 494 c 0,15,16
 196 561 196 561 225 620 c 1,17,-1
 265 586 l 2,18,19
 272 579 272 579 283 579 c 0,20,21
 297 579 297 579 305 589 c 0,22,23
 311 598 311 598 311 608 c 2,24,-1
 311 611 l 2,25,26
 310 623 310 623 301 631 c 2,27,-1
 256 670 l 1,28,29
 288 712 288 712 331 740 c 1,30,-1
 359 691 l 2,31,32
 368 676 368 676 384 676 c 0,33,34
 392 676 392 676 398 679 c 0,35,36
 409 685 409 685 412 697 c 0,37,38
 413 701 413 701 413 705 c 0,39,40
 413 713 413 713 409 720 c 2,41,-1
 382 767 l 1,42,43
 430 789 430 789 484 793 c 1,44,-1
 484 736 l 2,45,46
 484 724 484 724 492 715 c 0,47,48
 500 707 500 707 512 707 c 256,49,50
 524 707 524 707 532 715 c 0,51,52
 541 724 541 724 541 736 c 2,53,-1
 541 793 l 1,54,55
 592 789 592 789 642 768 c 1,56,-1
 615 720 l 2,57,58
 612 713 612 713 612 706 c 0,59,60
 612 701 612 701 613 697 c 0,61,62
 616 686 616 686 626 679 c 0,63,64
 633 676 633 676 640 676 c 0,65,66
 657 676 657 676 665 691 c 2,67,-1
 692 740 l 1,68,69
 737 711 737 711 769 669 c 1,70,-1
 724 631 l 2,71,72
 715 623 715 623 715 611 c 2,73,-1
 715 608 l 2,74,75
 715 598 715 598 721 590 c 0,76,77
 730 580 730 580 743 580 c 0,78,79
 754 580 754 580 761 586 c 2,80,-1
 799 619 l 1,81,82
 828 559 828 559 828 494 c 0,83,0
 828 431 828 431 803 347 c 0,1,2
943 182 m 0,85,86
 865 59 865 59 723 7 c 0,87,88
 719 5 719 5 715 5 c 0,89,90
 705 5 705 5 699 14 c 0,91,92
 696 20 696 20 696 26 c 0,93,94
 696 33 696 33 702 40 c 0,95,96
 783 127 783 127 836 265 c 0,97,98
 886 394 886 394 886 495 c 0,99,100
 886 583 886 583 844 658 c 1,101,-1
 893 699 l 2,102,103
 902 707 902 707 903 719 c 2,104,-1
 903 721 l 2,105,106
 903 731 903 731 896 741 c 0,107,108
 888 750 888 750 877 751 c 2,109,-1
 874 751 l 2,110,111
 864 751 864 751 856 744 c 2,112,-1
 813 707 l 1,113,114
 776 756 776 756 722 791 c 1,115,-1
 751 842 l 2,116,117
 754 849 754 849 754 856 c 0,118,119
 754 861 754 861 753 865 c 0,120,121
 750 876 750 876 740 882 c 0,122,123
 734 886 734 886 727 886 c 0,124,125
 723 886 723 886 719 885 c 0,126,127
 707 882 707 882 701 871 c 2,128,-1
 671 818 l 1,129,130
 613 846 613 846 541 852 c 1,131,-1
 541 912 l 2,132,133
 541 924 541 924 533 933 c 0,134,135
 524 941 524 941 513 941 c 0,136,137
 501 941 501 941 493 933 c 0,138,139
 484 924 484 924 484 912 c 2,140,-1
 484 852 l 1,141,142
 416 847 416 847 353 819 c 1,143,-1
 323 872 l 2,144,145
 317 882 317 882 306 885 c 0,146,147
 302 886 302 886 299 886 c 0,148,149
 291 886 291 886 285 882 c 0,150,151
 274 877 274 877 271 865 c 0,152,153
 270 861 270 861 270 856 c 0,154,155
 270 849 270 849 274 842 c 2,156,-1
 302 791 l 1,157,158
 251 758 251 758 212 708 c 1,159,-1
 170 744 l 2,160,161
 162 751 162 751 152 751 c 2,162,-1
 150 751 l 2,163,164
 138 749 138 749 131 740 c 0,165,166
 124 732 124 732 124 721 c 2,167,-1
 124 719 l 2,168,169
 125 707 125 707 134 699 c 2,170,-1
 181 658 l 1,171,172
 139 582 139 582 139 494 c 0,173,174
 139 393 139 393 189 264 c 0,175,176
 242 127 242 127 323 39 c 0,177,178
 329 32 329 32 329 25 c 0,179,180
 329 20 329 20 326 14 c 0,181,182
 320 4 320 4 310 4 c 0,183,184
 307 4 307 4 303 5 c 0,185,186
 158 59 158 59 80 185 c 0,187,188
 0 313 0 313 0 497 c 0,189,190
 0 743 0 743 137 883 c 0,191,192
 274 1024 274 1024 512 1024 c 0,193,194
 617 1024 617 1024 713 981 c 0,195,196
 806 940 806 940 877 865 c 256,197,198
 948 790 948 790 986 693 c 0,199,200
 1024 597 1024 597 1024 493 c 2,201,-1
 1024 485 l 2,202,84
 1022 306 1022 306 943 182 c 0,85,86
EndSplineSet
EndChar

StartChar: uniE033
Encoding: 57395 57395 53
Width: 1024
GlyphClass: 2
Flags: W
LayerCount: 2
Fore
SplineSet
922 512 m 0,0,1
 922 568 922 568 914 623 c 1,2,3
 953 627 953 627 971.5 630 c 128,-1,4
 990 633 990 633 992 633 c 0,5,6
 1002 633 1002 633 1008 626 c 0,7,8
 1011 622 1011 622 1013 617 c 0,9,10
 1014 614 1014 614 1015 609 c 0,11,12
 1024 564 1024 564 1024 512 c 0,13,14
 1024 458 1024 458 1014 415 c 0,15,16
 1013 411 1013 411 1012 407 c 0,17,18
 1010 402 1010 402 1007 399 c 0,19,20
 1001 391 1001 391 991 391 c 0,21,22
 989 391 989 391 987 392 c 0,23,24
 950 398 950 398 913 402 c 1,25,26
 922 458 922 458 922 512 c 0,0,1
986 706 m 0,27,28
 987 703 987 703 987 700 c 0,29,30
 987 695 987 695 984 692 c 0,31,32
 983 691 983 691 980 690 c 2,33,-1
 977 689 l 1,34,-1
 975 689 l 1,35,36
 932 682 932 682 902 679 c 1,37,38
 886 747 886 747 855 807 c 1,39,-1
 854 810 l 1,40,-1
 852 813 l 1,41,42
 875 825 875 825 891 836 c 1,43,-1
 894 837 l 1,44,-1
 900 838 l 2,45,46
 907 838 907 838 913 830 c 0,47,48
 957 775 957 775 986 706 c 0,27,28
975 336 m 1,49,-1
 977 335 l 1,50,-1
 980 335 l 2,51,52
 983 334 983 334 984 332 c 0,53,54
 987 330 987 330 987 325 c 0,55,56
 987 322 987 322 986 318 c 0,57,58
 957 249 957 249 913 194 c 0,59,60
 906 186 906 186 899 186 c 0,61,62
 896 186 896 186 894 188 c 0,63,64
 892 188 892 188 889 190 c 0,65,66
 871 202 871 202 852 212 c 1,67,-1
 854 214 l 1,68,-1
 855 217 l 1,69,70
 886 277 886 277 902 346 c 1,71,72
 935 342 935 342 975 336 c 1,49,-1
177 126 m 0,74,75
 174 130 174 130 172 133 c 0,76,77
 170 137 170 137 170 140 c 0,78,79
 170 144 170 144 174 148 c 0,80,81
 180 151 180 151 188 156 c 2,82,-1
 202 164 l 2,83,84
 208 168 208 168 213 168 c 0,85,86
 215 168 215 168 217 167 c 0,87,88
 220 167 220 167 222 166 c 2,89,-1
 224 165 l 1,90,-1
 226 164 l 2,91,92
 356 100 356 100 512 100 c 256,93,94
 668 100 668 100 798 164 c 1,95,-1
 799 165 l 1,96,-1
 801 166 l 2,97,98
 804 167 804 167 806 167 c 0,99,100
 808 168 808 168 810 168 c 0,101,102
 816 168 816 168 822 164 c 2,103,-1
 835 156 l 1,104,-1
 849 148 l 2,105,106
 854 144 854 144 854 140 c 0,107,108
 854 137 854 137 852 133 c 0,109,110
 850 130 850 130 846 126 c 0,111,112
 843 123 843 123 840 120 c 0,113,114
 698 0 698 0 512 0 c 0,115,116
 327 0 327 0 183 120 c 0,117,73
 180 123 180 123 177 126 c 0,74,75
781 805 m 0,119,120
 796 797 796 797 805 781 c 0,121,122
 866 662 866 662 866 512 c 0,123,124
 866 363 866 363 805 243 c 0,125,126
 796 228 796 228 781 220 c 0,127,128
 724 191 724 191 657 175 c 1,129,130
 687 324 687 324 687 512 c 256,131,132
 687 700 687 700 657 850 c 1,133,118
 724 834 724 834 781 805 c 0,119,120
339 512 m 256,135,136
 339 322 339 322 367 175 c 1,137,138
 300 190 300 190 243 220 c 0,139,140
 228 228 228 228 220 243 c 0,141,142
 158 361 158 361 158 512 c 256,143,144
 158 663 158 663 220 781 c 0,145,146
 228 797 228 797 243 805 c 0,147,148
 300 834 300 834 367 850 c 1,149,134
 339 702 339 702 339 512 c 256,135,136
596 861 m 1,151,152
 629 714 629 714 629 512 c 0,153,154
 629 311 629 311 596 164 c 1,155,156
 557 158 557 158 512 158 c 256,157,158
 467 158 467 158 428 164 c 1,159,160
 396 311 396 311 396 512 c 0,161,162
 396 714 396 714 428 861 c 1,163,164
 467 867 467 867 512 867 c 256,165,150
 557 867 557 867 596 861 c 1,151,152
102 512 m 0,166,167
 102 456 102 456 111 402 c 1,168,169
 71 397 71 397 37 392 c 0,170,171
 34 391 34 391 32 391 c 0,172,173
 22 391 22 391 16 399 c 0,174,175
 13 402 13 402 12 407 c 0,176,177
 10 411 10 411 9 415 c 0,178,179
 0 460 0 460 0 512 c 0,180,181
 0 566 0 566 10 609 c 1,182,-1
 13 617 l 1,183,-1
 17 626 l 2,184,185
 23 633 23 633 33 633 c 0,186,187
 74 627 74 627 112 623 c 1,188,189
 102 566 102 566 102 512 c 0,166,167
183 905 m 0,190,191
 327 1024 327 1024 512 1024 c 0,192,193
 699 1024 699 1024 840 904 c 0,194,195
 844 901 844 901 847 897.5 c 128,-1,196
 850 894 850 894 852 891 c 2,197,-1
 854 884 l 2,198,199
 854 879 854 879 849 876 c 0,200,201
 840 870 840 870 822 860 c 0,202,203
 816 856 816 856 810 856 c 2,204,-1
 807 856 l 2,205,206
 804 857 804 857 802 858 c 2,207,-1
 800 859 l 1,208,-1
 798 860 l 2,209,210
 668 923 668 923 512 923 c 0,211,212
 357 923 357 923 226 860 c 1,213,-1
 225 860 l 1,214,-1
 223 859 l 2,215,216
 220 857 220 857 218 857 c 2,217,-1
 215 857 l 2,218,219
 208 857 208 857 202 861 c 2,220,-1
 188 869 l 2,221,222
 180 873 180 873 175 877 c 0,223,224
 170 880 170 880 170 885 c 0,225,226
 170 888 170 888 172 891 c 0,227,228
 174 895 174 895 177 899 c 0,229,230
 180 902 180 902 183 905 c 0,190,191
38 318 m 0,231,232
 37 322 37 322 37 325 c 0,233,234
 37 330 37 330 40 332 c 0,235,236
 42 334 42 334 45 335 c 2,237,-1
 47 335 l 1,238,-1
 50 336 l 1,239,240
 94 342 94 342 122 346 c 1,241,242
 138 277 138 277 169 217 c 1,243,-1
 171 214 l 1,244,-1
 173 212 l 1,245,246
 149 199 149 199 135 190 c 2,247,-1
 133 189 l 1,248,-1
 131 188 l 2,249,250
 128 187 128 187 125 187 c 0,251,252
 117 187 117 187 111 194 c 0,253,254
 67 249 67 249 38 318 c 0,231,232
50 689 m 1,255,-1
 47 689 l 1,256,-1
 45 690 l 2,257,258
 42 691 42 691 40 692 c 0,259,260
 37 695 37 695 37 700 c 0,261,262
 37 703 37 703 38 706 c 0,263,264
 67 775 67 775 111 830 c 0,265,266
 117 838 117 838 125 838 c 0,267,268
 128 838 128 838 131 837 c 2,269,-1
 133 836 l 1,270,-1
 135 835 l 2,271,272
 153 823 153 823 173 813 c 1,273,-1
 171 810 l 1,274,-1
 169 807 l 1,275,276
 138 747 138 747 122 679 c 1,277,278
 92 682 92 682 50 689 c 1,255,-1
EndSplineSet
EndChar

StartChar: uniE034
Encoding: 57396 57396 54
Width: 1024
GlyphClass: 2
Flags: W
LayerCount: 2
Fore
SplineSet
848 532 m 0,0,1
 864 532 864 532 874 543 c 0,2,3
 885 553 885 553 885 569 c 0,4,5
 885 584 885 584 874 595 c 0,6,7
 864 606 864 606 848 606 c 0,8,9
 833 606 833 606 822 595 c 256,10,11
 811 584 811 584 811 569 c 0,12,13
 811 553 811 553 822 543 c 0,14,15
 833 532 833 532 848 532 c 0,0,1
773 607 m 0,16,17
 788 607 788 607 799 618 c 256,18,19
 810 629 810 629 810 644 c 0,20,21
 810 660 810 660 799 671 c 0,22,23
 788 681 788 681 773 681 c 0,24,25
 757 681 757 681 746 671 c 0,26,27
 736 660 736 660 736 644 c 0,28,29
 736 629 736 629 746 618 c 0,30,31
 757 607 757 607 773 607 c 0,16,17
773 456 m 0,32,33
 788 456 788 456 799 467 c 256,34,35
 810 478 810 478 810 493 c 256,36,37
 810 508 810 508 799 519 c 256,38,39
 788 530 788 530 773 530 c 0,40,41
 757 530 757 530 746 519 c 0,42,43
 736 508 736 508 736 493 c 256,44,45
 736 478 736 478 746 467 c 0,46,47
 757 456 757 456 773 456 c 0,32,33
660 344 m 0,48,49
 678 344 678 344 688 358 c 0,50,51
 697 368 697 368 697 381 c 0,52,53
 697 396 697 396 686 407 c 256,54,55
 675 418 675 418 660 418 c 256,56,57
 645 418 645 418 634 407 c 256,58,59
 623 396 623 396 623 381 c 0,60,61
 623 368 623 368 632 358 c 0,62,63
 643 344 643 344 660 344 c 0,48,49
364 344 m 0,64,65
 382 344 382 344 393 358 c 0,66,67
 401 368 401 368 401 381 c 0,68,69
 401 396 401 396 390 407 c 0,70,71
 380 418 380 418 364 418 c 0,72,73
 349 418 349 418 338 407 c 256,74,75
 327 396 327 396 327 381 c 0,76,77
 327 368 327 368 336 358 c 0,78,79
 347 344 347 344 364 344 c 0,64,65
215 493 m 2,80,81
 215 478 215 478 225 467 c 0,82,83
 236 456 236 456 252 456 c 0,84,85
 267 456 267 456 278 467 c 256,86,87
 289 478 289 478 289 493 c 2,88,-1
 289 532 l 1,89,-1
 327 532 l 2,90,91
 343 532 343 532 353 543 c 0,92,93
 364 553 364 553 364 569 c 0,94,95
 364 584 364 584 353 595 c 0,96,97
 343 606 343 606 327 606 c 2,98,-1
 289 606 l 1,99,-1
 289 644 l 2,100,101
 289 660 289 660 278 671 c 0,102,103
 267 681 267 681 252 681 c 0,104,105
 236 681 236 681 225 671 c 0,106,107
 215 660 215 660 215 644 c 2,108,-1
 215 606 l 1,109,-1
 176 606 l 2,110,111
 161 606 161 606 150 595 c 256,112,113
 139 584 139 584 139 569 c 0,114,115
 139 553 139 553 150 543 c 0,116,117
 161 532 161 532 176 532 c 2,118,-1
 215 532 l 1,119,-1
 215 493 l 2,80,81
697 606 m 256,120,121
 682 606 682 606 671 595 c 256,122,123
 660 584 660 584 660 569 c 0,124,125
 660 553 660 553 671 543 c 0,126,127
 682 532 682 532 697 532 c 256,128,129
 712 532 712 532 723 543 c 0,130,131
 734 553 734 553 734 569 c 0,132,133
 734 584 734 584 723 595 c 256,134,135
 712 606 712 606 697 606 c 256,120,121
969 582 m 0,136,137
 1024 475 1024 475 1024 378 c 2,138,-1
 1024 373 l 2,139,140
 1023 275 1023 275 965 246 c 0,141,142
 947 236 947 236 925 236 c 0,143,144
 895 236 895 236 859 255 c 0,145,146
 800 286 800 286 745 357 c 1,147,148
 738 328 738 328 714 310 c 256,149,150
 690 292 690 292 660 292 c 0,151,152
 629 292 629 292 605 310 c 0,153,154
 581 329 581 329 574 358 c 1,155,-1
 450 358 l 1,156,157
 443 329 443 329 419 310 c 0,158,159
 395 292 395 292 364 292 c 0,160,161
 334 292 334 292 310 310 c 0,162,163
 287 328 287 328 279 357 c 1,164,165
 225 286 225 286 165 255 c 0,166,167
 129 236 129 236 99 236 c 0,168,169
 78 236 78 236 59 246 c 0,170,171
 2 275 2 275 0 373 c 2,172,-1
 0 377 l 2,173,174
 0 474 0 474 55 582 c 0,175,176
 110 692 110 692 190 750 c 0,177,178
 244 788 244 788 287 788 c 0,179,180
 309 788 309 788 328 779 c 0,181,182
 347 769 347 769 363 745 c 1,183,-1
 662 745 l 1,184,185
 677 769 677 769 696 779 c 0,186,187
 716 788 716 788 737 788 c 0,188,189
 781 788 781 788 834 750 c 0,190,191
 914 692 914 692 969 582 c 0,136,137
EndSplineSet
EndChar

StartChar: uniE035
Encoding: 57397 57397 55
Width: 763
GlyphClass: 2
Flags: W
LayerCount: 2
Fore
SplineSet
382 137 m 0,0,1
 477 137 477 137 545 205 c 256,2,3
 613 273 613 273 613 368 c 0,4,5
 613 425 613 425 587 473 c 0,6,7
 558 530 558 530 504 565 c 0,8,9
 448 599 448 599 382 599 c 256,10,11
 316 599 316 599 259 565 c 0,12,13
 205 531 205 531 176 473 c 0,14,15
 150 425 150 425 150 368 c 0,16,17
 150 273 150 273 218 205 c 256,18,19
 286 137 286 137 382 137 c 0,0,1
169 858 m 0,20,21
 165 849 165 849 163 831 c 0,22,23
 162 824 162 824 162 817 c 0,24,25
 162 804 162 804 164 791 c 0,26,27
 174 734 174 734 220 700 c 1,28,29
 296 736 296 736 382 736 c 2,30,-1
 388 736 l 2,31,32
 469 735 469 735 543 699 c 1,33,34
 588 734 588 734 598 791 c 0,35,36
 601 804 601 804 601 816 c 0,37,38
 601 824 601 824 600 831 c 0,39,40
 598 849 598 849 594 858 c 0,41,42
 564 916 564 916 381 916 c 0,43,44
 199 916 199 916 169 858 c 0,20,21
681 587 m 1,45,46
 762 485 762 485 763 358 c 2,47,-1
 763 354 l 2,48,49
 763 245 763 245 705 152 c 0,50,51
 647 61 647 61 550 13 c 0,52,53
 522 0 522 0 486 0 c 2,54,-1
 279 0 l 2,55,56
 238 0 238 0 203 19 c 0,57,58
 111 67 111 67 56 156 c 0,59,60
 0 247 0 247 0 355 c 0,61,62
 0 487 0 487 81 590 c 1,63,64
 44 668 44 668 40 768 c 0,65,66
 39 780 39 780 39 793 c 0,67,68
 39 818 39 818 42 841 c 0,69,70
 45 870 45 870 50 887 c 0,71,72
 72 953 72 953 158 989 c 0,73,74
 244 1024 244 1024 381 1024 c 0,75,76
 519 1024 519 1024 605 989 c 0,77,78
 691 953 691 953 713 887 c 0,79,80
 718 870 718 870 722 840 c 0,81,82
 724 818 724 818 724 794 c 0,83,84
 724 781 724 781 723 766 c 0,85,86
 718 666 718 666 681 587 c 1,45,46
382 547 m 0,87,88
 433 547 433 547 477 519 c 0,89,90
 520 492 520 492 542 447 c 0,91,92
 560 409 560 409 560 368 c 0,93,94
 560 295 560 295 508 242 c 0,95,96
 455 189 455 189 382 189 c 0,97,98
 308 189 308 189 255 242 c 0,99,100
 203 295 203 295 203 368 c 0,101,102
 203 409 203 409 221 447 c 0,103,104
 243 492 243 492 286 519 c 0,105,106
 330 547 330 547 382 547 c 0,87,88
EndSplineSet
EndChar

StartChar: uniE036
Encoding: 57398 57398 56
Width: 900
GlyphClass: 2
Flags: W
LayerCount: 2
Fore
SplineSet
780 182 m 2,0,1
 780 157 780 157 762 139 c 0,2,3
 745 122 745 122 720 122 c 1,4,-1
 720 753 l 2,5,6
 720 790 720 790 693 817 c 256,7,8
 666 844 666 844 629 844 c 2,9,-1
 120 844 l 1,10,11
 120 869 120 869 137 886 c 0,12,13
 155 904 155 904 180 904 c 2,14,-1
 661 904 l 2,15,16
 710 904 710 904 745 869 c 256,17,18
 780 834 780 834 780 785 c 2,19,-1
 780 182 l 2,0,1
900 301 m 2,20,21
 900 276 900 276 882 259 c 0,22,23
 865 241 865 241 840 241 c 1,24,-1
 840 801 l 2,25,26
 840 868 840 868 792 916 c 0,27,28
 745 963 745 963 677 963 c 2,29,-1
 240 963 l 1,30,31
 240 988 240 988 258 1006 c 0,32,33
 275 1024 275 1024 300 1024 c 2,34,-1
 703 1024 l 2,35,36
 784 1024 784 1024 842 966 c 256,37,38
 900 908 900 908 900 827 c 2,39,-1
 900 301 l 2,20,21
540 182 m 1,40,-1
 480 182 l 1,41,-1
 480 122 l 1,42,-1
 540 122 l 1,43,-1
 540 182 l 1,40,-1
360 241 m 1,44,-1
 360 294 l 1,45,46
 380 284 380 284 404 284 c 0,47,48
 448 284 448 284 478 316 c 0,49,50
 509 348 509 348 509 394 c 0,51,52
 509 451 509 451 444 512 c 0,53,54
 426 530 426 530 388 561 c 0,55,56
 372 575 372 575 359 586 c 2,57,-1
 354 591 l 2,58,59
 350 594 350 594 347 596 c 0,60,61
 339 603 339 603 330 611 c 1,62,63
 290 576 290 576 272 562 c 0,64,65
 206 506 206 506 185 480 c 0,66,67
 151 438 151 438 151 394 c 0,68,69
 151 348 151 348 181 316 c 0,70,71
 212 284 212 284 256 284 c 0,72,73
 279 284 279 284 300 294 c 1,74,-1
 300 241 l 1,75,-1
 240 206 l 1,76,-1
 240 182 l 1,77,-1
 420 182 l 1,78,-1
 420 206 l 1,79,-1
 360 241 l 1,44,-1
120 602 m 1,80,-1
 180 602 l 1,81,-1
 180 662 l 1,82,-1
 120 662 l 1,83,-1
 120 602 l 1,80,-1
603 784 m 2,84,85
 627 784 627 784 643 767 c 0,86,87
 660 751 660 751 660 727 c 2,88,-1
 660 57 l 2,89,90
 660 33 660 33 643 17 c 0,91,92
 627 0 627 0 603 0 c 2,93,-1
 57 0 l 2,94,95
 33 0 33 0 17 17 c 0,96,97
 0 33 0 33 0 57 c 2,98,-1
 0 727 l 2,99,100
 0 751 0 751 17 767 c 0,101,102
 33 784 33 784 57 784 c 2,103,-1
 603 784 l 2,84,85
EndSplineSet
EndChar

StartChar: uniE037
Encoding: 57399 57399 57
Width: 814
GlyphClass: 2
Flags: W
LayerCount: 2
Fore
SplineSet
520 803 m 2,0,1
 520 755 520 755 487 722 c 256,2,3
 454 689 454 689 407 689 c 256,4,5
 360 689 360 689 327 722 c 256,6,7
 294 755 294 755 294 803 c 2,8,-1
 294 806 l 2,9,10
 295 853 295 853 328 884 c 0,11,12
 361 916 361 916 407 916 c 256,13,14
 453 916 453 916 486 884 c 0,15,16
 519 853 519 853 520 806 c 2,17,-1
 520 803 l 2,0,1
466 946 m 1,19,20
 437 956 437 956 407 956 c 256,21,22
 377 956 377 956 348 946 c 1,23,24
 345 956 345 956 345 965 c 0,25,26
 345 989 345 989 363 1007 c 0,27,28
 381 1024 381 1024 407 1024 c 256,29,30
 433 1024 433 1024 451 1007 c 0,31,32
 470 989 470 989 470 965 c 0,33,18
 470 956 470 956 466 946 c 1,19,20
765 316 m 1,35,36
 733 347 733 347 691 371 c 1,37,38
 700 401 700 401 700 436 c 0,39,40
 700 503 700 503 667 564 c 0,41,42
 660 576 660 576 647 580 c 0,43,44
 642 582 642 582 637 582 c 0,45,46
 629 582 629 582 621 577 c 0,47,48
 609 571 609 571 606 558 c 0,49,50
 604 552 604 552 604 547 c 0,51,52
 604 539 604 539 608 532 c 0,53,54
 633 488 633 488 633 436 c 0,55,56
 633 415 633 415 629 403 c 0,57,58
 627 385 627 385 621 370 c 256,59,60
 615 355 615 355 607 340 c 0,61,62
 569 267 569 267 488 239 c 0,63,64
 448 224 448 224 407 224 c 0,65,66
 364 224 364 224 327 239 c 0,67,68
 246 266 246 266 207 340 c 0,69,70
 197 357 197 357 194 370 c 0,71,72
 188 385 188 385 185 403 c 0,73,74
 182 418 182 418 182 436 c 0,75,76
 182 487 182 487 206 532 c 0,77,78
 210 539 210 539 210 547 c 0,79,80
 210 552 210 552 209 558 c 0,81,82
 205 571 205 571 193 577 c 0,83,84
 185 582 185 582 177 582 c 0,85,86
 172 582 172 582 167 580 c 0,87,88
 154 576 154 576 148 564 c 0,89,90
 115 504 115 504 115 436 c 0,91,92
 115 401 115 401 123 371 c 1,93,94
 83 348 83 348 49 316 c 1,95,96
 6 390 6 390 6 473 c 0,97,98
 6 573 6 573 68 658 c 0,99,100
 127 740 127 740 227 783 c 1,101,102
 235 715 235 715 286 668 c 0,103,104
 338 622 338 622 407 622 c 256,105,106
 476 622 476 622 528 668 c 0,107,108
 579 715 579 715 587 783 c 1,109,110
 687 740 687 740 747 658 c 0,111,112
 808 573 808 573 808 473 c 0,113,34
 808 390 808 390 765 316 c 1,35,36
194 178 m 0,115,116
 134 129 134 129 134 67 c 0,117,118
 134 39 134 39 114 19 c 0,119,120
 95 0 95 0 67 0 c 256,121,122
 39 0 39 0 20 19 c 0,123,124
 0 39 0 39 0 67 c 0,125,126
 0 176 0 176 88 261 c 0,127,128
 112 285 112 285 147 308 c 1,129,130
 181 246 181 246 240 208 c 1,131,114
 213 194 213 194 194 178 c 0,115,116
794 19 m 0,133,134
 774 0 774 0 747 0 c 0,135,136
 719 0 719 0 699 19 c 0,137,138
 680 39 680 39 680 67 c 0,139,140
 680 130 680 130 619 178 c 0,141,142
 600 194 600 194 574 208 c 1,143,144
 632 246 632 246 666 308 c 1,145,146
 699 288 699 288 725 261 c 0,147,148
 814 176 814 176 814 67 c 0,149,132
 814 39 814 39 794 19 c 0,133,134
EndSplineSet
EndChar

StartChar: uniE038
Encoding: 57400 57400 58
Width: 1024
GlyphClass: 2
Flags: W
LayerCount: 2
Fore
SplineSet
966 883 m 2,0,1
 993 883 993 883 1010 862 c 0,2,3
 1024 846 1024 846 1024 826 c 0,4,5
 1024 821 1024 821 1023 815 c 2,6,-1
 989 607 l 2,7,8
 983 576 983 576 959 556 c 0,9,10
 935 535 935 535 903 535 c 2,11,-1
 803 535 l 1,12,-1
 931 58 l 2,13,14
 932 52 932 52 932 46 c 0,15,16
 932 34 932 34 926 23 c 0,17,18
 916 7 916 7 898 2 c 0,19,20
 892 0 892 0 885 0 c 0,21,22
 874 0 874 0 864 6 c 0,23,24
 848 16 848 16 842 34 c 2,25,-1
 708 535 l 1,26,-1
 316 535 l 1,27,-1
 181 34 l 2,28,29
 176 16 176 16 160 6 c 0,30,31
 150 0 150 0 139 0 c 0,32,33
 132 0 132 0 126 2 c 0,34,35
 107 7 107 7 98 23 c 0,36,37
 92 34 92 34 92 46 c 0,38,39
 92 52 92 52 93 58 c 2,40,-1
 221 535 l 1,41,-1
 121 535 l 2,42,43
 89 535 89 535 65 556 c 0,44,45
 40 576 40 576 35 608 c 2,46,-1
 1 815 l 2,47,48
 0 821 0 821 0 826 c 0,49,50
 0 846 0 846 14 862 c 0,51,52
 31 883 31 883 58 883 c 2,53,-1
 378 883 l 1,54,-1
 378 995 l 2,55,56
 378 1007 378 1007 387 1016 c 0,57,58
 395 1024 395 1024 407 1024 c 256,59,60
 419 1024 419 1024 428 1016 c 0,61,62
 436 1007 436 1007 436 995 c 2,63,-1
 436 883 l 1,64,-1
 588 883 l 1,65,-1
 588 995 l 2,66,67
 588 1007 588 1007 596 1016 c 0,68,69
 605 1024 605 1024 617 1024 c 256,70,71
 629 1024 629 1024 637 1016 c 0,72,73
 646 1007 646 1007 646 995 c 2,74,-1
 646 883 l 1,75,-1
 966 883 l 2,0,1
EndSplineSet
EndChar

StartChar: uniE039
Encoding: 57401 57401 59
Width: 1024
GlyphClass: 2
Flags: W
LayerCount: 2
Fore
SplineSet
641 760 m 2,0,1
 651 760 651 760 655 752 c 0,2,3
 657 748 657 748 657 745 c 0,4,5
 657 740 657 740 654 736 c 2,6,-1
 324 264 l 1,7,-1
 208 345 l 1,8,-1
 483 738 l 2,9,10
 498 760 498 760 525 760 c 2,11,-1
 641 760 l 2,0,1
630 612 m 1,12,-1
 816 346 l 1,13,-1
 700 264 l 1,14,-1
 543 489 l 1,15,-1
 630 612 l 1,12,-1
26 572 m 2,16,17
 15 572 15 572 7 580 c 0,18,19
 0 587 0 587 0 598 c 2,20,-1
 0 734 l 2,21,22
 0 745 0 745 7 753 c 0,23,24
 15 760 15 760 26 760 c 2,25,-1
 406 760 l 2,26,27
 415 760 415 760 420 752 c 0,28,29
 422 748 422 748 422 744 c 256,30,31
 422 740 422 740 419 736 c 2,32,-1
 320 594 l 2,33,34
 304 572 304 572 278 572 c 2,35,-1
 26 572 l 2,16,17
998 760 m 2,36,37
 1009 760 1009 760 1017 753 c 0,38,39
 1024 745 1024 745 1024 734 c 2,40,-1
 1024 597 l 2,41,42
 1024 587 1024 587 1017 579 c 0,43,44
 1009 572 1009 572 998 572 c 2,45,-1
 747 572 l 2,46,47
 720 572 720 572 704 594 c 2,48,-1
 661 656 l 1,49,-1
 718 738 l 2,50,51
 733 760 733 760 760 760 c 2,52,-1
 998 760 l 2,36,37
EndSplineSet
EndChar

StartChar: uniE03A
Encoding: 57402 57402 60
Width: 1024
GlyphClass: 2
Flags: W
LayerCount: 2
Fore
SplineSet
763 98 m 0,1,2
 773 95 773 95 774 84 c 2,3,-1
 774 81 l 2,4,5
 774 72 774 72 766 67 c 0,6,7
 649 0 649 0 512 0 c 0,8,9
 376 0 376 0 258 67 c 0,10,11
 250 72 250 72 250 82 c 2,12,-1
 250 84 l 2,13,14
 251 95 251 95 261 98 c 0,15,16
 374 139 374 139 512 139 c 0,17,0
 651 139 651 139 763 98 c 0,1,2
261 926 m 0,19,20
 251 929 251 929 250 940 c 2,21,-1
 250 942 l 2,22,23
 250 951 250 951 258 956 c 0,24,25
 376 1024 376 1024 512 1024 c 256,26,27
 648 1024 648 1024 766 956 c 0,28,29
 775 952 775 952 775 941 c 2,30,-1
 775 940 l 2,31,32
 774 929 774 929 764 926 c 0,33,34
 652 885 652 885 512 885 c 256,35,18
 372 885 372 885 261 926 c 0,19,20
687 335 m 256,37,38
 733 381 733 381 750 443 c 0,39,40
 759 478 759 478 759 512 c 0,41,42
 759 542 759 542 752 572 c 0,43,44
 737 632 737 632 695 678 c 0,45,46
 654 724 654 724 597 745 c 0,47,48
 556 760 556 760 513 760 c 0,49,50
 492 760 492 760 471 756 c 0,51,52
 393 744 393 744 336 686 c 256,53,54
 279 628 279 628 268 550 c 0,55,56
 265 530 265 530 265 511 c 0,57,58
 265 467 265 467 280 425 c 0,59,60
 302 368 302 368 347 328 c 0,61,62
 392 286 392 286 451 272 c 0,63,64
 482 264 482 264 512 264 c 0,65,66
 545 264 545 264 579 273 c 0,67,36
 641 289 641 289 687 335 c 256,37,38
981 718 m 0,69,70
 1024 620 1024 620 1024 512 c 256,71,72
 1024 404 1024 404 981 306 c 0,73,74
 939 211 939 211 863 140 c 0,75,76
 853 131 853 131 842 131 c 0,77,78
 834 131 834 131 826 135 c 0,79,80
 693 196 693 196 512 196 c 0,81,82
 333 196 333 196 199 135 c 0,83,84
 190 131 190 131 182 131 c 0,85,86
 171 131 171 131 161 140 c 0,87,88
 85 211 85 211 44 306 c 0,89,90
 0 404 0 404 0 512 c 256,91,92
 0 620 0 620 43 718 c 0,93,94
 85 813 85 813 161 884 c 0,95,96
 171 893 171 893 182 893 c 0,97,98
 190 893 190 893 198 889 c 0,99,100
 331 828 331 828 512 828 c 0,101,102
 694 828 694 828 826 889 c 0,103,104
 834 893 834 893 842 893 c 0,105,106
 854 893 854 893 864 884 c 0,107,68
 939 813 939 813 981 718 c 0,69,70
512 703 m 256,108,109
 591 703 591 703 647 647 c 256,110,111
 703 591 703 591 703 512 c 256,112,113
 703 433 703 433 647 377 c 256,114,115
 591 321 591 321 512 321 c 256,116,117
 433 321 433 321 377 377 c 0,118,119
 322 433 322 433 322 512 c 256,120,121
 322 591 322 591 377 647 c 0,122,123
 433 703 433 703 512 703 c 256,108,109
EndSplineSet
EndChar

StartChar: uniE03B
Encoding: 57403 57403 61
Width: 1024
GlyphClass: 2
Flags: W
LayerCount: 2
Fore
SplineSet
57 74 m 2,0,1
 57 57 57 57 74 57 c 2,2,-1
 239 57 l 1,3,-1
 239 0 l 1,4,-1
 57 0 l 2,5,6
 34 0 34 0 17 17 c 256,7,8
 0 34 0 34 0 57 c 2,9,-1
 0 239 l 1,10,-1
 57 239 l 1,11,-1
 57 74 l 2,0,1
1024 239 m 1,12,-1
 1024 57 l 2,13,14
 1024 34 1024 34 1007 17 c 0,15,16
 991 0 991 0 967 0 c 2,17,-1
 786 0 l 1,18,-1
 786 57 l 1,19,-1
 950 57 l 2,20,21
 967 57 967 57 967 74 c 2,22,-1
 967 239 l 1,23,-1
 1024 239 l 1,12,-1
0 967 m 2,24,25
 0 991 0 991 17 1007 c 0,26,27
 34 1024 34 1024 57 1024 c 2,28,-1
 239 1024 l 1,29,-1
 239 967 l 1,30,-1
 74 967 l 2,31,32
 57 967 57 967 57 950 c 2,33,-1
 57 786 l 1,34,-1
 0 786 l 1,35,-1
 0 967 l 2,24,25
967 1024 m 2,36,37
 991 1024 991 1024 1007 1007 c 0,38,39
 1024 991 1024 991 1024 967 c 2,40,-1
 1024 786 l 1,41,-1
 967 786 l 1,42,-1
 967 950 l 2,43,44
 967 967 967 967 950 967 c 2,45,-1
 786 967 l 1,46,-1
 786 1024 l 1,47,-1
 967 1024 l 2,36,37
661 400 m 2,48,49
 661 462 661 462 617 506 c 0,50,51
 574 549 574 549 512 549 c 0,52,53
 451 549 451 549 407 506 c 0,54,55
 364 462 364 462 364 400 c 2,56,-1
 364 336 l 2,57,58
 364 324 364 324 372 316 c 0,59,60
 380 307 380 307 392 307 c 2,61,-1
 632 307 l 2,62,63
 644 307 644 307 652 316 c 0,64,65
 661 324 661 324 661 336 c 2,66,-1
 661 400 l 2,48,49
512 706 m 256,67,68
 482 706 482 706 461 685 c 256,69,70
 440 664 440 664 440 633 c 0,71,72
 440 603 440 603 461 582 c 256,73,74
 482 561 482 561 512 561 c 256,75,76
 542 561 542 561 564 582 c 0,77,78
 585 603 585 603 585 633 c 0,79,80
 585 664 585 664 564 685 c 0,81,82
 542 706 542 706 512 706 c 256,67,68
944 545 m 2,83,84
 956 545 956 545 965 536 c 0,85,86
 973 528 973 528 973 516 c 256,87,88
 973 504 973 504 965 496 c 0,89,90
 956 488 956 488 944 488 c 2,91,-1
 892 488 l 1,92,93
 882 347 882 347 782 247 c 0,94,95
 681 146 681 146 541 136 c 1,96,-1
 541 84 l 2,97,98
 541 72 541 72 532 64 c 0,99,100
 524 55 524 55 512 55 c 256,101,102
 500 55 500 55 492 64 c 0,103,104
 484 72 484 72 484 84 c 2,105,-1
 484 136 l 1,106,107
 343 146 343 146 243 247 c 0,108,109
 142 347 142 347 132 488 c 1,110,-1
 80 488 l 2,111,112
 68 488 68 488 60 496 c 0,113,114
 51 504 51 504 51 516 c 256,115,116
 51 528 51 528 60 536 c 0,117,118
 68 545 68 545 80 545 c 2,119,-1
 132 545 l 1,120,121
 142 685 142 685 243 785 c 0,122,123
 343 885 343 885 484 896 c 1,124,-1
 484 948 l 2,125,126
 484 960 484 960 492 969 c 0,127,128
 500 977 500 977 512 977 c 256,129,130
 524 977 524 977 532 969 c 0,131,132
 541 960 541 960 541 948 c 2,133,-1
 541 896 l 1,134,135
 681 885 681 885 782 785 c 0,136,137
 882 685 882 685 892 545 c 1,138,-1
 944 545 l 2,83,84
EndSplineSet
EndChar

StartChar: uniE03C
Encoding: 57404 57404 62
Width: 1023
GlyphClass: 2
Flags: W
LayerCount: 2
Fore
SplineSet
309 486 m 1,0,-1
 427 190 l 1,1,2
 450 211 450 211 469 229 c 0,3,4
 494 252 494 252 509 264 c 0,5,6
 612 355 612 355 641 396 c 0,7,8
 664 427 664 427 664 453 c 0,9,10
 664 470 664 470 655 486 c 1,11,-1
 309 486 l 1,0,-1
509 758 m 0,12,13
 475 788 475 788 427 833 c 1,14,-1
 308 537 l 1,15,-1
 655 537 l 1,16,17
 664 552 664 552 664 569 c 0,18,19
 664 596 664 596 641 627 c 0,20,21
 612 667 612 667 509 758 c 0,12,13
1014 527 m 2,22,23
 1023 522 1023 522 1023 511 c 0,24,25
 1023 501 1023 501 1014 496 c 2,26,-1
 912 445 l 2,27,28
 908 443 908 443 904 443 c 0,29,30
 899 443 899 443 894 446 c 0,31,32
 886 451 886 451 886 460 c 2,33,-1
 886 486 l 1,34,-1
 763 486 l 1,35,36
 767 470 767 470 767 454 c 0,37,38
 767 394 767 394 718 329 c 0,39,40
 694 297 694 297 653 257 c 0,41,42
 636 242 636 242 615 222 c 2,43,-1
 576 188 l 2,44,45
 557 171 557 171 520 137 c 0,46,47
 507 126 507 126 494 114 c 0,48,49
 484 105 484 105 480 101 c 1,50,-1
 480 100 l 1,51,-1
 479 99 l 1,52,-1
 479 98 l 2,53,54
 479 91 479 91 488 76 c 0,55,56
 494 65 494 65 494 52 c 0,57,58
 494 46 494 46 493 41 c 0,59,60
 489 22 489 22 474 11 c 0,61,62
 461 0 461 0 443 0 c 0,63,64
 440 0 440 0 433 1 c 0,65,66
 410 6 410 6 399 26 c 0,67,68
 375 68 375 68 375 103 c 0,69,70
 376 128 376 128 389 149 c 1,71,-1
 254 486 l 1,72,-1
 153 486 l 1,73,-1
 115 448 l 2,74,75
 109 443 109 443 102 443 c 2,76,-1
 18 443 l 2,77,78
 6 443 6 443 2 453 c 0,79,80
 0 457 0 457 0 461 c 0,81,82
 0 467 0 467 5 472 c 2,83,-1
 44 511 l 1,84,-1
 5 550 l 2,85,86
 0 555 0 555 0 562 c 0,87,88
 0 565 0 565 1 569 c 0,89,90
 5 580 5 580 17 580 c 2,91,-1
 102 580 l 2,92,93
 109 580 109 580 114 575 c 2,94,-1
 152 537 l 1,95,-1
 253 537 l 1,96,-1
 388 874 l 1,97,98
 376 895 376 895 376 919 c 2,99,-1
 376 921 l 2,100,101
 376 955 376 955 399 997 c 0,102,103
 409 1015 409 1015 433 1023 c 0,104,105
 439 1024 439 1024 445 1024 c 0,106,107
 461 1024 461 1024 475 1013 c 0,108,109
 490 1002 490 1002 494 983 c 0,110,111
 495 977 495 977 495 972 c 0,112,113
 495 959 495 959 488 948 c 2,114,-1
 481 922 l 1,115,116
 485 919 485 919 495 909 c 0,117,118
 507 898 507 898 520 886 c 0,119,120
 557 852 557 852 576 836 c 2,121,-1
 615 801 l 2,122,123
 637 782 637 782 653 766 c 0,124,125
 694 727 694 727 719 694 c 0,126,127
 767 629 767 629 767 569 c 0,128,129
 767 553 767 553 764 537 c 1,130,-1
 887 537 l 1,131,-1
 887 563 l 2,132,133
 887 572 887 572 895 577 c 0,134,135
 899 580 899 580 904 580 c 0,136,137
 907 580 907 580 912 578 c 2,138,-1
 1014 527 l 2,22,23
EndSplineSet
EndChar

StartChar: uniE03D
Encoding: 57405 57405 63
Width: 1024
GlyphClass: 2
Flags: W
LayerCount: 2
Fore
SplineSet
2 211 m 1,0,1
 61 211 61 211 107 230 c 0,2,3
 152 249 152 249 166 279 c 0,4,5
 172 290 172 290 172 303 c 1,6,7
 172 290 172 290 178 279 c 0,8,9
 192 249 192 249 238 230 c 256,10,11
 284 211 284 211 343 211 c 0,12,13
 401 211 401 211 447 230 c 0,14,15
 492 249 492 249 507 279 c 0,16,17
 513 290 513 290 513 303 c 1,18,19
 513 290 513 290 518 279 c 0,20,21
 533 249 533 249 579 230 c 256,22,23
 625 211 625 211 683 211 c 0,24,25
 742 211 742 211 788 230 c 256,26,27
 834 249 834 249 848 279 c 0,28,29
 854 290 854 290 854 303 c 1,30,31
 854 290 854 290 860 279 c 0,32,33
 874 249 874 249 920 230 c 0,34,35
 965 211 965 211 1024 211 c 1,36,-1
 1024 152 l 1,37,38
 964 152 964 152 916 171 c 0,39,40
 870 189 870 189 854 218 c 1,41,42
 838 189 838 189 791 171 c 0,43,44
 743 152 743 152 683 152 c 0,45,46
 622 152 622 152 574 171 c 0,47,48
 527 189 527 189 512 219 c 1,49,50
 496 189 496 189 449 171 c 0,51,52
 402 152 402 152 342 152 c 0,53,54
 281 152 281 152 233 171 c 0,55,56
 186 189 186 189 170 219 c 1,57,58
 155 189 155 189 108 171 c 0,59,60
 61 152 61 152 0 152 c 1,61,-1
 2 211 l 1,0,1
2 0 m 1,62,-1
 2 59 l 1,63,64
 61 59 61 59 107 79 c 0,65,66
 152 98 152 98 166 128 c 0,67,68
 172 138 172 138 172 152 c 1,69,70
 172 138 172 138 178 128 c 0,71,72
 192 98 192 98 238 79 c 0,73,74
 284 59 284 59 343 59 c 0,75,76
 401 59 401 59 447 79 c 0,77,78
 492 98 492 98 507 128 c 0,79,80
 513 138 513 138 513 152 c 1,81,82
 513 138 513 138 518 128 c 0,83,84
 533 98 533 98 579 79 c 0,85,86
 625 59 625 59 683 59 c 0,87,88
 742 59 742 59 788 79 c 0,89,90
 834 98 834 98 848 128 c 0,91,92
 854 138 854 138 854 152 c 1,93,94
 854 138 854 138 860 128 c 0,95,96
 874 98 874 98 920 79 c 0,97,98
 965 59 965 59 1024 59 c 1,99,-1
 1024 0 l 1,100,-1
 2 0 l 1,62,-1
732 629 m 0,102,103
 699 595 699 595 652 595 c 256,104,105
 605 595 605 595 571 629 c 0,106,107
 538 662 538 662 538 709 c 0,108,109
 538 748 538 748 561 778 c 2,110,-1
 652 913 l 1,111,-1
 742 778 l 1,112,-1
 743 778 l 1,113,-1
 743 777 l 1,114,115
 766 747 766 747 766 709 c 0,116,101
 766 662 766 662 732 629 c 0,102,103
648 418 m 0,118,119
 582 363 582 363 496 363 c 0,120,121
 398 363 398 363 328 432 c 0,122,123
 259 502 259 502 259 600 c 0,124,125
 259 678 259 678 305 740 c 2,126,-1
 496 1024 l 1,127,-1
 577 904 l 1,128,-1
 514 810 l 1,129,-1
 513 810 l 1,130,131
 481 764 481 764 481 709 c 0,132,133
 481 638 481 638 531 588 c 256,134,135
 581 538 581 538 652 538 c 0,136,137
 693 538 693 538 729 557 c 1,138,117
 714 474 714 474 648 418 c 0,118,119
EndSplineSet
EndChar

StartChar: uniE03E
Encoding: 57406 57406 64
Width: 1024
GlyphClass: 2
Flags: W
LayerCount: 2
Fore
SplineSet
512 263 m 0,0,1
 557 263 557 263 590 231 c 0,2,3
 622 198 622 198 622 153 c 0,4,5
 622 107 622 107 590 75 c 0,6,7
 557 43 557 43 512 43 c 0,8,9
 466 43 466 43 434 75 c 0,10,11
 401 107 401 107 401 153 c 0,12,13
 401 198 401 198 434 231 c 0,14,15
 466 263 466 263 512 263 c 0,0,1
954 710 m 1,16,17
 961 721 961 721 961 732 c 0,18,19
 961 740 961 740 958 747 c 0,20,21
 956 754 956 754 952 762 c 0,22,23
 950 764 950 764 948 767 c 0,24,25
 946 769 946 769 944 772 c 1,26,-1
 919 745 l 1,27,-1
 954 710 l 1,16,17
884 671 m 1,28,29
 917 676 917 676 933 688 c 1,30,-1
 897 724 l 1,31,-1
 864 691 l 1,32,-1
 884 671 l 1,28,29
842 713 m 1,33,-1
 874 745 l 1,34,-1
 843 778 l 1,35,-1
 810 744 l 1,36,-1
 842 713 l 1,33,-1
819 691 m 1,37,-1
 788 722 l 1,38,-1
 755 690 l 1,39,-1
 787 658 l 1,40,-1
 819 691 l 1,37,-1
756 634 m 0,41,42
 759 635 759 635 763 639 c 1,43,-1
 733 668 l 1,44,-1
 701 635 l 1,45,-1
 727 609 l 1,46,47
 739 618 739 618 756 634 c 0,41,42
657 592 m 1,48,49
 667 587 667 587 678 587 c 0,50,51
 688 587 688 587 699 591 c 1,52,-1
 678 612 l 1,53,-1
 657 592 l 1,48,49
655 635 m 1,54,-1
 634 656 l 1,55,56
 629 645 629 645 629 635 c 0,57,58
 629 624 629 624 635 615 c 1,59,-1
 655 635 l 1,54,-1
677 713 m 0,60,61
 662 698 662 698 652 684 c 1,62,-1
 678 657 l 1,63,-1
 710 690 l 1,64,-1
 682 719 l 1,65,66
 678 716 678 716 677 713 c 0,60,61
701 744 m 1,67,-1
 733 712 l 1,68,-1
 766 744 l 1,69,-1
 734 776 l 1,70,-1
 701 744 l 1,67,-1
730 890 m 1,71,72
 719 873 719 873 714 841 c 1,73,-1
 734 821 l 1,74,-1
 767 854 l 1,75,-1
 730 890 l 1,71,72
791 915 m 256,76,77
 783 917 783 917 776 917 c 0,78,79
 764 917 764 917 754 912 c 1,80,-1
 790 876 l 1,81,-1
 815 902 l 1,82,83
 811 906 811 906 805 908 c 0,84,85
 799 913 799 913 791 915 c 256,76,77
789 831 m 1,86,-1
 756 799 l 1,87,-1
 787 767 l 1,88,-1
 820 799 l 1,89,-1
 789 831 l 1,86,-1
837 880 m 1,90,-1
 811 854 l 1,91,-1
 843 822 l 1,92,-1
 869 848 l 1,93,-1
 837 880 l 1,90,-1
891 826 m 1,94,-1
 865 800 l 1,95,-1
 897 768 l 1,96,-1
 923 794 l 1,97,-1
 891 826 l 1,94,-1
987 819 m 2,98,99
 1018 789 1018 789 1023 746 c 0,100,101
 1024 739 1024 739 1024 732 c 0,102,103
 1024 687 1024 687 988 650 c 0,104,105
 964 626 964 626 928 615 c 0,106,107
 914 611 914 611 897 608 c 2,108,-1
 881 607 l 1,109,-1
 867 605 l 2,110,111
 814 600 814 600 799 586 c 0,112,113
 750 541 750 541 714 528 c 0,114,115
 695 522 695 522 678 522 c 0,116,117
 651 522 651 522 626 537 c 1,118,-1
 593 504 l 1,119,-1
 548 549 l 1,120,-1
 581 582 l 1,121,122
 566 607 566 607 566 634 c 0,123,124
 566 652 566 652 573 670 c 0,125,126
 585 706 585 706 630 755 c 0,127,128
 644 770 644 770 649 823 c 0,129,130
 650 842 650 842 652 854 c 0,131,132
 655 871 655 871 658 885 c 0,133,134
 669 920 669 920 693 944 c 0,135,136
 731 981 731 981 775 981 c 0,137,138
 782 981 782 981 789 980 c 0,139,140
 832 975 832 975 862 944 c 2,141,-1
 987 819 l 2,98,99
431 432 m 1,142,-1
 476 388 l 1,143,-1
 142 53 l 2,144,145
 131 43 131 43 119 43 c 0,146,147
 105 43 105 43 97 53 c 0,148,149
 87 62 87 62 87 75 c 256,150,151
 87 88 87 88 97 98 c 2,152,-1
 431 432 l 1,142,-1
388 615 m 1,153,154
 395 624 395 624 395 635 c 0,155,156
 395 645 395 645 389 656 c 1,157,-1
 368 635 l 1,158,-1
 388 615 l 1,153,154
345 587 m 0,159,160
 357 587 357 587 366 592 c 1,161,-1
 346 612 l 1,162,-1
 324 591 l 1,163,164
 336 587 336 587 345 587 c 0,159,160
324 635 m 1,165,-1
 291 667 l 1,166,-1
 262 638 l 1,167,-1
 264 636 l 1,168,-1
 267 634 l 2,169,170
 280 621 280 621 297 608 c 1,171,-1
 324 635 l 1,165,-1
237 658 m 1,172,-1
 269 690 l 1,173,-1
 236 722 l 1,174,-1
 205 691 l 1,175,-1
 237 658 l 1,172,-1
182 713 m 1,176,-1
 214 744 l 1,177,-1
 181 777 l 1,178,-1
 150 745 l 1,179,-1
 182 713 l 1,176,-1
160 690 m 1,180,-1
 127 724 l 1,181,-1
 91 687 l 1,182,183
 105 676 105 676 140 671 c 1,184,-1
 160 690 l 1,180,-1
65 747 m 0,185,186
 63 740 63 740 63 733 c 0,187,188
 63 721 63 721 70 710 c 1,189,-1
 105 745 l 1,190,-1
 79 772 l 1,191,192
 75 768 75 768 72 762 c 0,193,194
 68 755 68 755 65 747 c 0,185,186
101 794 m 1,195,-1
 127 768 l 1,196,-1
 158 800 l 1,197,-1
 132 826 l 1,198,-1
 101 794 l 1,195,-1
154 848 m 1,199,-1
 180 822 l 1,200,-1
 212 854 l 1,201,-1
 187 880 l 1,202,-1
 154 848 l 1,199,-1
232 915 m 0,203,204
 225 913 225 913 218 908 c 2,205,-1
 213 905 l 2,206,207
 211 904 211 904 208 902 c 1,208,-1
 235 876 l 1,209,-1
 270 912 l 1,210,211
 258 918 258 918 247 918 c 0,212,213
 240 918 240 918 232 915 c 0,203,204
310 841 m 1,214,215
 305 874 305 874 293 890 c 1,216,-1
 257 854 l 1,217,-1
 290 821 l 1,218,-1
 310 841 l 1,214,215
268 799 m 1,219,-1
 235 831 l 1,220,-1
 203 799 l 1,221,-1
 236 767 l 1,222,-1
 268 799 l 1,219,-1
323 744 m 1,223,-1
 290 776 l 1,224,-1
 258 745 l 1,225,-1
 291 713 l 1,226,-1
 323 744 l 1,223,-1
314 690 m 1,227,-1
 346 657 l 1,228,-1
 372 683 l 1,229,230
 368 689 368 689 360 698 c 2,231,-1
 354 705 l 1,232,-1
 347 713 l 2,233,234
 346 715 346 715 345 716 c 2,235,-1
 342 719 l 1,236,-1
 314 690 l 1,227,-1
927 98 m 2,237,238
 936 88 936 88 937 75 c 0,239,240
 937 62 937 62 928 53 c 0,241,242
 918 43 918 43 905 43 c 0,243,244
 891 43 891 43 882 53 c 2,245,-1
 512 424 l 1,246,-1
 467 469 l 1,247,-1
 398 537 l 1,248,249
 372 523 372 523 346 523 c 0,250,251
 327 523 327 523 310 529 c 0,252,253
 275 542 275 542 225 587 c 0,254,255
 210 600 210 600 157 606 c 0,256,257
 138 607 138 607 127 608 c 0,258,259
 110 611 110 611 96 615 c 0,260,261
 60 626 60 626 36 650 c 0,262,263
 0 687 0 687 0 732 c 0,264,265
 0 739 0 739 1 746 c 0,266,267
 6 789 6 789 36 819 c 2,268,-1
 161 945 l 2,269,270
 196 981 196 981 245 981 c 2,271,-1
 247 981 l 2,272,273
 294 981 294 981 330 945 c 0,274,275
 354 921 354 921 365 885 c 0,276,277
 369 871 369 871 372 854 c 2,278,-1
 374 838 l 1,279,-1
 376 824 l 2,280,281
 381 772 381 772 394 756 c 0,282,283
 440 706 440 706 451 671 c 0,284,285
 458 653 458 653 458 635 c 0,286,287
 458 608 458 608 443 582 c 1,288,-1
 512 513 l 1,289,-1
 557 469 l 1,290,-1
 927 98 l 2,237,238
EndSplineSet
EndChar

